<svg width="100" height="50" viewBox="0 0 100 50" fill="none" xmlns="http://www.w3.org/2000/svg">
<g id="asapLogo">
<g id="Vector">
<path d="M27.2845 1.67232C27.8584 0.63763 28.9205 2.64023e-08 30.0701 0C32.5436 -5.68078e-08 34.0904 2.78019 32.8557 5.00644L25.2571 18.7063C24.6832 19.741 23.6211 20.3786 22.4715 20.3786C19.998 20.3786 18.4512 17.5985 19.6859 15.3722L27.2845 1.67232Z" fill="url(#paint0_linear_1115_2553)"/>
<path d="M29.4445 18.0408C30.0204 17.0025 31.0877 16.3643 32.2413 16.3685C34.7097 16.3775 36.2479 19.1532 35.0156 21.3749L24.2457 40.7924C23.6718 41.8271 22.6098 42.4647 21.4602 42.4647C18.9867 42.4647 17.4398 39.6845 18.6746 37.4583L29.4445 18.0408Z" fill="url(#paint1_linear_1115_2553)"/>
<path d="M0 26.7046C0 28.4071 0.613338 29.7904 1.84001 30.7835C3.06669 31.8121 4.63411 32.3087 6.54227 32.3087C9.47266 32.3087 11.5171 31.3156 12.6756 29.3293C12.7097 30.1451 12.8119 30.9964 12.9823 31.8476H16.3897C16.049 30.1451 15.8786 27.8751 15.8786 24.9666C15.8786 24.6829 15.8786 23.8671 15.9127 22.5547C15.9127 21.2424 15.9468 20.533 15.9468 20.3911C16.0149 14.9998 13.5275 12.3042 8.55265 12.3042C6.40597 12.3042 4.63411 12.9071 3.20299 14.0776C1.77186 15.2481 0.988155 16.8087 0.851858 18.795H4.42966C4.49781 17.6245 4.87263 16.7378 5.55411 16.0993C6.2356 15.4609 7.18968 15.1417 8.41636 15.1417C11.0401 15.1417 12.369 16.6668 12.369 19.6463V20.0364C11.0742 20.1783 9.91563 20.3556 8.96154 20.4975C7.97339 20.6394 6.98523 20.8522 5.99708 21.065C5.00892 21.3133 4.19114 21.5971 3.50965 21.9163C2.82817 22.271 2.18076 22.6611 1.63557 23.0868C1.09038 23.5479 0.681486 24.0799 0.408892 24.6829C0.136297 25.2858 0 25.9597 0 26.7046ZM12.5393 22.7675V24.1508C12.5393 25.9597 12.0623 27.3076 11.1082 28.1588C10.1541 29.0456 8.8934 29.4712 7.32598 29.4712C6.2356 29.4712 5.38374 29.2229 4.7704 28.7263C4.15707 28.2298 3.8504 27.5204 3.8504 26.6337C3.8504 25.4632 4.53188 24.6119 5.89486 24.0444C7.25783 23.5124 9.47266 23.0868 12.5393 22.7675Z" fill="#F0F0F0"/>
<path d="M30.7505 18.0856H34.2601C33.9194 16.3122 33.0675 14.8934 31.7386 13.9003C30.4097 12.9071 28.8082 12.3751 26.9341 12.3751C24.8215 12.3751 23.0837 12.8717 21.6526 13.8648C20.2215 14.8579 19.5059 16.1703 19.5059 17.8019C19.5059 20.7103 21.2778 22.5192 24.8556 23.2286L27.6156 23.7961C29.9327 24.2927 31.1253 25.2504 31.1253 26.6691C31.1253 27.5204 30.7164 28.1588 29.9668 28.6554C29.2171 29.152 28.229 29.3648 27.0704 29.3648C24.6171 29.3648 23.1519 28.2298 22.6749 25.9243H19.063C19.2674 27.8041 20.0852 29.3293 21.4823 30.5353C22.8793 31.7412 24.7193 32.3087 26.9682 32.3087C29.149 32.3087 30.989 31.7767 32.4542 30.6771C33.9194 29.6131 34.669 28.1234 34.669 26.2435C34.669 24.541 34.0898 23.2996 32.9312 22.4483C31.7727 21.6325 30.2053 20.9941 28.1608 20.5684L25.5371 20.0364C24.6512 19.8591 24.0038 19.5753 23.5949 19.2206C23.186 18.8659 22.9815 18.3694 22.9815 17.66C22.9815 16.9506 23.3223 16.3831 24.0719 15.9575C24.7875 15.5673 25.6393 15.3545 26.5934 15.3545C28.8764 15.3545 30.2734 16.2767 30.7505 18.0856Z" fill="#F0F0F0"/>
<path d="M37.1357 26.7046C37.1357 28.4071 37.749 29.7904 38.9757 30.7835C40.2024 31.8121 41.7698 32.3087 43.6779 32.3087C46.6083 32.3087 48.6528 31.3156 49.8113 29.3293C49.8454 30.1451 49.9476 30.9964 50.118 31.8476H53.5254C53.1847 30.1451 53.0143 27.8751 53.0143 24.9666C53.0143 24.6829 53.0143 23.8671 53.0484 22.5547C53.0484 21.2424 53.0825 20.533 53.0825 20.3911C53.1506 14.9998 50.6632 12.3042 45.6883 12.3042C43.5416 12.3042 41.7698 12.9071 40.3387 14.0776C38.9075 15.2481 38.1238 16.8087 37.9875 18.795H41.5653C41.6335 17.6245 42.0083 16.7378 42.6898 16.0993C43.3713 15.4609 44.3254 15.1417 45.552 15.1417C48.1758 15.1417 49.5047 16.6668 49.5047 19.6463V20.0364C48.2098 20.1783 47.0513 20.3556 46.0972 20.4975C45.1091 20.6394 44.1209 20.8522 43.1328 21.065C42.1446 21.3133 41.3268 21.5971 40.6453 21.9163C39.9638 22.271 39.3164 22.6611 38.7712 23.0868C38.2261 23.5479 37.8172 24.0799 37.5446 24.6829C37.272 25.2858 37.1357 25.9597 37.1357 26.7046ZM49.675 22.7675V24.1508C49.675 25.9597 49.198 27.3076 48.2439 28.1588C47.2898 29.0456 46.0291 29.4712 44.4617 29.4712C43.3713 29.4712 42.5194 29.2229 41.9061 28.7263C41.2927 28.2298 40.9861 27.5204 40.9861 26.6337C40.9861 25.4632 41.6676 24.6119 43.0305 24.0444C44.3935 23.5124 46.6083 23.0868 49.675 22.7675Z" fill="#F0F0F0"/>
<path d="M61.0031 12.7653H57.4594V38.0547H61.0031V29.152C62.1957 31.2801 64.1039 32.3087 66.7276 32.3087C68.9084 32.3087 70.7825 31.422 72.3158 29.6131C73.8491 27.8041 74.6329 25.3922 74.6329 22.3419C74.6329 19.3625 73.8491 16.9506 72.3158 15.1417C70.7825 13.3328 68.9084 12.4106 66.7276 12.4106C64.1039 12.4106 62.1957 13.4746 61.0031 15.5673V12.7653ZM65.9098 29.2229C64.4446 29.2229 63.252 28.6554 62.298 27.4849C61.3439 26.3144 60.8668 24.6119 60.8668 22.3419C60.8668 20.1073 61.3439 18.4048 62.298 17.2344C63.252 16.0993 64.4446 15.4964 65.9098 15.4964C67.375 15.4964 68.5676 16.1348 69.4876 17.3408C70.3736 18.5467 70.8506 20.2138 70.8506 22.3419C70.8506 24.47 70.3736 26.1726 69.4876 27.3785C68.5676 28.6199 67.375 29.2229 65.9098 29.2229Z" fill="#F0F0F0"/>
<path d="M80.4241 30.1791C80.4241 31.4355 79.4457 32.454 78.2387 32.454C77.0317 32.454 76.0533 31.4355 76.0533 30.1791C76.0533 28.9228 77.0317 27.9043 78.2387 27.9043C79.4457 27.9043 80.4241 28.9228 80.4241 30.1791Z" fill="#FA3C84"/>
<path d="M34.0646 47.1815C33.6838 48.088 32.938 48.533 31.8273 48.533C31.1608 48.533 30.5896 48.3023 30.1294 47.8243C29.6693 47.3463 29.3995 46.7035 29.336 45.8793H35.8418C35.9212 44.4124 35.6038 43.1927 34.8739 42.2202C34.144 41.2477 33.1284 40.7532 31.8431 40.7532C30.6055 40.7532 29.6058 41.1818 28.8124 42.0224C28.019 42.8795 27.6382 43.9838 27.6382 45.3354C27.6382 46.687 28.0032 47.7913 28.7648 48.6814C29.5106 49.5715 30.5579 50 31.8908 50C32.9063 50 33.7473 49.7363 34.4137 49.1924C35.0802 48.6649 35.5086 47.9891 35.7307 47.1815H34.0646ZM29.3678 44.5278C29.5741 42.9454 30.3992 42.1543 31.8273 42.1543C32.4937 42.1543 33.0332 42.385 33.4617 42.8301C33.8742 43.2916 34.0964 43.852 34.1281 44.5278H29.3678Z" fill="#FA3C84"/>
<path d="M43.2983 37.8358V42.2202C42.727 41.2477 41.8385 40.7532 40.6325 40.7532C39.6011 40.7532 38.7284 41.1818 38.0143 42.0224C37.3003 42.863 36.9512 43.9838 36.9512 45.3684C36.9512 46.7859 37.3003 47.9067 38.0143 48.7473C38.7284 49.5879 39.6011 50 40.6325 50C41.8385 50 42.727 49.522 43.2983 48.533V49.7857H44.9485V37.8358H43.2983ZM41.0133 42.1872C41.6798 42.1872 42.251 42.4674 42.6953 42.9949C43.1396 43.5388 43.3618 44.33 43.3618 45.3684C43.3618 46.4233 43.1396 47.2144 42.6953 47.7584C42.251 48.3023 41.6798 48.566 41.0133 48.566C40.3151 48.566 39.7598 48.2858 39.3472 47.7089C38.9188 47.1485 38.7125 46.3573 38.7125 45.3684C38.7125 44.3794 38.9188 43.6047 39.3472 43.0443C39.7598 42.4839 40.3151 42.1872 41.0133 42.1872Z" fill="#FA3C84"/>
<path d="M52.4448 48.533V49.7857H54.1109V40.9181H52.4607V45.731C52.4607 46.6211 52.2861 47.3133 51.937 47.8078C51.5879 48.3023 51.0643 48.5495 50.3979 48.5495C49.7155 48.5495 49.2554 48.3353 49.0332 47.9067C48.8111 47.4782 48.7 46.8683 48.7 46.0936V40.9181H47.0498V46.5551C47.0498 48.8627 47.9701 50 49.8425 50C51.0326 50 51.9053 49.522 52.4448 48.533Z" fill="#FA3C84"/>
<path d="M63.5549 43.9179C63.428 43.0279 63.0154 42.2861 62.3172 41.6763C61.6191 41.0664 60.8098 40.7532 59.8577 40.7532C58.6201 40.7532 57.6204 41.1983 56.8587 42.0554C56.0971 42.929 55.7321 44.0333 55.7321 45.3684C55.7321 46.72 56.0971 47.8408 56.827 48.6979C57.5569 49.5715 58.5249 50 59.7467 50C60.6987 50 61.5397 49.7033 62.2696 49.1099C62.9996 48.5166 63.4597 47.7584 63.6343 46.8353H61.9682C61.8571 47.3628 61.6032 47.7748 61.1906 48.0715C60.7781 48.3847 60.3179 48.533 59.7784 48.533C59.1437 48.533 58.6042 48.2693 58.1599 47.7254C57.7156 47.1815 57.4935 46.3903 57.4935 45.3519C57.4935 44.33 57.6997 43.5553 58.144 43.0279C58.5883 42.5004 59.1278 42.2202 59.7784 42.2202C60.3179 42.2202 60.7781 42.385 61.1748 42.6982C61.5715 43.0114 61.8095 43.4234 61.9047 43.9179H63.5549Z" fill="#FA3C84"/>
<path d="M64.6751 47.3957C64.6751 48.1869 64.9607 48.8297 65.5319 49.2912C66.1032 49.7692 66.8331 50 67.7217 50C69.0863 50 70.0384 49.5385 70.5779 48.6155C70.5938 48.9946 70.6414 49.3901 70.7207 49.7857H72.3075C72.1488 48.9946 72.0695 47.9397 72.0695 46.5881C72.0695 46.4562 72.0695 46.0771 72.0853 45.4673C72.0853 44.8574 72.1012 44.5278 72.1012 44.4618C72.1329 41.9565 70.9746 40.7038 68.6579 40.7038C67.6582 40.7038 66.8331 40.984 66.1667 41.5279C65.5002 42.0719 65.1353 42.7971 65.0718 43.7201H66.7379C66.7696 43.1762 66.9442 42.7641 67.2615 42.4674C67.5789 42.1708 68.0232 42.0224 68.5944 42.0224C69.8162 42.0224 70.4351 42.7312 70.4351 44.1157V44.297C69.8321 44.3629 69.2926 44.4454 68.8483 44.5113C68.3881 44.5772 67.928 44.6761 67.4678 44.775C67.0076 44.8904 66.6268 45.0223 66.3095 45.1706C65.9921 45.3354 65.6906 45.5167 65.4367 45.7145C65.1829 45.9288 64.9924 46.176 64.8655 46.4562C64.7386 46.7364 64.6751 47.0496 64.6751 47.3957ZM70.5144 45.5662V46.209C70.5144 47.0496 70.2923 47.6759 69.848 48.0715C69.4037 48.4836 68.8166 48.6814 68.0867 48.6814C67.5789 48.6814 67.1822 48.566 66.8966 48.3353C66.6109 48.1045 66.4681 47.7748 66.4681 47.3628C66.4681 46.8189 66.7855 46.4233 67.4202 46.1595C68.0549 45.9123 69.0863 45.7145 70.5144 45.5662Z" fill="#FA3C84"/>
<path d="M74.4727 38.6435V40.9181H73.1715V42.2202H74.4727V47.5111C74.4727 48.4342 74.5996 49.044 74.8852 49.3407C75.155 49.6374 75.7262 49.7857 76.5831 49.7857H77.789V48.4177H77.0908C76.6783 48.4177 76.4244 48.3517 76.2975 48.2034C76.1705 48.055 76.1229 47.7419 76.1229 47.2804V42.2202H77.8049V40.9181H76.1229V38.6435H74.4727Z" fill="#FA3C84"/>
<path d="M81.2132 37.8358H79.563V39.7313H81.2132V37.8358ZM81.2132 40.9181H79.563V49.7857H81.2132V40.9181Z" fill="#FA3C84"/>
<path d="M91.1645 45.3849C91.1645 44.3629 90.9424 43.5058 90.5298 42.7806C90.1173 42.0554 89.5936 41.5444 88.9906 41.2312C88.3718 40.9181 87.7054 40.7532 87.0072 40.7532C86.2931 40.7532 85.6267 40.9181 85.0237 41.2312C84.4207 41.5444 83.8971 42.0554 83.4845 42.7806C83.072 43.5058 82.8657 44.3629 82.8657 45.3849C82.8657 46.4068 83.072 47.2639 83.4845 47.9891C83.8971 48.7144 84.4207 49.2253 85.0237 49.5385C85.6267 49.8517 86.2931 50 87.0072 50C88.1179 50 89.1017 49.6044 89.9268 48.8133C90.752 48.0221 91.1645 46.8848 91.1645 45.3849ZM87.0072 48.5495C86.3249 48.5495 85.7536 48.2858 85.2935 47.7419C84.8333 47.2144 84.6112 46.4233 84.6112 45.3849C84.6112 44.33 84.8333 43.5388 85.2935 43.0114C85.7536 42.4839 86.3249 42.2037 87.0072 42.2037C87.6736 42.2037 88.2449 42.4839 88.7209 43.0114C89.1811 43.5553 89.4191 44.3465 89.4191 45.3849C89.4191 46.4068 89.1811 47.198 88.7209 47.7419C88.2449 48.2858 87.6736 48.5495 87.0072 48.5495Z" fill="#FA3C84"/>
<path d="M94.4622 42.2037V40.9181H92.8119V49.7857H94.4622V45.0222C94.4622 44.1322 94.6367 43.4234 95.0017 42.929C95.3508 42.4345 95.8903 42.1872 96.5884 42.1872C96.9534 42.1872 97.2549 42.2532 97.5088 42.385C97.7626 42.5169 97.9372 42.7147 98.0483 42.9619C98.1593 43.2092 98.2387 43.4564 98.2863 43.7201C98.318 43.9838 98.3498 44.297 98.3498 44.6596V49.7857H100V44.1981C100 41.907 99.0479 40.7532 97.1438 40.7532C95.8903 40.7532 95.0017 41.2477 94.4622 42.2037Z" fill="#FA3C84"/>
</g>
</g>
<defs>
<linearGradient id="paint0_linear_1115_2553" x1="18" y1="2.75" x2="36.7156" y2="65.1353" gradientUnits="userSpaceOnUse">
<stop stop-color="#FA5229"/>
<stop offset="1" stop-color="#FA31B1"/>
</linearGradient>
<linearGradient id="paint1_linear_1115_2553" x1="18" y1="2.75" x2="36.7156" y2="65.1353" gradientUnits="userSpaceOnUse">
<stop stop-color="#FA5229"/>
<stop offset="1" stop-color="#FA31B1"/>
</linearGradient>
</defs>
</svg>
