<svg width="129" height="138" viewBox="0 0 129 138" fill="none" xmlns="http://www.w3.org/2000/svg">
<g id="Logo">
<g id="Union">
<path d="M19.0351 72.4577C19.6906 73.0998 20.4121 73.8066 21.5982 74.5229C22.2192 74.8977 22.8695 75.3153 23.5114 75.7276C24.2552 76.2053 24.9878 76.6758 25.6509 77.0644C27.54 78.1711 30.1338 78.3259 32.0237 76.8617C32.2623 76.6768 32.4197 76.4807 32.5537 76.3137C32.8409 75.9558 33.0205 75.7319 33.6635 76.0393C34.6698 76.5343 33.5147 77.9801 32.8845 78.7691C32.7955 78.8804 32.7171 78.9787 32.6566 79.0593C32.0333 79.8904 31.513 80.2227 31.1315 80.4664C30.8513 80.6453 30.646 80.7765 30.5298 81.0223C30.8923 81.3412 31.4135 81.4747 32.0445 81.6363C32.9901 81.8785 34.1823 82.1838 35.4566 83.2707C36.1252 83.841 36.5707 83.9753 37.1235 84.142C37.8034 84.3471 38.6458 84.601 40.2656 85.7753C42.9782 87.7415 43.9025 88.75 42.8708 92.0846C42.677 92.7114 42.2103 93.1859 41.4244 92.8011C41.136 92.6601 40.9379 92.0933 40.6894 91.3824C40.3151 90.3115 39.8265 88.9137 38.743 88.1519C37.8142 87.4991 36.5712 87.5028 35.9258 88.0168C35.7957 88.1204 35.7263 88.1956 35.6764 88.2496C35.5507 88.3859 35.5485 88.3883 35.0104 88.3734C34.5653 87.7963 34.4058 87.3427 34.2688 86.9531C34.0439 86.3134 33.8798 85.8467 32.6115 85.2902C32.2771 85.1435 32.118 85.0475 31.9723 84.9596C31.7023 84.7967 31.4786 84.6617 30.271 84.2838C30.1132 84.2345 29.9697 84.1905 29.8379 84.1502C28.7245 83.8092 28.4464 83.724 27.413 82.7765C26.5408 81.977 25.5724 80.5653 24.7975 79.4356C24.2411 78.6246 23.7845 77.9589 23.5348 77.7695C22.7929 77.2065 21.1205 76.9097 19.9218 77.2125C17.7612 77.7584 17.2551 78.1574 15.9247 79.2064C15.7943 79.3092 15.6559 79.4183 15.5072 79.5344C15.0498 79.8917 14.2407 79.9372 13.755 79.6887C13.1691 78.1709 15.0594 77.1212 16.6528 76.2364C17.3915 75.8262 18.0663 75.4515 18.4011 75.082C18.3043 74.5101 17.7895 73.9286 17.2565 73.3268C16.4323 72.396 15.5648 71.4163 16.1337 70.3476C16.8193 70.2766 16.8593 70.3235 17.1403 70.6534C17.3065 70.8484 17.5569 71.1423 18.0749 71.5692C18.4102 71.8456 18.7148 72.144 19.0351 72.4577Z" fill="white"/>
<path d="M26.7716 40.4372C24.9879 40.4063 23.7151 40.95 22.272 41.8341C21.9526 42.0562 21.6635 42.3046 21.3686 42.558C21.137 42.7569 20.9019 42.9589 20.6459 43.1536C17.7982 45.3188 17.3613 45.4745 14.1322 45.0786C13.3844 44.9868 12.3003 44.7491 11.6441 44.5428C10.9486 44.3243 10.675 44.1302 10.4878 43.9975C10.2446 43.825 10.1473 43.756 9.46013 43.8713C9.48235 44.0881 9.47818 44.2645 9.4744 44.4243C9.4613 44.9787 9.45294 45.3324 10.5686 46.4771C12.2018 48.1528 14.2905 48.1755 16.4442 47.9347C18.0651 47.7533 18.4744 47.5613 18.8035 47.4069C18.996 47.3166 19.1611 47.2392 19.5255 47.1842C19.3596 48.4909 18.7224 54.2477 20.3456 54.2898L20.403 54.2915C20.7924 54.304 20.8957 54.3074 20.9027 53.1649C20.9067 52.5145 20.8863 51.9612 20.8682 51.4669C20.8009 49.6357 20.7633 48.612 22.0998 46.4507C22.9112 45.1384 25.1182 44.2485 26.5535 43.7315C27.2665 43.4745 27.814 43.3127 28.6875 43.3461C28.8867 43.9194 29.4449 44.5458 29.8964 45.048C31.1002 46.3869 34.9496 47.1985 36.7006 47.1946C36.7425 47.1945 36.7955 47.1949 36.8576 47.1954C37.8345 47.2026 41.0736 47.2267 39.3329 45.6606C38.903 45.4811 38.5181 45.5522 38.1359 45.6227C37.9007 45.6661 37.6666 45.7094 37.4236 45.694C35.0126 45.5411 32.5105 44.7229 30.7948 42.8598C29.0815 40.9988 29.7299 36.9745 30.6562 34.8946C30.7106 34.7724 30.7715 34.659 30.832 34.5461C30.9192 34.3837 31.0057 34.2226 31.0708 34.0391C31.2952 33.4065 31.1351 32.6663 30.5914 32.4645C29.8012 32.1711 27.5883 35.5808 27.3295 36.1655C26.9002 37.136 26.8613 38.2717 26.8242 39.3565C26.8115 39.7255 26.7991 40.0885 26.7716 40.4372Z" fill="white"/>
<path d="M27.0695 95.9845C25.9138 94.8579 24.9508 93.304 24.2561 92.1829C23.7995 91.4461 23.4587 90.8963 23.2552 90.7774C23.1562 90.7195 22.7778 90.6973 22.218 90.6645C20.6059 90.57 17.4896 90.3874 15.2109 89.0103C14.5008 88.5476 13.9936 88.1699 13.6158 87.8886C12.5956 87.1291 12.5197 87.0726 11.9449 87.9436C12.1958 88.2706 12.3401 88.5038 12.4743 88.7206C12.6616 89.0232 12.8292 89.2939 13.2393 89.7433C13.8763 90.4412 16.5918 92.4405 17.2295 92.7661C18.0184 93.1689 20.7034 94.3559 21.3807 94.4902C21.4742 94.5088 21.5585 94.5248 21.6349 94.5394C22.3214 94.67 22.3706 94.6794 22.7137 95.3026C24.3911 98.3506 27.4919 100.722 31.0875 100.667C31.1078 100.464 31.1437 100.3 31.1743 100.16C31.2697 99.7232 31.3129 99.5254 30.6659 99.1528C29.7804 98.6427 28.3473 97.2371 27.3914 96.2996C27.2768 96.1872 27.1687 96.0811 27.0695 95.9845Z" fill="white"/>
<path d="M35.2967 16.2836C35.6873 15.9889 36.0825 15.6906 36.4428 15.393C35.5414 14.1633 35.5409 14.1618 35.4958 14.0308C35.4621 13.9328 35.4034 13.7623 34.9239 12.9508C34.4854 12.2085 34.6057 10.5027 34.7762 9.58492C35.0978 7.85546 35.9183 7.50356 36.7621 7.14165C37.0499 7.01821 37.3404 6.89361 37.6147 6.71279C38.1914 6.33276 38.3327 6.30568 39.0792 6.43182C39.2314 6.78879 39.4376 7.30183 39.1833 7.72662C39.0179 8.00303 38.7938 8.15881 38.5639 8.31864C38.1665 8.59495 37.7517 8.88339 37.5919 9.82816C37.3578 11.2123 37.3662 11.7563 37.9269 13.0116C38.4794 14.2487 39.8491 14.6302 40.9964 14.9498C41.0925 14.9766 41.1871 15.0029 41.2795 15.0293C41.3745 16.3362 41.1794 16.3662 40.5227 16.4673C39.8106 16.5769 38.5559 16.77 36.5401 18.7647C35.8155 19.4819 35.1606 20.3815 34.8839 21.3794C34.7628 21.8163 34.7056 22.1462 34.658 22.4207C34.5385 23.1101 34.4795 23.45 33.6207 24.2571L32.8657 24.0725C32.8552 23.6047 32.8247 23.1662 32.7955 22.7455C32.6575 20.7597 32.5469 19.1687 34.6883 16.7466C34.8857 16.5938 35.0902 16.4395 35.296 16.2842L35.2967 16.2836Z" fill="white"/>
<path d="M22.5848 32.6482C22.5545 31.7727 22.3241 31.1728 22.1126 30.6224C21.7401 29.6529 21.4266 28.8368 22.3704 26.9376C22.4979 26.6809 22.6597 26.247 22.8146 25.8315C22.9116 25.5712 23.0061 25.3179 23.0876 25.1201C23.4191 24.0491 24.4431 23.0863 25.2631 22.3152C25.7985 21.8117 26.247 21.39 26.3591 21.0732C26.5753 20.4623 26.9086 19.1882 26.2963 18.8421C24.7977 17.995 24.3295 18.445 23.8654 19.2118C23.5935 19.6611 23.5342 20.0035 23.4758 20.3411C23.4218 20.6531 23.3685 20.961 23.1486 21.3452C21.0203 21.6821 21.0758 19.9578 21.1232 18.4867L21.1261 18.3972C21.1468 17.7389 21.1291 17.7402 20.3779 17.7971C20.3249 17.8011 20.2682 17.8054 20.2076 17.8097C19.3433 19.6257 19.3931 20.8093 19.4769 22.7983C19.5007 23.3654 19.5274 23.998 19.5364 24.7295C19.5395 24.9841 19.5414 25.2495 19.5433 25.523L19.5433 25.5243L19.5433 25.5253C19.5574 27.5449 19.5746 30.0019 20.126 31.7415C20.1653 31.8655 20.2034 31.9963 20.242 32.129C20.5593 33.2182 20.9132 34.4328 22.2505 33.0378C22.4182 32.8629 22.4345 32.9108 22.4417 32.9317C22.443 32.9356 22.444 32.9386 22.4456 32.939C22.4507 32.9402 22.4619 32.9159 22.5079 32.8153C22.5269 32.7738 22.5518 32.7193 22.5848 32.6482Z" fill="white"/>
<path d="M45.2444 45.8149C45.2094 46.2456 45.2217 46.6639 45.2337 47.0758C45.2702 48.3216 45.3049 49.5093 44.0267 50.8051C42.6933 52.1569 42.3817 52.0345 41.5972 51.7263C41.5086 51.6915 41.4138 51.6543 41.3109 51.6166C40.7747 51.42 40.1398 51.6802 40.0853 52.1866C40.0344 52.6587 41.4303 53.7301 42.0304 54.1906L42.1203 54.2597L42.1519 54.2841C43.7823 55.2112 45.5968 54.6781 46.4119 53.5113C47.1159 52.5031 46.849 46.7703 46.4863 46.0713C46.2217 45.5617 45.669 45.5379 45.2444 45.8149Z" fill="white"/>
<path d="M39.5089 103.652C40.3519 104.327 40.7146 104.529 42.0294 104.345C42.5742 104.268 42.964 104.139 43.3763 103.887C43.7113 103.682 44.0539 103.582 44.3475 103.496C44.9864 103.308 45.3936 103.189 44.9855 102.213C44.7291 101.599 44.1492 101.524 43.2935 101.413C42.2145 101.273 40.6969 101.075 38.8355 99.6701C37.9904 99.0323 36.3997 99.4441 36.3703 99.836C36.3572 100.009 37.475 101.877 37.6107 102.042C38.0181 102.537 38.4917 102.888 38.9683 103.241C39.149 103.375 39.3308 103.51 39.5089 103.652Z" fill="white"/>
<path fill-rule="evenodd" clip-rule="evenodd" d="M26.8005 108.84C25.5347 108.125 24.276 107.415 22.0207 107.413C21.7248 107.413 21.5729 107.442 21.4416 107.467C21.2471 107.505 21.0977 107.533 20.5926 107.445C19.286 107.215 17.0326 106.224 16.0141 105.315C14.0956 103.601 12.9426 101.503 12.3274 99.0379C12.1208 98.2104 11.7802 98.092 11.1751 97.8816C10.74 97.7304 10.1682 97.5315 9.41098 96.9875C8.08193 96.0324 7.48333 94.7682 6.93732 93.6152C6.47261 92.6338 6.04599 91.7329 5.23953 91.1714C5.09809 91.0729 4.96766 90.9877 4.8461 90.9083C4.29843 90.5504 3.93063 90.31 3.54602 89.5066C3.03342 88.4361 2.99805 87.1946 2.96626 86.0786C2.94047 85.1731 2.91703 84.3503 2.64292 83.7685C2.47948 83.4216 2.22727 83.0553 1.98975 82.7102L1.98926 82.7095C1.74907 82.3605 1.52397 82.0335 1.42105 81.7706C0.853788 80.3222 1.26963 78.9168 1.67727 77.5391C1.92536 76.7007 2.17041 75.8725 2.18897 75.0511C2.21798 73.7667 2.07632 73.5919 1.72562 73.1592C1.6025 73.0073 1.45361 72.8236 1.27731 72.549C0.078235 70.6812 0.0655035 66.2187 0.585713 63.9644C0.630625 63.7697 0.697927 63.6256 0.760319 63.492C0.872856 63.2511 0.969416 63.0443 0.889792 62.6368C0.847501 62.4206 0.722711 62.1586 0.579464 61.8578C0.192601 61.0455 -0.328876 59.9505 0.276545 58.7128C0.384526 58.492 0.561119 58.1845 0.743936 57.8662C1.02609 57.375 1.32311 56.8579 1.40552 56.5937C1.53295 56.1853 1.39556 55.5636 1.21817 54.7609C0.81631 52.9425 0.209217 50.1954 2.01085 46.8954C2.48584 46.0254 2.87694 45.207 3.25407 44.4178C4.20921 42.419 5.07472 40.6078 6.98641 38.6223C8.40217 37.152 8.39892 37.1264 8.19866 35.5532C8.176 35.3752 8.15079 35.1771 8.12486 34.9552C8.02006 34.0584 8.03562 32.5451 8.09972 31.6252C8.30578 28.6735 10.9059 25.389 13.1432 23.5083C14.1554 22.6575 14.3346 21.6149 14.5336 20.4569C14.6322 19.8836 14.7356 19.2822 14.9473 18.6617C15.7821 16.2153 16.6963 13.9989 18.6835 12.2838C19.466 11.6082 20.1042 10.9807 20.7443 10.3514C21.1725 9.93037 21.6016 9.50851 22.0752 9.07088C22.2851 8.87694 22.4202 8.56853 22.566 8.23564C22.7461 7.82445 22.9426 7.37592 23.3164 7.05973C24.2382 6.28011 26.9168 5.31071 28.0311 5.23872C30.0493 5.10808 30.1652 4.95649 31.0298 3.82627C31.1237 3.70352 31.2265 3.56923 31.3414 3.42218C32.5709 1.84941 35.2081 0.810165 37.2312 1.15195C38.0523 1.29069 38.5492 1.41223 38.8835 1.49399C39.2077 1.57328 39.3789 1.61516 39.5445 1.59904C39.7299 1.58099 39.9082 1.49025 40.2862 1.29791C40.4738 1.20247 40.7106 1.08197 41.0217 0.932962C42.0845 0.423942 43.6268 -0.31208 44.7822 0.141958C45.5977 0.462542 46.32 0.773921 46.8649 1.27359C47.012 1.42267 47.1559 1.56756 47.2966 1.70914C49.3781 3.80449 50.7369 5.17223 51.057 8.62133V94.8703C51.0132 95.5869 50.9796 96.2546 50.9482 96.8803C50.8088 99.653 50.7109 101.599 49.9534 103.3C49.0256 105.384 47.921 107.002 44.4861 108.354C42.763 109.032 40.9612 109.142 39.3346 109.241C38.2796 109.305 37.2982 109.365 36.4599 109.572C30.738 111.062 28.7607 109.946 26.8005 108.84ZM48.2259 99.8704C48.2742 99.2744 48.3288 98.6023 48.543 97.7706V73.2459C47.5692 73.3993 46.6975 73.415 45.7164 73.4327C45.4763 73.437 45.2292 73.4415 44.9728 73.4481C40.9028 73.0963 39.509 71.8287 38.1731 70.6139C37.8523 70.3222 37.5347 70.0333 37.1843 69.7611C36.3386 69.104 36.0928 68.4911 35.8538 67.8954C35.5815 67.2164 35.3181 66.5596 34.1858 65.8852C31.9481 64.4073 28.4954 64.9503 26.3884 65.613C25.5345 65.8816 24.8125 66.2845 24.2551 66.5957C23.3462 67.1029 22.8748 67.3661 22.9817 66.4045L23.1769 64.6518C23.5667 64.4779 24.0273 64.2275 24.4796 63.9815C24.6607 63.883 24.8405 63.7853 25.0138 63.6935C27.2254 62.5218 29.1461 62.3911 31.8034 62.4321C32.5089 62.443 33.0601 62.5026 33.5145 62.5518C34.6829 62.6784 35.2105 62.7355 36.075 61.7146C37.0507 60.5622 36.8597 59.7494 36.6555 58.8806C36.56 58.4744 36.4617 58.0559 36.4783 57.5847C36.5256 57.5557 36.5717 57.527 36.6171 57.4987C36.9843 57.2698 37.3061 57.0692 37.8197 57.0114C38.5477 57.8504 38.6731 58.7035 38.8497 59.9047C38.888 60.1655 38.9287 60.4428 38.9786 60.7398C39.1835 61.9613 38.7296 63.3426 37.7495 64.1189C37.8394 65.2724 39.8348 68.1085 40.7724 68.5775C43.2851 70.2234 44.7483 70.7944 48.543 70.9193V31.0991L48.4515 31.2321C47.7738 32.1738 47.399 32.2269 46.8704 32.3018C46.7221 32.3229 46.5618 32.3456 46.3792 32.3901C45.1949 32.679 44.1627 33.1531 43.0371 33.6779C42.0693 34.1293 41.4484 34.687 40.9478 35.1366C40.2144 35.7954 39.7394 36.2219 38.8104 35.7413C38.8346 33.4962 41.8962 31.8024 43.6707 30.8207C43.8772 30.7064 44.0666 30.6017 44.2315 30.507C44.581 30.3061 44.955 30.1292 45.3126 29.9601C46.0007 29.6348 46.6287 29.3379 46.9044 28.9539C47.3208 28.3739 47.4744 28.2903 48.4535 28.4715C48.4854 28.524 48.5152 28.5779 48.543 28.6328V8.78991C48.215 7.55389 47.5123 5.57214 46.5801 5.09135C45.9304 4.75627 44.7997 4.51289 43.9878 4.54228C42.3827 4.60009 42.2084 4.85477 42.0389 5.10259C41.9714 5.20128 41.9046 5.29889 41.7485 5.38254C41.5808 5.47237 40.1115 5.18735 39.219 5.01421C38.9498 4.96199 38.733 4.91993 38.6203 4.90143C35.0379 4.31242 34.215 5.28316 32.671 7.74882C32.0683 8.71131 31.7071 8.71512 30.7731 8.72497C29.9751 8.73339 28.7588 8.74623 26.6164 9.3654C25.0098 9.82969 24.8004 10.5803 24.5496 11.4798C24.4298 11.9094 24.3005 12.373 24.0049 12.8556C23.7937 13.2004 23.552 13.2362 23.2266 13.2845C22.6588 13.3687 21.8361 13.4908 20.4758 15.3587C20.2889 15.6154 20.1078 15.8544 19.9327 16.0855C19.2308 17.0119 18.6257 17.8105 18.134 19.1027C17.8325 19.8951 17.6269 20.8567 17.4145 21.8504C17.0023 23.7789 16.5642 25.8284 15.3483 26.9982L15.1943 27.1494C13.8846 28.4348 12.902 29.3991 11.768 30.8893C11.3066 31.537 11.2692 31.8811 11.1902 32.6089C11.1708 32.788 11.1488 32.9903 11.1174 33.2261C10.6863 36.4593 11.1247 37.4776 11.4607 38.2581C11.6341 38.6609 11.7803 39.0003 11.7655 39.5483C10.8849 40.166 10.1338 40.9439 9.38974 41.7145L9.22178 41.8884C7.81317 43.3444 5.91692 46.8045 5.25756 48.6621C4.65843 50.3495 4.45758 54.1798 4.65951 55.8038C4.9157 57.8643 4.52324 58.3686 3.78425 59.3182C3.74529 59.3682 3.70536 59.4195 3.66452 59.4724C2.84002 60.5388 3.22731 61.3857 3.77492 62.2476C3.78994 62.2311 3.80532 62.2144 3.82107 62.1975C4.9896 62.4362 5.26072 63.0975 5.58928 63.8989C5.77178 64.3441 5.97199 64.8325 6.35356 65.3157C6.47652 65.4665 6.54251 65.5382 6.58052 65.5795C6.60744 65.6088 6.62041 65.6229 6.62956 65.639C6.63792 65.6537 6.64318 65.6702 6.65324 65.7018C6.67191 65.7603 6.70712 65.8708 6.80949 66.1183L9.34925 69.355C9.92545 70.1033 10.0262 70.1644 10.148 70.2383C10.238 70.293 10.3396 70.3546 10.6537 70.7067C11.0432 71.1435 11.3238 71.3694 11.5166 71.5247C11.7949 71.7488 11.8903 71.8256 11.8662 72.1765C10.9661 72.3459 10.3911 72.3013 9.75874 71.9052C9.23393 71.5765 8.91797 71.418 8.6552 71.2862C8.18578 71.0507 7.8861 70.9004 6.86882 70.0173C5.76002 69.0548 5.64946 68.905 5.0945 68.1532C4.96388 67.9763 4.80864 67.766 4.60997 67.5039C4.43813 67.2772 4.29364 67.0793 4.17118 66.899C3.63967 68.3854 3.41385 70.0977 4.31348 71.4388C5.89739 73.8001 5.44059 75.6397 5.03793 77.2612C4.66937 78.7453 4.34618 80.0468 5.67483 81.3986C6.30033 82.0349 6.88384 82.0164 7.37505 82.0008C7.45912 81.9981 7.54092 81.9955 7.61933 81.9963C7.62016 81.2894 7.65741 80.6697 7.76953 80.366C8.31305 80.119 8.55605 80.1918 8.99438 80.323C9.04035 80.3368 9.08847 80.3512 9.13931 80.366C9.31234 82.8846 9.54102 84.4004 10.3186 86.4277C10.1916 86.4668 10.055 86.5204 9.91324 86.5759C9.44779 86.7582 8.92669 86.9624 8.5082 86.75C8.17525 86.5809 7.88292 85.9212 7.77577 85.371C7.49849 87.2762 8.29017 87.7601 9.08115 88.2435C9.56449 88.5389 10.0476 88.8341 10.2863 89.4534C10.5271 90.0778 10.7327 90.8324 10.9224 91.5288C10.9693 91.7011 11.0154 91.8703 11.0607 92.0326C11.5062 93.629 12.5181 94.2206 13.5344 94.8147C14.5538 95.4107 15.5775 96.0092 16.0386 97.6266C16.1862 98.1445 16.2926 98.5631 16.3813 98.9124C16.7729 100.453 16.8215 100.644 18.5516 102.047C20.8108 103.88 21.3134 103.762 22.5375 103.477C22.8371 103.408 23.1805 103.328 23.6027 103.264C24.6524 103.105 24.8909 103.49 25.2529 104.075C25.6114 104.653 26.091 105.427 27.5991 106.062C27.7565 106.129 27.9149 106.197 28.074 106.266L28.0752 106.267C28.7715 106.568 29.48 106.875 30.1681 107.019C31.5128 107.299 32.6925 107.14 33.9313 106.973C34.7212 106.866 35.5357 106.756 36.4319 106.755C37.1537 106.754 37.7139 106.763 38.1694 106.771H38.1749C38.9854 106.784 39.4643 106.792 39.9323 106.727C40.6053 106.634 41.2575 106.391 42.8474 105.799L43.086 105.71C44.2978 105.259 45.369 104.443 46.3394 103.604C48.0423 102.132 48.119 101.187 48.2259 99.8704Z" fill="white"/>
<path fill-rule="evenodd" clip-rule="evenodd" d="M91.2701 21.6577C91.1661 21.8312 91.0635 21.9695 90.9624 22.076C90.7361 22.3258 90.4861 22.5223 90.2424 22.7138C89.9276 22.9612 89.6233 23.2003 89.3945 23.5352C88.6405 24.6387 89.2044 26.5707 89.9431 27.6094C90.7079 28.6852 90.3619 29.3326 89.5887 30.0714C88.9223 30.7063 87.1841 30.7191 86.1593 30.7267C86.0352 30.7276 85.9214 30.7284 85.8214 30.7303C84.0511 30.763 82.4572 30.8467 80.6527 30.9466C80.5165 32.1716 80.8201 37.2952 81.1354 38.0665C81.4234 38.0262 81.8047 37.8372 82.2535 37.6147C83.5271 36.9834 85.3445 36.0825 87.1178 37.5448C88.1664 38.4103 88.3281 39.0775 88.3675 40.5424C88.3731 40.7517 88.3821 40.9919 88.3919 41.251C88.4422 42.5835 88.5114 44.4178 88.2293 45.1437C87.2811 47.5834 85.0659 49.1689 82.5967 47.6204C80.2808 46.1675 80.4002 49.329 80.4694 51.1596C80.4773 51.3687 80.4845 51.5607 80.4874 51.7262C80.494 52.1072 80.5193 52.4768 80.5447 52.8488C80.5679 53.1875 80.5912 53.5284 80.6006 53.8815C80.9831 53.8868 81.5342 53.8563 82.1808 53.8207C85.1503 53.6567 90.134 53.3815 90.0577 55.9461C90.0467 56.3165 89.9633 57.2465 89.9068 57.5948C89.8364 58.0287 89.7232 58.439 89.6162 58.8265C89.2225 60.2528 88.9141 61.3699 91.145 62.2097C92.0911 62.5656 94.6381 62.3747 95.0317 61.1542C95.174 60.7128 95.1646 59.82 95.064 59.3985C94.944 58.8956 94.6738 58.496 94.4137 58.1114C93.9429 57.415 93.5051 56.7675 94.0516 55.6447C94.7489 54.2127 99.5788 54.5831 101.384 54.7214C101.485 54.7292 101.577 54.7363 101.659 54.7423C101.858 54.7568 102.031 54.7755 102.192 54.8054C102.198 54.806 102.205 54.8068 102.211 54.8079L102.216 54.8088L102.224 54.8105C104.198 55.2406 104.687 55.8667 105.394 56.7706L105.396 56.7724C105.502 56.908 105.613 57.05 105.734 57.1985C106.399 58.0092 106.748 58.6318 107.007 59.6804C107.147 60.248 107.307 60.5134 107.459 60.767C107.761 61.2684 108.035 61.7244 108.078 64.3797C108.091 65.1803 108.079 65.8196 108.067 66.4672C108.058 66.9682 108.048 67.4741 108.05 68.0637C108.054 69.5555 107.837 70.6799 107.619 71.8053C107.349 73.1969 107.08 74.5901 107.229 76.6812L107.238 76.8063L107.238 76.8074C107.307 77.772 107.343 78.2806 107.27 78.7721C107.188 79.3188 106.97 79.845 106.509 80.9563C106.354 81.3307 106.171 81.7715 105.956 82.302C105.852 82.5609 105.75 82.8633 105.642 83.1838C105.271 84.2828 104.829 85.5954 103.96 86.1011C102.544 86.9245 101.932 88.5718 101.436 89.9072C101.304 90.2623 101.181 90.5953 101.052 90.8849C100.614 91.8734 100.45 92.4861 100.32 92.9696C100.029 94.0559 99.9131 94.4904 97.2507 97.0698C97.0605 97.1728 93.4213 100.3 93.2071 100.622C90.6076 104.332 88.572 106.534 85.4286 106.897C84.6382 106.989 84.4373 107.137 84.1877 107.321C84.0238 107.442 83.839 107.578 83.4527 107.724C82.0797 108.243 81.6998 108.523 81.4435 108.711C81.1117 108.956 80.9869 109.047 79.1835 109.309C76.6102 109.681 75.3186 109.579 74.3492 109.502C73.6567 109.446 73.1286 109.405 72.4151 109.558C70.1039 110.056 68.0289 110.374 65.6246 110.276C64.3502 110.225 64.0846 110.153 63.4823 109.989C63.2297 109.92 62.918 109.836 62.448 109.73C60.474 109.285 59.4177 108.462 58.1269 107.457C57.9197 107.295 57.7064 107.129 57.4823 106.959C57.402 106.898 57.2952 106.832 57.1688 106.755C56.4215 106.294 54.9918 105.412 54.343 102.656V12.0347C54.3148 11.4442 54.424 10.883 54.5362 10.3065C54.5674 10.1462 54.5988 9.98474 54.6276 9.82111C54.7822 8.94222 55.0563 8.33438 55.3345 7.71747C55.5168 7.31318 55.7009 6.905 55.8543 6.41407C55.9774 6.01966 56.0676 5.64668 56.1595 5.26637C56.2876 4.73594 56.4192 4.19124 56.6488 3.55418C57.1783 2.14474 59.6798 0.862617 60.9939 0.304339C63.2446 -0.481612 64.4238 0.436889 65.1675 1.01614C65.4068 1.20254 65.6011 1.35384 65.7714 1.40187C66.1668 1.51364 67.208 1.8277 67.6641 2.09515C68.0582 2.32628 68.58 2.50734 69.1502 2.70521C70.2932 3.10185 71.6307 3.56599 72.5239 4.63616C73.4461 5.74099 74.2429 5.75583 74.8272 5.7667C74.9687 5.76934 75.0977 5.77174 75.213 5.78932C75.7369 5.86935 77.6431 6.2584 78.0064 6.45619L82.2762 8.93239C83.076 9.42373 83.664 10.2457 84.2168 11.0184C84.7237 11.727 85.201 12.3943 85.785 12.7275C86.1697 12.947 88.0523 14.3853 88.3269 14.8044C88.6112 15.238 88.9944 15.7102 89.3991 16.2087C90.7559 17.8803 92.3542 19.8492 91.2701 21.6577ZM79.7601 11.6287C79.7622 11.7901 79.7643 11.9555 79.7692 12.1231C79.7735 12.2699 79.7787 12.4002 79.7834 12.5175C79.8145 13.2978 79.8226 13.4997 79.3958 14.1399C78.6258 15.2945 77.9444 14.8937 77.0939 14.3934C76.3426 13.9514 75.4595 13.4319 74.2668 13.8382C72.471 14.4497 72.4037 16.3406 72.3744 17.1649L72.3726 17.2161C72.304 19.0913 73.5199 20.0316 74.7841 20.0655C75.4142 20.0825 75.9739 19.9438 76.492 19.8154C77.3201 19.6102 78.0419 19.4313 78.7751 19.9566C80.0262 20.8529 79.9822 23.2917 79.9432 25.4598C79.9262 26.4015 79.9102 27.2921 80.0016 27.9831C80.1175 28.8608 80.4285 28.8467 82.1992 28.7665L82.2022 28.7663L82.2031 28.7663C82.6852 28.7444 83.2753 28.7177 83.9988 28.7028C84.297 28.6966 84.5998 28.6997 84.9018 28.7028H84.9029C85.894 28.713 86.8759 28.7231 87.6549 28.4057C87.6627 27.4625 87.4275 26.7631 87.2139 26.1279C86.8204 24.9576 86.5001 24.005 87.9062 22.1466C87.9274 22.1082 87.9579 22.0592 87.9943 22.0005C88.254 21.5826 88.8184 20.6741 88.5137 19.6028C88.4513 19.4481 88.3901 19.2942 88.3299 19.1431L88.3268 19.1351C88.3017 19.0864 88.2893 19.0545 88.2879 19.0374C87.9556 18.203 87.659 17.4741 87.3995 17.2287C87.28 17.012 86.9111 16.76 86.5381 16.5052C86.1872 16.2655 85.8326 16.0233 85.6789 15.8057C84.9331 14.8105 84.3227 14.5679 83.6636 14.3058C83.264 14.1469 82.8465 13.981 82.3701 13.6359C80.9281 12.5916 80.7183 12.2486 80.5464 11.9676C80.4198 11.7608 80.3139 11.5875 79.7523 11.1929C79.7562 11.3335 79.7581 11.4788 79.7601 11.6274L79.7601 11.6287ZM98.7919 57.814C99.6886 57.4316 100.683 57.0077 101.638 57.5297C101.731 57.634 101.834 57.7457 101.945 57.865C102.63 58.6076 103.585 59.6406 103.993 60.9723C104.122 61.3939 104.26 61.7917 104.395 62.1786L104.395 62.1795C104.929 63.7179 105.403 65.0844 105.024 67.0804C104.844 68.0288 104.622 68.7945 104.417 69.5041C103.949 71.1181 103.565 72.4424 103.949 74.9678C104.151 76.2952 103.887 77.7019 103.52 78.895C102.706 78.8314 101.683 78.9343 100.644 79.0388C98.9824 79.206 97.2765 79.3777 96.3032 78.8811C96.1746 78.1837 96.3273 77.6547 96.479 77.1286C96.7411 76.2204 97.0006 75.321 95.8061 73.5792C94.5586 71.7602 90.7598 71.8691 89.6353 72.4344C87.9507 73.2813 85.9883 75.1986 86.9522 77.0473C87.0265 77.1898 87.125 77.3484 87.2297 77.517C87.735 78.3305 88.3844 79.3761 87.1527 79.9656C86.249 80.3978 83.7797 80.2603 82.0263 80.1627C81.4286 80.1294 80.9141 80.1007 80.5732 80.1009C80.5701 79.6796 80.5858 79.1898 80.6028 78.6597C80.7022 75.5528 80.8459 71.0631 77.521 70.8821C76.9997 70.8538 76.7064 70.9765 76.3854 71.1109C75.9408 71.2971 75.4429 71.5055 74.2121 71.3654C73.2991 70.0982 73.0334 68.1873 73.4933 66.6041C73.5875 66.2799 73.7405 66.0713 73.8876 65.8708C73.9925 65.7277 74.0945 65.5887 74.1698 65.4149C74.5426 65.3945 75.0562 65.467 75.618 65.5463C76.9777 65.7381 78.6199 65.9699 79.2323 65.0228L80.0991 63.9386C80.4624 63.2337 80.5017 60.7381 80.5333 58.7278C80.5492 57.7203 80.5631 56.8343 80.615 56.3571L86.1423 56.361C86.6551 57.2337 86.6968 58.1863 86.7392 59.1575C86.8065 60.6979 86.8758 62.285 88.8305 63.6737C90.5177 64.8724 92.5792 65.1847 94.6031 64.3893C95.1818 64.162 96.3311 63.102 96.6766 62.4457C97.1806 61.4887 97.1838 60.5035 97.1863 59.7206C97.1889 58.922 97.1907 58.3339 97.7229 58.2009C98.0551 58.1282 98.4153 57.9747 98.7919 57.814ZM101.85 81.6495C102.076 81.6424 102.271 81.6363 102.424 81.6326C102.219 82.0635 101.972 82.396 101.677 82.7622C101.454 83.0391 100.916 84.1092 100.265 85.4028C99.1545 87.6097 97.717 90.4671 96.9602 91.1455C96.4566 91.597 96.207 92.2173 95.9381 92.8854C95.5659 93.8101 95.1569 94.8263 93.9871 95.6132C93.5467 95.9094 89.6023 99.426 89.3497 99.8436C87.2588 103.3 85.5525 103.573 84.1075 103.803C83.4201 103.913 82.7918 104.013 82.2093 104.442C81.7826 104.757 81.3821 104.997 80.9998 105.186C80.9705 104.672 80.9216 104.168 80.8734 103.672C80.8211 103.133 80.7695 102.603 80.745 102.078C80.7292 101.739 80.6963 101.377 80.6639 101.02C80.535 99.6026 80.4127 98.2562 81.3869 98.6643C82.6788 99.2054 85.654 99.2921 86.828 97.5995C87.3445 96.8547 87.5969 96.4464 87.7583 95.4354C88.1814 92.7871 87.3777 88.9504 84.1431 88.817C82.681 88.7567 82.3502 88.9593 81.9029 89.2332C81.8162 89.2864 81.725 89.3422 81.6204 89.3993C80.2258 88.0286 80.2577 84.1609 80.558 82.475C80.8169 82.4505 81.0545 82.421 81.2847 82.3924C81.7593 82.3335 82.2028 82.2785 82.7376 82.2789C83.8721 82.28 89.1179 82.0031 89.69 80.8479C90.3319 79.5516 89.9826 78.6506 89.6357 77.7556C89.3799 77.0956 89.1254 76.4389 89.2706 75.6294C89.3476 75.1996 89.5908 74.8341 90.3011 74.4916C91.4686 73.9288 92.7098 74.2736 93.7947 74.7425C95.0498 75.285 94.6725 76.4007 94.263 77.6117C93.8416 78.8575 93.3862 80.2041 94.6386 81.1316C95.6036 81.8463 99.905 81.7108 101.85 81.6495ZM78.0385 104.651C78.0363 105.107 78.0341 105.576 78.0619 106.014C77.5889 106.105 77.1083 106.212 76.5993 106.392C75.9953 106.605 73.3065 106.574 72.7187 106.371C72.0501 106.14 70.2644 106.21 69.6961 106.357C69.6858 106.36 69.6659 106.367 69.6369 106.378C69.6119 106.387 69.5801 106.399 69.5421 106.414C68.8392 106.683 65.9887 107.775 63.7268 107.158C58.7265 105.794 57.4316 102.994 56.968 101.992C56.9244 101.898 56.8882 101.82 56.857 101.76V81.9401C57.3451 81.9184 57.8692 81.8503 58.4145 81.7793C59.8067 81.5982 61.3371 81.3991 62.7585 81.9099C62.7705 82.5371 62.4552 82.9666 62.1069 83.441C61.5282 84.2294 60.8585 85.1417 61.4489 87.2909C62.3413 90.2479 66.7444 91.0863 68.7947 89.8276L68.8374 89.7985C69.4633 89.3718 70.2761 88.8176 70.6477 87.8347C71.2427 86.2605 70.9039 85.4206 70.5904 84.6435C70.4266 84.2377 70.2698 83.8489 70.2565 83.3816C71.6752 82.9613 72.2174 82.954 73.6803 82.9344L73.7906 82.9329C74.2616 82.9265 74.7494 82.8962 75.252 82.865C75.959 82.8211 76.6953 82.7754 77.4555 82.7916C77.4619 83.1505 77.4654 83.5022 77.4688 83.8475C77.4865 85.6199 77.5024 87.2212 77.8906 88.755C77.984 89.1241 78.0485 89.453 78.1059 89.746C78.3752 91.1198 78.4892 91.7015 80.7049 91.9228C80.9811 91.9504 81.4166 91.8417 81.9193 91.7163C83.1212 91.4164 84.7071 91.0206 85.4171 92.1628C85.7619 92.7176 86.5181 96.6017 84.141 96.7676C82.7115 96.8675 82.5478 96.7687 82.1959 96.5565C82.0198 96.4502 81.7966 96.3156 81.3441 96.1632C80.4203 95.8522 79.5336 96.2055 78.9302 96.6772C77.3476 97.9144 77.7543 101.252 77.9872 103.086C78.0438 103.531 78.0412 104.081 78.0385 104.651ZM64.8126 82.6924C65.8791 79.594 60.3549 79.3874 56.857 79.4612V55.981C57.2819 56.0445 57.7522 56.0166 58.2187 55.9889C58.3843 55.9791 58.5496 55.9693 58.712 55.9636C59.0722 55.951 59.5115 55.9706 59.987 55.9919H59.9894C61.6755 56.0671 63.8151 56.1625 64.4924 54.9222C65.0565 53.889 64.5358 53.3029 63.951 52.6447C63.4474 52.0779 62.8962 51.4576 62.9497 50.4521C63.0956 47.7081 68.0689 46.897 69.5514 49.656C70.076 50.6323 69.8579 51.3355 69.6165 52.1142C69.5262 52.4053 69.4326 52.7071 69.3734 53.0375C68.7923 56.2783 72.9532 56.1836 76.0451 56.1132H76.0459C76.9031 56.0937 77.6784 56.076 78.2472 56.132C78.5006 57.9961 78.3464 61.1866 77.8768 63.1757C77.6147 64.2855 76.4976 64.0268 75.2434 63.7365C74.2257 63.5009 73.1178 63.2443 72.3032 63.681C71.3159 64.2103 70.591 66.0037 70.3528 67.1549C70.2054 68.3166 70.5125 70.7966 71.1591 71.633C72.8119 73.7711 74.2226 73.7087 75.3289 73.6597C75.8052 73.6386 76.225 73.6201 76.5835 73.7807C77.357 74.1272 77.3725 75.2433 77.3848 76.1281C77.3882 76.373 77.3913 76.6002 77.4103 76.7884C77.4573 77.2549 77.45 77.7141 77.4426 78.1782C77.4404 78.3177 77.4381 78.4576 77.4374 78.5982C77.4364 78.7723 77.4371 78.9306 77.4376 79.0745C77.4404 79.7642 77.4418 80.1236 77.263 80.3088C77.0686 80.5102 76.6609 80.5056 75.81 80.4961H75.8069C75.4818 80.4925 75.0916 80.4881 74.6246 80.4943C74.3197 80.4983 74.0042 80.494 73.6839 80.4896C72.3249 80.4711 70.8779 80.4514 69.7735 81.0603C67.9692 82.0553 68.3574 83.1062 68.8178 84.3526C69.1054 85.131 69.4211 85.9858 69.2484 86.9508C68.7914 89.5059 62.4776 89.1501 64.1402 84.7023L64.8126 82.6924ZM56.8906 53.7356L56.857 53.7344V31.3655C57.1599 31.4051 57.4696 31.4165 57.7592 31.3813C58.5885 31.2804 61.7463 31.1334 62.6151 31.1992C62.6758 31.8035 62.4831 32.1409 62.2686 32.5165C62.0707 32.8632 61.8541 33.2423 61.8012 33.8937C61.3683 39.2238 69.4136 40.4739 71.4737 37.0973C71.6689 36.7775 71.7293 36.5414 71.805 36.2453L71.8054 36.2438C71.8293 36.1504 71.8547 36.0511 71.8864 35.9413C72.2687 34.6173 71.9942 33.4689 71.7423 32.415C71.6061 31.8451 71.4765 31.3029 71.4609 30.7755C72.695 30.687 76.7493 30.7396 78.117 30.8905C78.1234 31.2949 78.1193 31.7724 78.1148 32.2941C78.094 34.7078 78.065 38.0662 79.0325 39.4993C79.953 40.8632 81.1299 40.4034 82.2881 39.9509C82.6533 39.8083 83.0166 39.6664 83.3694 39.5825C86.2699 38.8936 85.7446 44.2565 84.6984 45.5027C83.99 45.5586 83.3069 45.3228 82.6344 45.0906C81.6011 44.7338 80.5926 44.3856 79.5552 45.1179C77.9647 46.2405 77.8087 47.8325 78.086 49.9708C78.2005 50.8532 78.2372 51.8047 78.2743 52.7657L78.2744 52.7669C78.291 53.1966 78.3076 53.6282 78.3314 54.0564C77.5314 54.0279 76.8562 54.0669 76.1793 54.1061H76.1776C75.7634 54.13 75.3482 54.154 74.9037 54.1626C74.7821 54.1649 74.6213 54.1737 74.4362 54.1837C73.4602 54.2369 71.8096 54.3267 71.6792 53.7039C71.5039 52.8666 71.6779 52.256 71.848 51.6588C72.1342 50.6545 72.4095 49.6884 70.994 47.7466C69.8057 46.1164 68.3029 46.0419 66.0907 46.1182C63.3622 46.2123 60.6261 48.5406 61.2744 51.2355C61.4366 51.9097 61.6907 52.251 61.914 52.5509C62.1369 52.8502 62.3291 53.1082 62.3684 53.6148C61.0972 54.1014 59.8435 53.983 58.4758 53.8538C57.9656 53.8056 57.4394 53.7559 56.8906 53.7356ZM56.857 13.6296V28.4999C58.4822 28.486 60.6366 28.5364 61.7439 28.5771C61.8838 28.5823 62.0413 28.5846 62.2108 28.5872C63.5354 28.607 65.5956 28.6379 65.7344 30.09C65.8122 30.9034 65.5771 31.6231 65.3493 32.3206C65.0546 33.2229 64.7721 34.088 65.1947 35.0704C65.7182 36.2881 68.2242 36.4018 69.0498 35.1792C69.7691 34.1143 69.4446 32.8028 69.1658 31.6763C68.9609 30.8485 68.7808 30.1205 69.0576 29.6635C69.4887 28.9517 69.8569 28.884 70.5558 28.8294C71.0215 28.793 71.9747 28.8247 73.0337 28.86C74.9565 28.924 77.2281 28.9996 77.5628 28.6999C77.8586 28.435 78.1061 24.2517 78.0531 23.5723C78.0453 23.4727 78.0416 23.3593 78.0376 23.2391C78.0199 22.7062 77.9977 22.0401 77.6036 21.8503C76.9458 21.5337 76.0571 21.6392 75.2576 21.7341C74.9946 21.7653 74.7412 21.7954 74.5089 21.8089C69.6603 22.0917 68.4001 15.1051 72.511 12.4017C73.4768 11.7666 75.3102 12.0923 76.3583 12.5227C76.512 12.5858 76.6213 12.6396 76.7111 12.6838C76.9855 12.819 77.0777 12.8645 77.7032 12.8125C77.8837 12.2268 78.0477 10.319 77.935 9.66041C77.753 9.60468 77.588 9.55135 77.4362 9.50228C76.6333 9.24277 76.1994 9.10252 75.563 9.35837C74.1713 9.91775 73.386 9.32851 72.5538 8.70403C72.3424 8.54543 72.128 8.38456 71.8999 8.23965C71.4148 7.84998 70.9964 7.33825 70.6048 6.85934L70.5438 6.78478C70.2456 6.42058 69.897 6.25984 69.518 6.08508C69.3701 6.01688 69.2176 5.94655 69.0617 5.86116L66.8285 4.56465C66.0975 4.30053 65.2748 4.28743 64.4913 4.27495C63.8348 4.2645 63.2058 4.25448 62.6811 4.0976C60.2666 3.37561 59.4888 5.80271 58.9141 7.59638C58.7467 8.1189 58.5965 8.58766 58.4281 8.90916C58.058 9.61536 57.9096 10.2737 57.7514 10.9759C57.5741 11.7623 57.3844 12.6039 56.857 13.6296Z" fill="white"/>
<path d="M23.8165 135.921V119.915H24.674C25.9328 119.915 26.0629 117.891 24.674 117.891H20.9329C19.5751 117.891 19.5831 119.915 20.9329 119.915H21.8154V135.921H20.9329C19.5751 135.921 19.5831 137.944 20.9329 137.944H24.674C25.9328 137.944 26.0629 135.921 24.674 135.921H23.8165Z" fill="white"/>
<path d="M52.334 136.637V124.997C52.334 123.683 50.4245 123.724 50.4245 124.997V135.672C50.0185 135.672 49.5898 135.687 49.158 135.702C47.5518 135.759 45.9026 135.817 45.215 135.104C44.8499 134.725 44.6674 134.262 44.6674 133.713V124.997C44.6674 123.702 42.7296 123.71 42.7296 124.997V133.713C42.7296 135.924 44.4034 137.602 46.5769 137.602H51.3793C52.0159 137.602 52.334 137.281 52.334 136.637Z" fill="white"/>
<path fill-rule="evenodd" clip-rule="evenodd" d="M56.3642 131.782H63.076C64.1506 131.782 64.1153 130.772 64.0595 129.173C64.0458 128.78 64.0308 128.351 64.0308 127.893C64.0308 125.734 62.3819 124.032 60.1835 124.032C59.9308 124.032 59.6874 124.028 59.4522 124.024C57.9285 123.997 56.7438 123.976 55.5496 125.168C54.8007 125.906 54.4264 126.814 54.4264 127.893V133.713C54.4264 135.924 56.1001 137.602 58.2737 137.602C58.5682 137.602 58.9632 137.614 59.4075 137.627C61.0633 137.676 63.4034 137.746 63.778 137.304C64.2447 136.754 64.1008 135.672 63.076 135.672H58.2737C56.253 135.672 56.3126 133.67 56.3537 132.289C56.3591 132.107 56.3642 131.937 56.3642 131.782ZM56.3642 129.852C56.3642 126.057 56.4534 125.963 60.1835 125.963C62.2371 125.963 62.1746 127.98 62.1321 129.35C62.1265 129.53 62.1213 129.7 62.1213 129.852H56.3642Z" fill="white"/>
<path d="M75.1379 125.082C76.2727 125.686 75.4207 127.417 74.2954 126.843C70.2538 124.779 66.9706 126.995 68.3417 127.865L74.4639 131.924C76.7644 133.427 75.924 137.574 70.7289 137.574C69.2596 137.574 65.0121 136.664 66.5162 134.991C66.9713 134.484 67.5721 134.738 68.366 135.074C69.5561 135.578 71.1799 136.265 73.3968 134.849C73.8664 134.548 73.8399 133.839 73.3968 133.543L67.2746 129.483C65.3804 128.2 65.6795 124.061 71.0375 124.061C72.4231 124.061 73.7899 124.401 75.1379 125.082Z" fill="white"/>
<path d="M81.6673 124.032C81.6673 123.757 81.6777 123.377 81.6897 122.942C81.7357 121.277 81.8035 118.819 81.3865 118.44C80.813 117.918 79.7577 118.205 79.7577 119.177V124.032C79.6672 124.032 79.5703 124.029 79.4697 124.026C78.7394 124.005 77.82 123.978 77.82 124.997C77.82 126.018 78.7885 125.989 79.4922 125.968C79.5864 125.965 79.6759 125.963 79.7577 125.963V136.637C79.7577 137.895 81.6673 137.976 81.6673 136.637V125.963C82.0504 125.963 82.4305 125.978 82.7941 125.993C84.2946 126.055 85.5148 126.105 85.5148 124.997C85.5148 123.9 84.4672 123.941 82.9157 124.001C82.5281 124.016 82.1092 124.032 81.6673 124.032Z" fill="white"/>
<path fill-rule="evenodd" clip-rule="evenodd" d="M39.1726 134.983C39.3712 134.231 39.3224 127.145 39.2982 123.62C39.2928 122.838 39.2886 122.231 39.2886 121.908C39.2886 119.689 37.5544 117.891 35.3446 117.891C34.8345 117.891 34.3372 117.876 33.8552 117.862C31.7085 117.797 29.8667 117.741 28.5581 119.064C27.7847 119.846 27.3981 120.794 27.3981 121.908V133.928C27.3981 136.211 29.1262 137.944 31.3712 137.944C31.8806 137.944 32.3776 137.959 32.8597 137.973C35.0351 138.038 36.9075 138.094 38.2446 136.742C38.427 136.866 38.6074 137 38.7851 137.133C39.6128 137.748 40.3832 138.321 41.0288 137.636C41.9141 136.697 40.7525 135.975 39.7238 135.336C39.5305 135.216 39.342 135.098 39.1726 134.983ZM36.5334 135.569C35.7661 136.074 34.0332 136.021 32.5281 135.975L32.5272 135.975C32.1168 135.963 31.7234 135.951 31.3712 135.951C30.239 135.951 29.3992 135.064 29.3992 133.928V121.908C29.3992 120.768 30.2436 119.914 31.3712 119.914C31.7922 119.914 32.2353 119.899 32.6809 119.883C34.3265 119.825 36.0061 119.766 36.7364 120.486C37.1231 120.867 37.3166 121.341 37.3166 121.908V133.723C36.9968 133.505 36.6901 133.276 36.3972 133.059C35.242 132.199 34.3032 131.501 33.6334 132.213C32.7 133.204 34.0493 134.03 35.5236 134.932C35.8623 135.14 36.2077 135.351 36.5334 135.569Z" fill="white"/>
<path fill-rule="evenodd" clip-rule="evenodd" d="M120.522 9.73824C120.994 10.124 122.427 10.4933 123.19 10.4784C123.922 10.4641 124.443 10.4448 124.85 10.4297C126.043 10.3855 126.274 10.3769 128.036 10.6331C128.869 11.3268 128.836 12.834 128.817 13.6932C128.811 13.9697 128.806 14.1791 128.833 14.2727C128.819 14.9736 128.843 15.5984 128.865 16.1737C128.938 18.1187 128.99 19.4978 127.519 21.3386C126.814 22.2197 125.207 22.0144 123.877 21.8444C123.329 21.7744 122.828 21.7104 122.456 21.7307C122.381 21.9046 122.279 22.0435 122.174 22.1867C122.027 22.3872 121.874 22.5958 121.78 22.9199C121.32 24.5031 121.585 26.414 122.498 27.6813C123.729 27.8213 124.227 27.6129 124.672 27.4268C124.993 27.2924 125.286 27.1696 125.807 27.198C130.123 27.4329 128.97 34.9157 128.507 37.9183C128.428 38.4339 128.369 38.8173 128.361 39.0094C128.178 39.0186 127.976 39.0285 127.759 39.0392C125.206 39.1644 120.517 39.3942 118.543 39.9791C118.58 40.4862 118.736 40.8843 118.89 41.2776C119.18 42.0192 119.464 42.7438 118.934 44.1506C118.584 45.0803 118.063 45.8383 117.427 46.2367C114.667 47.9652 109.466 46.0843 109.657 41.9767C109.697 41.1234 110.043 40.5985 110.38 40.0881C110.725 39.5647 111.061 39.0567 111.045 38.2257C109.247 37.5796 107.509 37.7999 105.905 38.0032C104.602 38.1684 103.387 38.3224 102.3 37.9917C102.263 37.9805 102.23 37.9743 102.199 37.9686C101.97 37.9262 101.904 37.914 101.812 36.0477C101.736 34.5147 101.805 30.3233 101.857 28.8692C101.862 28.7282 101.864 28.5694 101.867 28.3986C101.886 27.0597 101.917 24.9754 103.353 24.8352C104.158 24.7568 104.87 24.9943 105.56 25.2244C106.452 25.5222 107.308 25.8077 108.28 25.3808C109.484 24.8517 109.597 22.3181 108.388 21.4836C107.241 20.6926 105.896 21.0559 104.871 21.3331C104.261 21.4977 103.765 21.6319 103.489 21.4758C103.413 21.3796 103.339 21.2913 103.269 21.2066C102.958 20.836 102.708 20.5364 102.664 19.9613C102.595 19.0662 102.681 11.8778 102.764 11.5685C103.02 10.6089 103.305 9.95158 104.02 10.0515C106.022 10.3311 108.909 10.5987 110.655 9.93066C110.615 9.42404 110.423 9.166 110.2 8.86668C109.977 8.56682 109.723 8.22553 109.561 7.55138C108.912 4.85648 111.648 2.52812 114.377 2.43406C117.122 2.33935 119.998 3.15406 120.409 6.31134C120.47 6.77913 120.457 7.30318 120.444 7.83844C120.428 8.48157 120.411 9.14089 120.522 9.73824ZM105.388 12.3095C105.206 12.3257 105.044 12.3401 104.777 12.3337C104.86 13.3502 104.903 15.1023 104.784 16.2457C104.756 16.5098 104.731 16.7247 104.709 16.9113C104.625 17.6328 104.59 17.9305 104.666 19.0114C105.205 18.9951 105.677 18.8602 106.155 18.7234C106.995 18.4831 107.856 18.2368 109.142 18.6162C109.251 18.6484 109.349 18.6742 109.442 18.6984C109.735 18.7751 109.969 18.8363 110.285 19.0333C113.612 21.1074 112.486 29.169 107.883 28.9243C107.319 28.8777 106.971 28.6845 106.611 28.4848C106.114 28.2087 105.593 27.9199 104.451 27.9885C104.298 29.1129 104.415 30.2742 104.53 31.4177C104.672 32.8297 104.812 34.2145 104.437 35.4687C107.805 35.3586 114.251 35.6622 113.099 39.0082C112.996 39.3274 112.941 39.5283 112.893 39.7024C112.803 40.0311 112.739 40.2643 112.426 41.0181C111.857 42.3932 112.22 44.1509 113.714 44.6597C115.204 45.1676 117.286 44.6559 117.535 43.2667C117.707 42.3017 117.392 41.447 117.104 40.6685C116.644 39.4221 116.255 38.3712 118.06 37.3761C119.182 36.7576 120.56 36.7806 121.912 36.8032C122.248 36.8089 122.582 36.8145 122.911 36.8101C124.716 36.7863 125.383 36.8543 125.619 36.5675C125.812 36.3335 125.719 35.8632 125.724 34.9141C125.724 34.7734 125.727 34.6335 125.729 34.4941C125.736 34.03 125.744 33.5708 125.697 33.1043C125.678 32.916 125.674 32.6889 125.671 32.444C125.659 31.5591 125.643 30.4429 124.87 30.0965C124.512 29.9361 124.077 29.9545 123.581 29.9755C122.426 30.0244 120.934 30.0876 119.28 27.9489C118.634 27.1124 118.492 24.6324 118.639 23.4707C118.851 22.4475 119.551 20.5537 120.589 19.9969C121.404 19.5602 122.512 19.8167 123.53 20.0523C124.784 20.3427 125.901 20.6013 126.163 19.4915C126.633 17.5025 126.787 14.312 126.534 12.4478C125.964 12.3919 125.189 12.4095 124.331 12.429C121.24 12.4994 117.079 12.5941 117.66 9.35336C117.714 9.04774 117.799 8.74891 117.882 8.45142C118.131 7.56689 118.377 6.69423 117.838 5.6904C116.334 2.89194 111.38 3.77983 111.236 6.4864C111.182 7.50068 111.727 8.17513 112.23 8.79655C112.821 9.52796 113.353 10.1859 112.779 11.238C112.446 11.8463 112.162 11.9445 111.437 12.1279C110.317 12.4113 109.099 12.3616 107.854 12.3108C107.187 12.2836 106.512 12.256 105.842 12.2794C105.652 12.286 105.515 12.2982 105.388 12.3095Z" fill="white"/>
</g>
</g>
</svg>
