<svg width="60" height="90" viewBox="0 0 60 90" fill="none" xmlns="http://www.w3.org/2000/svg">
<g clip-path="url(#clip0_3757_9491)">
<path d="M30 0C13.4318 0 0 13.4539 0 30.0502C0 36.2336 1.86442 41.9811 5.06104 46.7588L5.01872 46.7814L27.3763 76.6635C28.7134 78.4501 31.39 78.4446 32.7197 76.6525L52.8068 49.5729C57.2917 44.3214 60 37.5026 60 30.0502C60 13.4539 46.5682 0 30 0Z" fill="#7422D4"/>
<path d="M5.76778 46.9479L5.78355 46.9395L5.4766 46.4807C2.33335 41.7828 0.5 36.1316 0.5 30.0502C0.5 13.7292 13.7087 0.5 30 0.5C46.2913 0.5 59.5 13.7292 59.5 30.0502C59.5 37.3792 56.837 44.0839 52.4266 49.2482L52.4154 49.2613L52.4052 49.275L32.3182 76.3545C31.1878 77.8779 28.9132 77.8826 27.7766 76.3639L5.76778 46.9479Z" stroke="white" stroke-opacity="0.12"/>
<rect x="6.66666" y="6.67773" width="46.6667" height="46.7447" rx="23.3333" fill="#17141B" fill-opacity="0.5"/>
<rect x="7.16666" y="7.17773" width="45.6667" height="45.7447" rx="22.8333" stroke="white" stroke-opacity="0.12"/>
<path d="M22.8733 33.5073C23.0065 33.6355 23.1532 33.7767 23.3943 33.9197C23.5205 33.9946 23.6527 34.078 23.7831 34.1603C23.9343 34.2557 24.0832 34.3497 24.218 34.4273C24.602 34.6484 25.1292 34.6793 25.5134 34.3868C25.5619 34.3499 25.5939 34.3107 25.6211 34.2774C25.6795 34.2059 25.716 34.1612 25.8467 34.2226C26.0512 34.3214 25.8164 34.6102 25.6883 34.7678C25.6702 34.79 25.6543 34.8096 25.642 34.8258C25.5153 34.9917 25.4096 35.0581 25.332 35.1068C25.2751 35.1425 25.2333 35.1687 25.2097 35.2178C25.2834 35.2815 25.3893 35.3082 25.5176 35.3404C25.7098 35.3888 25.9521 35.4498 26.2111 35.6669C26.347 35.7808 26.4376 35.8076 26.55 35.8409C26.6882 35.8818 26.8594 35.9326 27.1886 36.1671C27.74 36.5598 27.9279 36.7612 27.7182 37.4272C27.6788 37.5524 27.5839 37.6472 27.4242 37.5703C27.3655 37.5422 27.3253 37.429 27.2748 37.287C27.1987 37.0731 27.0994 36.7939 26.8791 36.6418C26.6904 36.5114 26.4377 36.5121 26.3065 36.6148C26.2801 36.6355 26.266 36.6505 26.2558 36.6613C26.2303 36.6885 26.2298 36.689 26.1205 36.686C26.03 36.5708 25.9976 36.4801 25.9697 36.4023C25.924 36.2746 25.8906 36.1814 25.6328 36.0702C25.5649 36.0409 25.5325 36.0217 25.5029 36.0042C25.448 35.9716 25.4026 35.9447 25.1571 35.8692C25.125 35.8594 25.0959 35.8506 25.0691 35.8425C24.8428 35.7744 24.7862 35.7574 24.5762 35.5682C24.3989 35.4085 24.2021 35.1265 24.0445 34.9009C23.9315 34.7389 23.8386 34.606 23.7879 34.5681C23.6371 34.4557 23.2972 34.3964 23.0535 34.4569C22.6143 34.5659 22.5115 34.6456 22.241 34.8551C22.2145 34.8757 22.1864 34.8975 22.1562 34.9206C22.0632 34.992 21.8988 35.0011 21.8 34.9515C21.6809 34.6483 22.0652 34.4387 22.389 34.2619C22.5392 34.18 22.6763 34.1052 22.7444 34.0314C22.7247 33.9172 22.6201 33.801 22.5118 33.6808C22.3442 33.4949 22.1679 33.2993 22.2835 33.0858C22.4229 33.0716 22.431 33.081 22.4881 33.1469C22.5219 33.1858 22.5728 33.2445 22.6781 33.3298C22.7462 33.385 22.8082 33.4446 22.8733 33.5073Z" fill="white"/>
<path d="M24.4458 27.112C24.0832 27.1058 23.8245 27.2144 23.5312 27.391C23.4663 27.4353 23.4075 27.4849 23.3476 27.5355C23.3005 27.5753 23.2527 27.6156 23.2007 27.6545C22.6219 28.0869 22.5331 28.118 21.8767 28.039C21.7247 28.0206 21.5043 27.9732 21.371 27.9319C21.2296 27.8883 21.174 27.8495 21.1359 27.823C21.0865 27.7886 21.0667 27.7748 20.927 27.7978C20.9316 27.8411 20.9307 27.8764 20.9299 27.9083C20.9273 28.019 20.9256 28.0896 21.1524 28.3183C21.4843 28.653 21.9089 28.6575 22.3466 28.6094C22.6761 28.5732 22.7593 28.5348 22.8262 28.504C22.8653 28.486 22.8989 28.4705 22.9729 28.4595C22.9392 28.7205 22.8097 29.8703 23.1396 29.8787L23.1513 29.879C23.2305 29.8815 23.2515 29.8822 23.2529 29.654C23.2537 29.5241 23.2496 29.4136 23.2459 29.3149C23.2322 28.9491 23.2245 28.7447 23.4962 28.313C23.6611 28.0509 24.1097 27.8732 24.4015 27.7699C24.5464 27.7186 24.6577 27.6863 24.8352 27.6929C24.8757 27.8074 24.9892 27.9325 25.081 28.0328C25.3256 28.3003 26.1081 28.4623 26.464 28.4616C26.4725 28.4616 26.4833 28.4616 26.4959 28.4617C26.6945 28.4632 27.3529 28.468 26.999 28.1552C26.9117 28.1194 26.8334 28.1335 26.7557 28.1476C26.7079 28.1563 26.6603 28.1649 26.611 28.1619C26.1209 28.1313 25.6123 27.9679 25.2636 27.5958C24.9153 27.2241 25.0471 26.4204 25.2354 26.005C25.2465 25.9806 25.2588 25.9579 25.2711 25.9354C25.2889 25.9029 25.3064 25.8707 25.3197 25.8341C25.3653 25.7077 25.3327 25.5599 25.2222 25.5196C25.0616 25.461 24.6118 26.142 24.5592 26.2588C24.472 26.4526 24.464 26.6795 24.4565 26.8961C24.4539 26.9698 24.4514 27.0423 24.4458 27.112Z" fill="white"/>
<path d="M24.5064 38.2061C24.2714 37.9811 24.0757 37.6708 23.9345 37.4469C23.8417 37.2997 23.7724 37.1899 23.7311 37.1661C23.7109 37.1546 23.634 37.1501 23.5202 37.1436C23.1926 37.1247 22.5591 37.0882 22.096 36.8132C21.9516 36.7208 21.8485 36.6454 21.7717 36.5892C21.5644 36.4375 21.5489 36.4262 21.4321 36.6002C21.4831 36.6655 21.5124 36.712 21.5397 36.7553C21.5778 36.8158 21.6118 36.8699 21.6952 36.9596C21.8247 37.099 22.3766 37.4983 22.5062 37.5633C22.6666 37.6438 23.2124 37.8809 23.35 37.9077C23.369 37.9114 23.3862 37.9146 23.4017 37.9175C23.5412 37.9436 23.5513 37.9455 23.621 38.0699C23.9619 38.6787 24.5922 39.1524 25.3231 39.1413C25.3272 39.1008 25.3345 39.068 25.3407 39.04C25.3601 38.9528 25.3689 38.9133 25.2374 38.8389C25.0574 38.737 24.7661 38.4563 24.5718 38.2691C24.5485 38.2466 24.5265 38.2254 24.5064 38.2061Z" fill="white"/>
<path d="M26.1786 22.2879C26.258 22.229 26.3384 22.1695 26.4116 22.11C26.2284 21.8644 26.2283 21.8641 26.2191 21.838C26.2123 21.8184 26.2003 21.7843 26.1029 21.6222C26.0137 21.474 26.0382 21.1333 26.0728 20.95C26.1382 20.6046 26.305 20.5343 26.4765 20.462C26.535 20.4374 26.594 20.4125 26.6498 20.3764C26.767 20.3005 26.7958 20.295 26.9475 20.3202C26.9784 20.3915 27.0203 20.494 26.9686 20.5788C26.935 20.634 26.8895 20.6652 26.8427 20.6971C26.762 20.7523 26.6776 20.8099 26.6452 20.9986C26.5976 21.275 26.5993 21.3837 26.7133 21.6344C26.8256 21.8815 27.104 21.9577 27.3372 22.0215C27.3567 22.0268 27.3759 22.0321 27.3947 22.0374C27.414 22.2984 27.3744 22.3044 27.2409 22.3246C27.0961 22.3465 26.8411 22.385 26.4314 22.7834C26.2841 22.9267 26.151 23.1063 26.0947 23.3056C26.0701 23.3929 26.0585 23.4588 26.0488 23.5136C26.0245 23.6513 26.0125 23.7192 25.838 23.8804L25.6845 23.8435C25.6824 23.7501 25.6762 23.6625 25.6702 23.5785C25.6422 23.1819 25.6197 22.8641 26.055 22.3804C26.0951 22.3498 26.1368 22.3189 26.1786 22.2879Z" fill="white"/>
<path d="M23.5948 25.5563C23.5886 25.3814 23.5418 25.2616 23.4988 25.1517C23.4231 24.9581 23.3594 24.7951 23.5512 24.4157C23.5771 24.3645 23.61 24.2778 23.6415 24.1948C23.6612 24.1429 23.6804 24.0923 23.697 24.0527C23.7644 23.8388 23.9725 23.6465 24.1392 23.4925C24.248 23.392 24.3392 23.3078 24.362 23.2445C24.4059 23.1225 24.4736 22.868 24.3492 22.7989C24.0446 22.6297 23.9494 22.7196 23.8551 22.8727C23.7998 22.9624 23.7878 23.0308 23.7759 23.0983C23.7649 23.1606 23.7541 23.2221 23.7094 23.2988C23.2768 23.3661 23.2881 23.0217 23.2977 22.7279L23.2983 22.71C23.3025 22.5785 23.2989 22.5788 23.1462 22.5902C23.1354 22.591 23.1239 22.5918 23.1116 22.5927C22.9359 22.9554 22.946 23.1918 22.9631 23.589C22.9679 23.7023 22.9733 23.8286 22.9752 23.9747C22.9758 24.0256 22.9762 24.0786 22.9766 24.1332L22.9766 24.1335L22.9766 24.1337C22.9794 24.537 22.9829 25.0278 23.095 25.3752C23.103 25.4 23.1107 25.4261 23.1186 25.4526C23.1831 25.6701 23.255 25.9127 23.5268 25.6341C23.5609 25.5992 23.5642 25.6087 23.5657 25.6129C23.566 25.6137 23.5665 25.6144 23.5665 25.6144C23.5675 25.6146 23.5698 25.6098 23.5792 25.5897C23.583 25.5814 23.5881 25.5705 23.5948 25.5563Z" fill="white"/>
<path d="M28.2006 28.186C28.1935 28.272 28.196 28.3556 28.1985 28.4379C28.2059 28.6867 28.2129 28.9239 27.9531 29.1827C27.6821 29.4527 27.6187 29.4282 27.4593 29.3667C27.4413 29.3597 27.422 29.3523 27.4011 29.3448C27.2921 29.3055 27.1631 29.3575 27.152 29.4586C27.1416 29.5529 27.4254 29.7669 27.5474 29.8589L27.5656 29.8727L27.572 29.8775C27.9034 30.0627 28.2723 29.9562 28.4379 29.7232C28.581 29.5218 28.5268 28.3768 28.4531 28.2372C28.3993 28.1354 28.2869 28.1307 28.2006 28.186Z" fill="white"/>
<path d="M27.0348 39.7376C27.2062 39.8723 27.2799 39.9127 27.5471 39.8759C27.6579 39.8606 27.7371 39.8347 27.8209 39.7844C27.889 39.7436 27.9586 39.7235 28.0183 39.7063C28.1482 39.6689 28.231 39.6451 28.148 39.4502C28.0959 39.3276 27.978 39.3125 27.8041 39.2903C27.5848 39.2623 27.2763 39.2229 26.8979 38.9422C26.7262 38.8149 26.4028 38.8971 26.3969 38.9754C26.3942 39.01 26.6214 39.383 26.649 39.4159C26.7318 39.5148 26.8281 39.5849 26.9249 39.6554C26.9617 39.6822 26.9986 39.7091 27.0348 39.7376Z" fill="white"/>
<path fill-rule="evenodd" clip-rule="evenodd" d="M24.4517 40.7737C24.1944 40.631 23.9385 40.4891 23.4801 40.4887C23.42 40.4886 23.3891 40.4945 23.3624 40.4995C23.3229 40.507 23.2925 40.5127 23.1898 40.495C22.9243 40.4492 22.4662 40.2513 22.2592 40.0696C21.8692 39.7272 21.6349 39.3083 21.5098 38.816C21.4678 38.6507 21.3986 38.6271 21.2756 38.585C21.1872 38.5548 21.071 38.5151 20.917 38.4065C20.6469 38.2157 20.5252 37.9632 20.4142 37.7329C20.3198 37.5369 20.2331 37.357 20.0691 37.2448C20.0404 37.2252 20.0139 37.2081 19.9892 37.1923C19.8779 37.1208 19.8031 37.0728 19.7249 36.9123C19.6207 36.6985 19.6135 36.4506 19.6071 36.2277C19.6018 36.0468 19.5971 35.8825 19.5414 35.7663C19.5081 35.697 19.4569 35.6238 19.4086 35.5549C19.3598 35.4852 19.3139 35.4198 19.293 35.3673C19.1777 35.078 19.2622 34.7973 19.3451 34.5221C19.3955 34.3547 19.4453 34.1893 19.4491 34.0252C19.455 33.7687 19.4262 33.7338 19.3549 33.6474C19.3299 33.617 19.2996 33.5803 19.2638 33.5255C19.0201 33.1524 19.0175 32.2612 19.1232 31.8109C19.1323 31.772 19.146 31.7433 19.1587 31.7166C19.1816 31.6685 19.2012 31.6272 19.185 31.5458C19.1764 31.5026 19.1511 31.4503 19.1219 31.3902C19.0433 31.228 18.9373 31.0093 19.0604 30.762C19.0823 30.7179 19.1182 30.6565 19.1554 30.593C19.2127 30.4949 19.2731 30.3916 19.2898 30.3388C19.3157 30.2572 19.2878 30.1331 19.2518 29.9728C19.1701 29.6096 19.0467 29.0609 19.4129 28.4018C19.5094 28.2281 19.5889 28.0646 19.6656 27.907C19.8597 27.5078 20.0356 27.146 20.4242 26.7495C20.712 26.4558 20.7113 26.4507 20.6706 26.1365C20.666 26.101 20.6609 26.0614 20.6556 26.0171C20.6343 25.838 20.6375 25.5357 20.6505 25.352C20.6924 24.7625 21.2209 24.1065 21.6757 23.7308C21.8814 23.5609 21.9178 23.3527 21.9583 23.1214C21.9783 23.0069 21.9993 22.8868 22.0424 22.7628C22.2121 22.2742 22.3979 21.8316 22.8018 21.489C22.9608 21.3541 23.0906 21.2288 23.2207 21.1031C23.3077 21.019 23.3949 20.9347 23.4912 20.8473C23.5339 20.8086 23.5613 20.747 23.591 20.6805C23.6276 20.5984 23.6675 20.5088 23.7435 20.4456C23.9309 20.2899 24.4753 20.0963 24.7018 20.0819C25.112 20.0559 25.1356 20.0256 25.3113 19.7998C25.3304 19.7753 25.3513 19.7485 25.3747 19.7191C25.6246 19.405 26.1606 19.1975 26.5718 19.2657C26.7387 19.2934 26.8398 19.3177 26.9077 19.334C26.9736 19.3499 27.0084 19.3582 27.0421 19.355C27.0797 19.3514 27.116 19.3333 27.1928 19.2949C27.2309 19.2758 27.2791 19.2517 27.3423 19.222C27.5583 19.1203 27.8718 18.9733 28.1067 19.064C28.2724 19.128 28.4193 19.1902 28.53 19.29C28.5599 19.3198 28.5892 19.3487 28.6178 19.377C29.0409 19.7955 29.317 20.0687 29.3821 20.7575V37.9836C29.3732 38.1267 29.3664 38.2601 29.36 38.3851C29.3317 38.9388 29.3118 39.3275 29.1578 39.6673C28.9692 40.0834 28.7447 40.4066 28.0465 40.6766C27.6963 40.8121 27.33 40.834 26.9994 40.8537C26.7849 40.8665 26.5855 40.8785 26.4151 40.9199C25.252 41.2175 24.8501 40.9946 24.4517 40.7737ZM28.8066 38.9822C28.8165 38.8632 28.8276 38.729 28.8711 38.5629V33.6647C28.6732 33.6953 28.496 33.6984 28.2966 33.702C28.2478 33.7028 28.1975 33.7037 28.1454 33.7051C27.3181 33.6348 27.0348 33.3816 26.7633 33.139C26.6981 33.0807 26.6335 33.023 26.5623 32.9687C26.3904 32.8374 26.3405 32.715 26.2919 32.596C26.2365 32.4604 26.183 32.3293 25.9528 32.1946C25.498 31.8994 24.7962 32.0078 24.3679 32.1402C24.1943 32.1938 24.0476 32.2743 23.9343 32.3365C23.7496 32.4378 23.6537 32.4903 23.6755 32.2983L23.7151 31.9482C23.7944 31.9135 23.888 31.8635 23.9799 31.8143C24.0167 31.7947 24.0533 31.7752 24.0885 31.7568C24.538 31.5228 24.9285 31.4967 25.4686 31.5049C25.612 31.5071 25.724 31.519 25.8164 31.5288C26.0539 31.5541 26.1611 31.5655 26.3368 31.3616C26.5352 31.1314 26.4963 30.9691 26.4548 30.7956C26.4354 30.7144 26.4154 30.6308 26.4188 30.5367C26.4284 30.531 26.4378 30.5252 26.447 30.5196C26.5217 30.4738 26.5871 30.4338 26.6915 30.4222C26.8394 30.5898 26.8649 30.7602 26.9008 31.0001C26.9086 31.0522 26.9169 31.1076 26.927 31.1669C26.9687 31.4109 26.8764 31.6867 26.6772 31.8418C26.6955 32.0722 27.1011 32.6386 27.2916 32.7323C27.8024 33.061 28.0998 33.175 28.8711 33.2V25.2469L28.8525 25.2735C28.7148 25.4616 28.6386 25.4722 28.5311 25.4871C28.501 25.4913 28.4684 25.4959 28.4313 25.5048C28.1906 25.5624 27.9808 25.6571 27.752 25.762C27.5553 25.8521 27.429 25.9635 27.3273 26.0533C27.1782 26.1849 27.0817 26.2701 26.8928 26.1741C26.8978 25.7257 27.5201 25.3874 27.8808 25.1913C27.9227 25.1685 27.9612 25.1476 27.9947 25.1286C28.0658 25.0885 28.1418 25.0532 28.2145 25.0194C28.3544 24.9544 28.482 24.8952 28.538 24.8185C28.6227 24.7026 28.6539 24.6859 28.8529 24.7221C28.8594 24.7326 28.8655 24.7434 28.8711 24.7543V20.7912C28.8044 20.5443 28.6616 20.1485 28.4721 20.0525C28.3401 19.9856 28.1102 19.937 27.9452 19.9429C27.6189 19.9544 27.5835 20.0053 27.5491 20.0548C27.5354 20.0745 27.5218 20.094 27.49 20.1107C27.456 20.1286 27.1573 20.0717 26.9759 20.0371C26.9212 20.0267 26.8771 20.0183 26.8542 20.0146C26.126 19.8969 25.9588 20.0908 25.6449 20.5833C25.5224 20.7755 25.449 20.7763 25.2592 20.7782C25.097 20.7799 24.8497 20.7825 24.4143 20.9061C24.0877 20.9989 24.0451 21.1488 23.9942 21.3284C23.9698 21.4143 23.9435 21.5068 23.8834 21.6032C23.8405 21.6721 23.7914 21.6792 23.7252 21.6889C23.6098 21.7057 23.4426 21.7301 23.1661 22.1032C23.1281 22.1544 23.0913 22.2022 23.0557 22.2483C22.913 22.4333 22.7901 22.5928 22.6901 22.8509C22.6288 23.0092 22.587 23.2012 22.5439 23.3997C22.4601 23.7849 22.371 24.1942 22.1239 24.4279L22.0926 24.4581C21.8264 24.7148 21.6266 24.9074 21.3961 25.205C21.3024 25.3344 21.2948 25.4031 21.2787 25.5485C21.2747 25.5842 21.2703 25.6246 21.2639 25.6717C21.1763 26.3175 21.2654 26.5209 21.3337 26.6767C21.3689 26.7572 21.3986 26.825 21.3956 26.9344C21.2166 27.0578 21.064 27.2132 20.9127 27.3671L20.8786 27.4018C20.5923 27.6926 20.2068 28.3837 20.0728 28.7547C19.951 29.0917 19.9102 29.8567 19.9513 30.181C20.0033 30.5926 19.9236 30.6933 19.7733 30.883C19.7654 30.893 19.7573 30.9032 19.749 30.9138C19.5814 31.1267 19.6601 31.2959 19.7714 31.468C19.7745 31.4647 19.7776 31.4614 19.7808 31.458C20.0183 31.5057 20.0735 31.6378 20.1402 31.7979C20.1773 31.8868 20.218 31.9843 20.2956 32.0808C20.3206 32.1109 20.334 32.1253 20.3417 32.1335C20.3472 32.1393 20.3498 32.1422 20.3517 32.1454C20.3534 32.1483 20.3545 32.1516 20.3565 32.1579C20.3603 32.1696 20.3675 32.1917 20.3883 32.2411L20.9045 32.8876C21.0216 33.037 21.0421 33.0492 21.0668 33.064C21.0852 33.0749 21.1058 33.0872 21.1697 33.1575C21.2488 33.2448 21.3059 33.2899 21.345 33.3209C21.4016 33.3657 21.421 33.381 21.4161 33.4511C21.2331 33.4849 21.1163 33.476 20.9877 33.3969C20.8811 33.3313 20.8168 33.2996 20.7634 33.2733C20.668 33.2262 20.6071 33.1962 20.4003 33.0198C20.1749 32.8276 20.1525 32.7977 20.0397 32.6475C20.0131 32.6122 19.9816 32.5702 19.9412 32.5178C19.9063 32.4726 19.8769 32.433 19.852 32.397C19.744 32.6939 19.6981 33.0359 19.8809 33.3037C20.2029 33.7754 20.11 34.1428 20.0282 34.4666C19.9533 34.763 19.8876 35.023 20.1576 35.293C20.2848 35.4201 20.4034 35.4164 20.5032 35.4132C20.5203 35.4127 20.5369 35.4122 20.5529 35.4123C20.553 35.2712 20.5606 35.1474 20.5834 35.0867C20.6939 35.0374 20.7433 35.0519 20.8324 35.0782C20.8417 35.0809 20.8515 35.0838 20.8618 35.0867C20.897 35.5898 20.9435 35.8925 21.1015 36.2974C21.0757 36.3052 21.0479 36.3159 21.0191 36.327C20.9245 36.3634 20.8186 36.4042 20.7335 36.3618C20.6659 36.328 20.6065 36.1962 20.5847 36.0864C20.5283 36.4669 20.6892 36.5635 20.85 36.6601C20.9483 36.7191 21.0464 36.778 21.095 36.9017C21.1439 37.0264 21.1857 37.1771 21.2243 37.3162C21.2338 37.3506 21.2432 37.3844 21.2524 37.4168C21.3429 37.7357 21.5486 37.8538 21.7552 37.9725C21.9624 38.0915 22.1705 38.2111 22.2642 38.5341C22.2942 38.6375 22.3158 38.7212 22.3339 38.7909C22.4134 39.0986 22.4233 39.1368 22.775 39.4171C23.2342 39.783 23.3364 39.7596 23.5852 39.7027C23.6461 39.6887 23.7159 39.6728 23.8017 39.66C24.015 39.6284 24.0635 39.7052 24.1371 39.8219C24.21 39.9375 24.3075 40.0921 24.614 40.2189C24.646 40.2322 24.6782 40.2459 24.7105 40.2596L24.7108 40.2597C24.8523 40.3199 24.9963 40.3812 25.1362 40.4099C25.4095 40.466 25.6493 40.4342 25.9011 40.4007C26.0617 40.3794 26.2272 40.3574 26.4094 40.3572C26.5561 40.357 26.67 40.3589 26.7625 40.3604H26.7637C26.9284 40.363 27.0258 40.3646 27.1209 40.3517C27.2577 40.3331 27.3902 40.2846 27.7134 40.1663L27.7619 40.1486C28.0082 40.0585 28.226 39.8955 28.4232 39.728C28.7693 39.434 28.7849 39.2453 28.8066 38.9822Z" fill="white"/>
<path fill-rule="evenodd" clip-rule="evenodd" d="M37.5559 23.3612C37.5348 23.3959 37.5139 23.4235 37.4934 23.4448C37.4474 23.4947 37.3966 23.5339 37.347 23.5721C37.283 23.6216 37.2212 23.6693 37.1747 23.7362C37.0214 23.9566 37.136 24.3425 37.2862 24.5499C37.4416 24.7648 37.3713 24.8941 37.2141 25.0417C37.0787 25.1685 36.7254 25.171 36.5171 25.1725C36.4919 25.1727 36.4687 25.1729 36.4484 25.1732C36.0886 25.1798 35.7646 25.1965 35.3978 25.2164C35.3701 25.4611 35.4318 26.4844 35.4959 26.6385C35.5545 26.6304 35.632 26.5927 35.7232 26.5482C35.9821 26.4221 36.3515 26.2422 36.7119 26.5343C36.925 26.7071 36.9579 26.8404 36.9659 27.133C36.9671 27.1748 36.9689 27.2227 36.9709 27.2745C36.9811 27.5406 36.9952 27.907 36.9378 28.052C36.7451 28.5392 36.2948 28.8559 35.7929 28.5466C35.3222 28.2564 35.3465 28.8879 35.3605 29.2535C35.3621 29.2952 35.3636 29.3336 35.3642 29.3666C35.3655 29.4427 35.3707 29.5166 35.3758 29.5909C35.3806 29.6585 35.3853 29.7266 35.3872 29.7971C35.465 29.7982 35.577 29.7921 35.7084 29.785C36.312 29.7522 37.325 29.6973 37.3095 30.2095C37.3073 30.2835 37.2903 30.4692 37.2788 30.5388C37.2645 30.6254 37.2415 30.7074 37.2197 30.7848C37.1397 31.0696 37.077 31.2927 37.5305 31.4605C37.7228 31.5316 38.2405 31.4934 38.3205 31.2497C38.3494 31.1615 38.3475 30.9832 38.3271 30.899C38.3027 30.7986 38.2478 30.7188 38.1949 30.6419C38.0992 30.5028 38.0102 30.3735 38.1213 30.1493C38.263 29.8633 39.2448 29.9372 39.6116 29.9649C39.6323 29.9664 39.651 29.9678 39.6675 29.969C39.708 29.9719 39.7431 29.9757 39.7759 29.9816C39.7772 29.9818 39.7785 29.9819 39.7798 29.9821L39.7808 29.9823L39.7825 29.9827C40.1836 30.0686 40.2831 30.1936 40.4268 30.3741L40.4271 30.3745C40.4487 30.4016 40.4712 30.4299 40.496 30.4596C40.631 30.6215 40.7021 30.7459 40.7547 30.9553C40.7832 31.0687 40.8156 31.1217 40.8466 31.1723C40.9079 31.2725 40.9636 31.3635 40.9724 31.8939C40.975 32.0538 40.9726 32.1814 40.9701 32.3108C40.9682 32.4109 40.9663 32.5119 40.9667 32.6297C40.9675 32.9276 40.9233 33.1522 40.879 33.377C40.8242 33.6549 40.7694 33.9331 40.7997 34.3508L40.8016 34.3758L40.8016 34.376C40.8156 34.5686 40.823 34.6702 40.808 34.7684C40.7914 34.8776 40.747 34.9827 40.6534 35.2046C40.6218 35.2794 40.5847 35.3675 40.5411 35.4734C40.5198 35.5251 40.4991 35.5855 40.4772 35.6495C40.4019 35.869 40.3119 36.1312 40.1353 36.2322C39.8476 36.3966 39.7232 36.7256 39.6223 36.9924C39.5955 37.0633 39.5704 37.1298 39.5442 37.1876C39.4551 37.385 39.4218 37.5074 39.3955 37.604C39.3364 37.821 39.3127 37.9077 38.7715 38.4229C38.7329 38.4435 37.9932 39.068 37.9496 39.1324C37.4212 39.8734 37.0075 40.313 36.3686 40.3857C36.2079 40.404 36.1671 40.4336 36.1163 40.4703C36.083 40.4945 36.0455 40.5217 35.9669 40.5509C35.6879 40.6545 35.6106 40.7103 35.5585 40.748C35.4911 40.7968 35.4657 40.8151 35.0992 40.8673C34.5761 40.9417 34.3136 40.9212 34.1165 40.9058C33.9758 40.8948 33.8684 40.8864 33.7234 40.9171C33.2536 41.0165 32.8318 41.08 32.3432 41.0606C32.0841 41.0503 32.0301 41.0359 31.9077 41.0032C31.8564 40.9895 31.793 40.9726 31.6975 40.9514C31.2962 40.8625 31.0815 40.6982 30.8192 40.4974C30.777 40.4652 30.7337 40.432 30.6881 40.3981C30.6718 40.3859 30.6501 40.3727 30.6244 40.3572C30.4725 40.2651 30.1819 40.089 30.05 39.5386V21.4393C30.0443 21.3213 30.0665 21.2093 30.0893 21.0941C30.0956 21.0621 30.102 21.0298 30.1079 20.9972C30.1393 20.8216 30.195 20.7002 30.2516 20.577C30.2886 20.4963 30.326 20.4147 30.3572 20.3167C30.3823 20.2379 30.4006 20.1634 30.4193 20.0875C30.4453 19.9815 30.4721 19.8727 30.5187 19.7455C30.6263 19.464 31.1348 19.2079 31.4019 19.0964C31.8594 18.9395 32.0991 19.1229 32.2502 19.2386C32.2989 19.2758 32.3384 19.306 32.373 19.3156C32.4534 19.338 32.665 19.4007 32.7577 19.4541C32.8378 19.5003 32.9439 19.5364 33.0598 19.5759C33.2921 19.6552 33.564 19.7479 33.7455 19.9616C33.933 20.1823 34.0949 20.1852 34.2137 20.1874C34.2425 20.1879 34.2687 20.1884 34.2921 20.1919C34.3986 20.2079 34.7861 20.2856 34.8599 20.3251L35.7278 20.8197C35.8904 20.9178 36.0099 21.082 36.1223 21.2363C36.2253 21.3778 36.3223 21.5111 36.441 21.5776C36.5192 21.6215 36.9019 21.9087 36.9577 21.9925C37.0155 22.0791 37.0934 22.1734 37.1756 22.2729C37.4514 22.6068 37.7763 23 37.5559 23.3612ZM35.2164 21.3582C35.2168 21.3904 35.2172 21.4235 35.2182 21.4569C35.2191 21.4862 35.2202 21.5123 35.2211 21.5357C35.2274 21.6915 35.2291 21.7319 35.1423 21.8597C34.9858 22.0903 34.8473 22.0103 34.6744 21.9104C34.5217 21.8221 34.3422 21.7183 34.0998 21.7995C33.7348 21.9216 33.7211 22.2993 33.7151 22.4639L33.7148 22.4741C33.7008 22.8486 33.948 23.0365 34.2049 23.0432C34.333 23.0466 34.4468 23.0189 34.5521 22.9933C34.7204 22.9523 34.8671 22.9166 35.0161 23.0215C35.2704 23.2005 35.2615 23.6876 35.2536 24.1206C35.2501 24.3087 35.2469 24.4865 35.2655 24.6246C35.289 24.7999 35.3522 24.7971 35.7121 24.781L35.7128 24.781C35.8108 24.7766 35.9309 24.7713 36.0779 24.7683C36.1386 24.7671 36.2001 24.7677 36.2615 24.7683H36.2617C36.4632 24.7703 36.6627 24.7724 36.8211 24.709C36.8227 24.5206 36.7749 24.3809 36.7315 24.254C36.6515 24.0203 36.5864 23.83 36.8722 23.4589C36.8765 23.4512 36.8827 23.4414 36.8901 23.4297C36.9429 23.3462 37.0576 23.1648 36.9956 22.9508C36.983 22.9199 36.9705 22.8892 36.9583 22.859L36.9577 22.8574C36.9526 22.8477 36.95 22.8413 36.9497 22.8379C36.8822 22.6712 36.8219 22.5257 36.7692 22.4766C36.7449 22.4334 36.6699 22.383 36.5941 22.3322C36.5227 22.2843 36.4507 22.2359 36.4194 22.1924C36.2678 21.9937 36.1438 21.9452 36.0098 21.8929C35.9286 21.8611 35.8437 21.828 35.7469 21.7591C35.4538 21.5505 35.4111 21.482 35.3762 21.4259C35.3505 21.3846 35.3289 21.35 35.2148 21.2712C35.2156 21.2992 35.216 21.3282 35.2164 21.3579L35.2164 21.3582ZM39.0848 30.5825C39.2671 30.5062 39.4691 30.4215 39.6634 30.5257C39.6823 30.5466 39.7032 30.5689 39.7256 30.5927C39.865 30.741 40.059 30.9473 40.142 31.2133C40.1683 31.2975 40.1964 31.377 40.2237 31.4543C40.3322 31.7615 40.4287 32.0346 40.3517 32.4333C40.315 32.6227 40.2699 32.7756 40.2281 32.9173C40.133 33.2397 40.055 33.5042 40.133 34.0086C40.174 34.2737 40.1206 34.5546 40.0459 34.7929C39.8803 34.7802 39.6726 34.8008 39.4613 34.8217C39.1235 34.8551 38.7768 34.8893 38.579 34.7902C38.5528 34.6509 38.5839 34.5452 38.6147 34.4401C38.668 34.2588 38.7207 34.0791 38.4779 33.7312C38.2244 33.3679 37.4522 33.3897 37.2236 33.5026C36.8812 33.6717 36.4823 34.0547 36.6783 34.4239C36.6934 34.4524 36.7134 34.4841 36.7347 34.5177C36.8374 34.6802 36.9694 34.889 36.719 35.0068C36.5353 35.0931 36.0334 35.0656 35.677 35.0461C35.5555 35.0395 35.4509 35.0338 35.3816 35.0338C35.381 34.9496 35.3842 34.8518 35.3877 34.7459C35.4079 34.1254 35.4371 33.2287 34.7612 33.1926C34.6553 33.1869 34.5957 33.2114 34.5304 33.2383C34.44 33.2754 34.3388 33.3171 34.0887 33.2891C33.9031 33.036 33.8491 32.6543 33.9426 32.3381C33.9617 32.2734 33.9928 32.2317 34.0227 32.1917C34.044 32.1631 34.0648 32.1353 34.0801 32.1006C34.1558 32.0966 34.2602 32.111 34.3744 32.1269C34.6508 32.1652 34.9846 32.2115 35.1091 32.0223L35.2853 31.8058C35.3591 31.665 35.3671 31.1666 35.3735 30.765C35.3768 30.5638 35.3796 30.3869 35.3901 30.2916L36.5136 30.2923C36.6179 30.4666 36.6263 30.6569 36.635 30.8509C36.6486 31.1585 36.6627 31.4755 37.06 31.7529C37.403 31.9923 37.822 32.0546 38.2334 31.8958C38.351 31.8504 38.5846 31.6387 38.6549 31.5076C38.7573 31.3165 38.758 31.1197 38.7585 30.9633C38.759 30.8038 38.7594 30.6864 38.8675 30.6598C38.9351 30.6453 39.0083 30.6146 39.0848 30.5825ZM39.7064 35.3431C39.7524 35.3417 39.7919 35.3404 39.8231 35.3397C39.7815 35.4258 39.7312 35.4922 39.6712 35.5653C39.6259 35.6206 39.5165 35.8343 39.3842 36.0927C39.1585 36.5335 38.8663 37.1042 38.7125 37.2397C38.6101 37.3298 38.5594 37.4537 38.5047 37.5872C38.4291 37.7718 38.346 37.9748 38.1082 38.132C38.0187 38.1911 37.2169 38.8935 37.1656 38.9769C36.7406 39.6673 36.3938 39.7217 36.1 39.7677C35.9603 39.7896 35.8326 39.8097 35.7142 39.8954C35.6275 39.9582 35.5461 40.0062 35.4683 40.0438C35.4624 39.9412 35.4525 39.8406 35.4427 39.7415C35.432 39.6338 35.4216 39.5279 35.4166 39.4232C35.4134 39.3554 35.4067 39.2832 35.4001 39.2118C35.3739 38.9288 35.349 38.6598 35.547 38.7414C35.8096 38.8494 36.4144 38.8667 36.653 38.5287C36.758 38.3799 36.8093 38.2984 36.8421 38.0965C36.9281 37.5675 36.7648 36.8013 36.1073 36.7746C35.8101 36.7626 35.7428 36.803 35.6519 36.8577C35.6343 36.8684 35.6158 36.8795 35.5945 36.8909C35.311 36.6172 35.3175 35.8447 35.3786 35.508C35.4312 35.5031 35.4795 35.4972 35.5263 35.4915C35.6227 35.4797 35.7129 35.4687 35.8216 35.4688C36.0522 35.469 37.1184 35.4137 37.2347 35.183C37.3652 34.9241 37.2942 34.7441 37.2237 34.5654C37.1717 34.4336 37.12 34.3024 37.1495 34.1407C37.1651 34.0549 37.2146 33.9819 37.359 33.9135C37.5963 33.8011 37.8486 33.8699 38.0691 33.9636C38.3242 34.0719 38.2475 34.2948 38.1643 34.5366C38.0786 34.7854 37.986 35.0544 38.2406 35.2396C38.4368 35.3824 39.3111 35.3553 39.7064 35.3431ZM34.8664 39.9371C34.866 40.0281 34.8655 40.1217 34.8712 40.2092C34.775 40.2275 34.6774 40.2488 34.5739 40.2847C34.4511 40.3273 33.9046 40.3211 33.7851 40.2806C33.6492 40.2345 33.2863 40.2484 33.1707 40.2778C33.1686 40.2784 33.1646 40.2798 33.1587 40.2819C33.1536 40.2838 33.1472 40.2862 33.1394 40.2891C32.9966 40.3429 32.4172 40.5611 31.9574 40.4378C30.941 40.1653 30.6778 39.6062 30.5836 39.406C30.5747 39.3872 30.5674 39.3716 30.561 39.3596V35.4011C30.6602 35.3968 30.7668 35.3832 30.8776 35.369C31.1606 35.3328 31.4717 35.2931 31.7606 35.3951C31.763 35.5204 31.6989 35.6061 31.6281 35.7009C31.5105 35.8583 31.3744 36.0405 31.4944 36.4698C31.6758 37.0604 32.5708 37.2279 32.9875 36.9765L32.9962 36.9706C33.1234 36.8854 33.2886 36.7747 33.3642 36.5784C33.4851 36.264 33.4162 36.0963 33.3525 35.9411C33.3192 35.86 33.2874 35.7824 33.2846 35.689C33.573 35.6051 33.6832 35.6036 33.9806 35.5997L34.003 35.5994C34.0987 35.5981 34.1979 35.5921 34.3001 35.5858C34.4438 35.5771 34.5934 35.5679 34.7479 35.5712C34.7492 35.6429 34.7499 35.7131 34.7506 35.7821C34.7542 36.1361 34.7575 36.4559 34.8364 36.7622C34.8554 36.8359 34.8685 36.9016 34.8801 36.9601C34.9349 37.2345 34.958 37.3507 35.4084 37.3949C35.4646 37.4004 35.5531 37.3787 35.6552 37.3537C35.8996 37.2938 36.2219 37.2147 36.3662 37.4429C36.4363 37.5537 36.59 38.3294 36.1068 38.3625C35.8163 38.3825 35.783 38.3628 35.7115 38.3204C35.6757 38.2992 35.6303 38.2723 35.5383 38.2418C35.3506 38.1797 35.1703 38.2503 35.0477 38.3445C34.726 38.5916 34.8087 39.2583 34.856 39.6244C34.8675 39.7134 34.867 39.8232 34.8664 39.9371ZM32.1781 35.5514C32.3949 34.9325 31.272 34.8913 30.561 34.906V30.2165C30.6474 30.2291 30.743 30.2235 30.8378 30.218C30.8715 30.2161 30.9051 30.2141 30.9381 30.213C31.0113 30.2105 31.1006 30.2144 31.1972 30.2186H31.1977C31.5405 30.2336 31.9753 30.2527 32.113 30.005C32.2277 29.7986 32.1218 29.6816 32.003 29.5501C31.9006 29.4369 31.7886 29.313 31.7995 29.1122C31.8291 28.5641 32.84 28.4021 33.1413 28.9532C33.248 29.1482 33.2036 29.2886 33.1546 29.4441C33.1362 29.5023 33.1172 29.5626 33.1051 29.6286C32.987 30.2758 33.8328 30.2569 34.4612 30.2428C34.6355 30.2389 34.7932 30.2354 34.9089 30.2466C34.9604 30.6189 34.929 31.2561 34.8336 31.6534C34.7803 31.8751 34.5532 31.8234 34.2983 31.7654C34.0914 31.7183 33.8662 31.6671 33.7007 31.7543C33.5 31.86 33.3526 32.2182 33.3042 32.4481C33.2743 32.6802 33.3367 33.1755 33.4681 33.3425C33.8041 33.7696 34.0908 33.7571 34.3157 33.7473C34.4125 33.7431 34.4978 33.7394 34.5707 33.7715C34.7279 33.8407 34.7311 34.0636 34.7336 34.2403C34.7342 34.2892 34.7349 34.3346 34.7387 34.3722C34.7483 34.4654 34.7468 34.5571 34.7453 34.6498C34.7449 34.6776 34.7444 34.7056 34.7442 34.7337C34.7441 34.7684 34.7442 34.8001 34.7443 34.8288C34.7449 34.9665 34.7451 35.0383 34.7088 35.0753C34.6693 35.1155 34.5864 35.1146 34.4135 35.1127H34.4128C34.3467 35.112 34.2674 35.1111 34.1725 35.1124C34.1105 35.1132 34.0464 35.1123 33.9813 35.1114C33.7051 35.1077 33.411 35.1038 33.1865 35.2254C32.8197 35.4241 32.8986 35.634 32.9922 35.883C33.0507 36.0384 33.1148 36.2091 33.0797 36.4019C32.9868 36.9122 31.7035 36.8411 32.0414 35.9528L32.1781 35.5514ZM30.5679 29.768L30.561 29.7677V25.3001C30.6226 25.308 30.6855 25.3103 30.7444 25.3033C30.913 25.2831 31.5549 25.2538 31.7314 25.2669C31.7438 25.3876 31.7046 25.455 31.661 25.53C31.6208 25.5992 31.5768 25.675 31.566 25.8051C31.478 26.8696 33.1133 27.1193 33.5321 26.4449C33.5717 26.381 33.584 26.3339 33.5994 26.2747L33.5995 26.2744C33.6043 26.2558 33.6095 26.2359 33.6159 26.214C33.6936 25.9496 33.6379 25.7202 33.5867 25.5097C33.559 25.3959 33.5326 25.2876 33.5294 25.1823C33.7803 25.1646 34.6044 25.1751 34.8824 25.2052C34.8837 25.286 34.8829 25.3814 34.8819 25.4856C34.8777 25.9677 34.8718 26.6384 35.0685 26.9246C35.2556 27.197 35.4948 27.1052 35.7302 27.0148C35.8044 26.9863 35.8783 26.958 35.95 26.9413C36.5396 26.8037 36.4328 27.8748 36.2201 28.1237C36.0761 28.1348 35.9373 28.0877 35.8006 28.0414C35.5906 27.9701 35.3856 27.9005 35.1747 28.0468C34.8514 28.271 34.8197 28.589 34.8761 29.0161C34.8994 29.1923 34.9068 29.3823 34.9144 29.5743L34.9144 29.5745C34.9178 29.6603 34.9211 29.7465 34.926 29.832C34.7634 29.8264 34.6261 29.8342 34.4885 29.842H34.4882C34.404 29.8468 34.3196 29.8516 34.2292 29.8533C34.2045 29.8537 34.1719 29.8555 34.1342 29.8575C33.9358 29.8681 33.6003 29.886 33.5738 29.7616C33.5382 29.5944 33.5736 29.4725 33.6081 29.3532C33.6663 29.1526 33.7223 28.9597 33.4346 28.5718C33.193 28.2462 32.8876 28.2314 32.4379 28.2466C31.8833 28.2654 31.3272 28.7304 31.4589 29.2686C31.4919 29.4033 31.5435 29.4715 31.5889 29.5314C31.6342 29.5911 31.6733 29.6427 31.6813 29.7439C31.4229 29.841 31.1681 29.8174 30.8901 29.7916C30.7864 29.782 30.6794 29.772 30.5679 29.768ZM30.561 21.7578V24.7278C30.8914 24.725 31.3293 24.7351 31.5544 24.7432C31.5828 24.7442 31.6148 24.7447 31.6493 24.7452C31.9185 24.7492 32.3373 24.7553 32.3655 25.0454C32.3813 25.2078 32.3335 25.3516 32.2872 25.4909C32.2273 25.6711 32.1699 25.8439 32.2558 26.0401C32.3622 26.2833 32.8716 26.306 33.0394 26.0618C33.1856 25.8491 33.1196 25.5872 33.0629 25.3622C33.0213 25.1969 32.9847 25.0515 33.041 24.9602C33.1286 24.818 33.2034 24.8045 33.3455 24.7936C33.4401 24.7863 33.6339 24.7927 33.8492 24.7997C34.24 24.8125 34.7017 24.8276 34.7697 24.7677C34.8299 24.7148 34.8802 23.8793 34.8694 23.7436C34.8678 23.7237 34.8671 23.7011 34.8662 23.6771C34.8626 23.5706 34.8581 23.4376 34.778 23.3997C34.6443 23.3365 34.4637 23.3575 34.3012 23.3765C34.2477 23.3827 34.1962 23.3887 34.149 23.3914C33.1635 23.4479 32.9073 22.0525 33.7429 21.5126C33.9392 21.3857 34.3119 21.4508 34.5249 21.5367C34.5562 21.5493 34.5784 21.5601 34.5966 21.5689C34.6524 21.5959 34.6711 21.605 34.7983 21.5946C34.835 21.4776 34.8683 21.0966 34.8454 20.9651C34.8084 20.9539 34.7749 20.9433 34.744 20.9335C34.5808 20.8817 34.4926 20.8536 34.3633 20.9047C34.0804 21.0165 33.9208 20.8988 33.7516 20.7741C33.7086 20.7424 33.6651 20.7102 33.6187 20.6813C33.5201 20.6035 33.435 20.5013 33.3554 20.4056L33.343 20.3907C33.2824 20.318 33.2116 20.2859 33.1345 20.251C33.1045 20.2374 33.0735 20.2233 33.0418 20.2063L32.5879 19.9473C32.4393 19.8946 32.2721 19.892 32.1128 19.8895C31.9794 19.8874 31.8515 19.8854 31.7449 19.854C31.2541 19.7098 31.096 20.1946 30.9792 20.5528C30.9451 20.6572 30.9146 20.7508 30.8804 20.815C30.8052 20.9561 30.775 21.0875 30.7428 21.2278C30.7068 21.3849 30.6682 21.553 30.561 21.7578Z" fill="white"/>
<path fill-rule="evenodd" clip-rule="evenodd" d="M43.5018 20.9806C43.5976 21.0577 43.8889 21.1314 44.044 21.1284C44.1929 21.1256 44.2986 21.1217 44.3815 21.1187C44.6239 21.1099 44.6708 21.1082 45.029 21.1593C45.1984 21.2979 45.1917 21.5989 45.1878 21.7705C45.1866 21.8257 45.1857 21.8676 45.191 21.8863C45.1883 22.0262 45.1931 22.151 45.1975 22.2659C45.2124 22.6544 45.223 22.9298 44.9239 23.2975C44.7807 23.4735 44.4541 23.4325 44.1836 23.3985C44.0722 23.3845 43.9704 23.3718 43.8949 23.3758C43.8795 23.4105 43.8588 23.4383 43.8375 23.4669C43.8076 23.5069 43.7765 23.5486 43.7573 23.6133C43.6639 23.9295 43.7179 24.3112 43.9035 24.5643C44.1536 24.5923 44.2548 24.5506 44.3452 24.5135C44.4105 24.4866 44.4701 24.4621 44.576 24.4678C45.4532 24.5147 45.2189 26.0092 45.1248 26.6089C45.1087 26.7118 45.0967 26.7884 45.0951 26.8268C45.0579 26.8286 45.0169 26.8306 44.9727 26.8327C44.4538 26.8577 43.5007 26.9037 43.0994 27.0205C43.107 27.1218 43.1387 27.2013 43.17 27.2798C43.229 27.4279 43.2867 27.5726 43.1789 27.8536C43.1077 28.0393 43.0019 28.1907 42.8726 28.2703C42.3117 28.6155 41.2545 28.2398 41.2933 27.4194C41.3013 27.249 41.3718 27.1442 41.4402 27.0422C41.5104 26.9377 41.5786 26.8362 41.5754 26.6703C41.2099 26.5412 40.8567 26.5852 40.5306 26.6258C40.2658 26.6588 40.0189 26.6896 39.7979 26.6235C39.7904 26.6213 39.7836 26.6201 39.7774 26.6189C39.7308 26.6104 39.7174 26.608 39.6987 26.2353C39.6833 25.9291 39.6972 25.092 39.7078 24.8015C39.7088 24.7734 39.7093 24.7417 39.7098 24.7075C39.7138 24.4401 39.72 24.0238 40.012 23.9959C40.1755 23.9802 40.3202 24.0276 40.4604 24.0736C40.6419 24.1331 40.8159 24.1901 41.0134 24.1048C41.2582 23.9992 41.281 23.4931 41.0353 23.3265C40.8023 23.1685 40.5289 23.241 40.3204 23.2964C40.1965 23.3293 40.0956 23.3561 40.0395 23.3249C40.0242 23.3057 40.0092 23.288 39.9948 23.2711C39.9317 23.1971 39.8807 23.1373 39.8718 23.0224C39.8579 22.8436 39.8754 21.4079 39.8922 21.3462C39.9443 21.1545 40.0021 21.0232 40.1475 21.0432C40.5545 21.099 41.1413 21.1525 41.4961 21.019C41.4881 20.9179 41.449 20.8663 41.4037 20.8065C41.3583 20.7467 41.3067 20.6785 41.2737 20.5438C41.1419 20.0056 41.6981 19.5406 42.2527 19.5218C42.8107 19.5029 43.3951 19.6656 43.4788 20.2962C43.4912 20.3896 43.4885 20.4943 43.4858 20.6012C43.4825 20.7296 43.4792 20.8613 43.5018 20.9806ZM40.4255 21.4942C40.3885 21.4974 40.3555 21.5003 40.3014 21.499C40.3183 21.702 40.327 22.0519 40.3028 22.2803C40.2972 22.3331 40.2921 22.376 40.2876 22.4133C40.2704 22.5573 40.2633 22.6168 40.2787 22.8327C40.3884 22.8294 40.4842 22.8025 40.5815 22.7752C40.7522 22.7272 40.9272 22.678 41.1885 22.7538C41.2107 22.7602 41.2307 22.7653 41.2496 22.7702C41.3092 22.7855 41.3568 22.7977 41.421 22.8371C42.0973 23.2513 41.8683 24.8614 40.9326 24.8125C40.8181 24.8032 40.7474 24.7647 40.6742 24.7248C40.5731 24.6696 40.4673 24.6119 40.235 24.6256C40.204 24.8502 40.2277 25.0822 40.2512 25.3105C40.2801 25.5926 40.3084 25.8691 40.2323 26.1196C40.9169 26.0976 42.227 26.1583 41.9929 26.8266C41.9719 26.8903 41.9607 26.9304 41.951 26.9652C41.9327 27.0309 41.9197 27.0774 41.8562 27.228C41.7405 27.5026 41.8143 27.8537 42.1179 27.9553C42.4209 28.0567 42.844 27.9545 42.8945 27.6771C42.9296 27.4843 42.8654 27.3136 42.807 27.1582C42.7134 26.9092 42.6345 26.6993 43.0012 26.5006C43.2293 26.377 43.5096 26.3817 43.7842 26.3862C43.8525 26.3873 43.9205 26.3884 43.9873 26.3875C44.3543 26.3828 44.4898 26.3964 44.5378 26.3391C44.577 26.2923 44.558 26.1984 44.559 26.0089C44.5592 25.9808 44.5596 25.9528 44.5601 25.925C44.5616 25.8323 44.5631 25.7406 44.5535 25.6474C44.5497 25.6098 44.549 25.5644 44.5483 25.5155C44.5458 25.3388 44.5427 25.1159 44.3855 25.0467C44.3127 25.0146 44.2244 25.0183 44.1234 25.0225C43.8887 25.0323 43.5854 25.0449 43.2493 24.6177C43.1179 24.4507 43.0891 23.9553 43.119 23.7233C43.1621 23.519 43.3043 23.1407 43.5154 23.0295C43.681 22.9423 43.9062 22.9935 44.1131 23.0406C44.368 23.0986 44.5951 23.1502 44.6483 22.9286C44.7438 22.5313 44.7751 21.8941 44.7236 21.5218C44.608 21.5106 44.4504 21.5141 44.276 21.518C43.6476 21.5321 42.8018 21.551 42.9199 20.9037C42.9311 20.8427 42.9482 20.783 42.9652 20.7236C43.0158 20.5469 43.0657 20.3726 42.9561 20.1722C42.6504 19.6132 41.6435 19.7906 41.6142 20.3311C41.6033 20.5337 41.7141 20.6684 41.8162 20.7925C41.9365 20.9386 42.0446 21.07 41.9278 21.2802C41.8603 21.4016 41.8024 21.4213 41.655 21.4579C41.4275 21.5145 41.1798 21.5046 40.9269 21.4944C40.7912 21.489 40.6541 21.4835 40.5177 21.4882C40.4793 21.4895 40.4514 21.4919 40.4255 21.4942Z" fill="white"/>
<path d="M34 86C34 88.2091 32.2091 90 30 90C27.7909 90 26 88.2091 26 86C26 83.7909 27.7909 82 30 82C32.2091 82 34 83.7909 34 86Z" fill="white"/>
<path d="M32 86C32 87.1046 31.1046 88 30 88C28.8954 88 28 87.1046 28 86C28 84.8954 28.8954 84 30 84C31.1046 84 32 84.8954 32 86Z" fill="#7422D4"/>
</g>
<defs>
<clipPath id="clip0_3757_9491">
<rect width="60" height="90" fill="white"/>
</clipPath>
</defs>
</svg>
