<svg width="32" height="32" viewBox="0 0 32 32" fill="none" xmlns="http://www.w3.org/2000/svg">
<g id="cash">
<path id="Vector" d="M22.6667 12.0003V9.33366C22.6667 8.62641 22.3857 7.94814 21.8856 7.44804C21.3855 6.94794 20.7072 6.66699 20 6.66699H6.66667C5.95942 6.66699 5.28115 6.94794 4.78105 7.44804C4.28095 7.94814 4 8.62641 4 9.33366V17.3337C4 18.0409 4.28095 18.7192 4.78105 19.2193C5.28115 19.7194 5.95942 20.0003 6.66667 20.0003H9.33333M9.33301 14.6667C9.33301 13.9594 9.61396 13.2811 10.1141 12.781C10.6142 12.281 11.2924 12 11.9997 12H25.333C26.0403 12 26.7185 12.281 27.2186 12.781C27.7187 13.2811 27.9997 13.9594 27.9997 14.6667V22.6667C27.9997 23.3739 27.7187 24.0522 27.2186 24.5523C26.7185 25.0524 26.0403 25.3333 25.333 25.3333H11.9997C11.2924 25.3333 10.6142 25.0524 10.1141 24.5523C9.61396 24.0522 9.33301 23.3739 9.33301 22.6667V14.6667ZM16 18.667C16 19.3742 16.281 20.0525 16.781 20.5526C17.2811 21.0527 17.9594 21.3337 18.6667 21.3337C19.3739 21.3337 20.0522 21.0527 20.5523 20.5526C21.0524 20.0525 21.3333 19.3742 21.3333 18.667C21.3333 17.9597 21.0524 17.2815 20.5523 16.7814C20.0522 16.2813 19.3739 16.0003 18.6667 16.0003C17.9594 16.0003 17.2811 16.2813 16.781 16.7814C16.281 17.2815 16 17.9597 16 18.667Z" stroke="url(#paint0_linear_2888_6894)" stroke-width="2" stroke-linecap="round" stroke-linejoin="round"/>
</g>
<defs>
<linearGradient id="paint0_linear_2888_6894" x1="4" y1="25.3217" x2="28.9384" y2="23.9337" gradientUnits="userSpaceOnUse">
<stop stop-color="#8742DB"/>
<stop offset="1" stop-color="#D641DD"/>
</linearGradient>
</defs>
</svg>
