<svg width="83" height="82" viewBox="0 0 83 82" fill="none" xmlns="http://www.w3.org/2000/svg">
<g id="customer-support_3514440 1" clip-path="url(#clip0_2329_3673)">
<path id="Union" fill-rule="evenodd" clip-rule="evenodd" d="M16.2817 25.728C16.2817 11.5398 27.7835 0.0380859 41.9716 0.0380859C56.1597 0.0380859 67.6615 11.5398 67.6615 25.728V28.5824H72.0159C73.6727 28.5824 75.0159 29.9255 75.0159 31.5824V39.5191C75.0159 41.176 73.6727 42.5191 72.0159 42.5191H66.6615H57.0046C54.0168 46.8999 48.9858 49.776 43.283 49.776H41.8547C31.8994 49.776 23.8291 41.7057 23.8291 31.7504V27.3278C23.8291 24.5663 26.0676 22.3278 28.8291 22.3278H49.0294C55.0222 22.3278 59.8803 27.1859 59.8803 33.1787C59.8803 35.8141 59.2661 38.306 58.173 40.5191H65.6615V29.5824V28.5824V25.728C65.6615 12.6444 55.0551 2.03809 41.9716 2.03809C28.888 2.03809 18.2817 12.6444 18.2817 25.728V29.5824V41.5191V42.5191H17.2817H11.9273C10.2704 42.5191 8.92729 41.176 8.92729 39.5191V31.5824C8.92729 29.9255 10.2704 28.5824 11.9273 28.5824H16.2817V25.728ZM55.9032 40.5191C57.1602 38.3626 57.8803 35.8548 57.8803 33.1787C57.8803 28.2905 53.9176 24.3278 49.0294 24.3278H28.8291C27.1722 24.3278 25.8291 25.6709 25.8291 27.3278V31.7504C25.8291 40.6011 33.004 47.776 41.8547 47.776H43.283C47.7921 47.776 51.8236 45.7316 54.5013 42.5191H49.6598C49.2266 44.018 47.8442 45.114 46.2058 45.114H43.7754C41.6466 45.114 39.921 43.3884 39.921 41.2596C39.921 39.1309 41.6466 37.4052 43.7754 37.4052H45.6868C47.6139 37.4052 49.2316 38.7303 49.6783 40.5191H55.9032ZM16.2817 30.5824H11.9273C11.375 30.5824 10.9273 31.0301 10.9273 31.5824V39.5191C10.9273 40.0714 11.375 40.5191 11.9273 40.5191H16.2817V30.5824ZM67.6615 40.5191H72.0159C72.5682 40.5191 73.0159 40.0714 73.0159 39.5191V31.5824C73.0159 31.0301 72.5682 30.5824 72.0159 30.5824H67.6615V40.5191ZM43.7754 39.4052C42.7512 39.4052 41.921 40.2354 41.921 41.2596C41.921 42.2838 42.7512 43.114 43.7754 43.114H46.2058C47.0866 43.114 47.8007 42.4 47.8007 41.5191C47.8007 40.3516 46.8543 39.4052 45.6868 39.4052H43.7754ZM20.7692 54.0174C16.9032 54.0174 13.7692 57.1514 13.7692 61.0174V80.2933H69.9402V61.0174C69.9402 57.1514 66.8062 54.0174 62.9402 54.0174H56.159L51.0748 62.1688C47.4068 68.0496 39.014 68.5063 34.7295 63.0583L27.6194 54.0174H20.7692ZM11.7692 61.0174C11.7692 56.0468 15.7987 52.0174 20.7692 52.0174H27.6194C28.2329 52.0174 28.8123 52.2989 29.1915 52.7811L36.3016 61.822C39.7292 66.1804 46.4435 65.815 49.3778 61.1104L54.4621 52.959C54.8274 52.3733 55.4688 52.0174 56.159 52.0174H62.9402C67.9107 52.0174 71.9402 56.0469 71.9402 61.0174V80.2933C71.9402 81.3979 71.0447 82.2933 69.9402 82.2933H13.7692C12.6647 82.2933 11.7692 81.3979 11.7692 80.2933V61.0174Z" fill="url(#paint0_linear_2329_3673)"/>
</g>
<defs>
<linearGradient id="paint0_linear_2329_3673" x1="8.92729" y1="82.2421" x2="77.7303" y2="79.8491" gradientUnits="userSpaceOnUse">
<stop stop-color="#8742DB"/>
<stop offset="1" stop-color="#D641DD"/>
</linearGradient>
<clipPath id="clip0_2329_3673">
<rect width="83" height="82" fill="white"/>
</clipPath>
</defs>
</svg>
