<svg width="32" height="32" viewBox="0 0 32 32" fill="none" xmlns="http://www.w3.org/2000/svg">
<g id="gift">
<path id="Vector" d="M16 7.33333V10.6667M16 7.33333C16 6.67406 16.1955 6.0296 16.5618 5.48143C16.928 4.93327 17.4486 4.50603 18.0577 4.25374C18.6668 4.00144 19.337 3.93543 19.9836 4.06405C20.6302 4.19267 21.2242 4.51014 21.6904 4.97631C22.1565 5.44249 22.474 6.03643 22.6026 6.68303C22.7312 7.32964 22.6652 7.99986 22.4129 8.60895C22.1606 9.21803 21.7334 9.73863 21.1852 10.1049C20.6371 10.4712 19.9926 10.6667 19.3333 10.6667M16 7.33333C16 6.67406 15.8045 6.0296 15.4382 5.48143C15.072 4.93327 14.5514 4.50603 13.9423 4.25374C13.3332 4.00144 12.663 3.93543 12.0164 4.06405C11.3698 4.19267 10.7758 4.51014 10.3096 4.97631C9.84347 5.44249 9.526 6.03643 9.39738 6.68303C9.26876 7.32964 9.33478 7.99986 9.58707 8.60895C9.83936 9.21803 10.2666 9.73863 10.8148 10.1049C11.3629 10.4712 12.0074 10.6667 12.6667 10.6667M16 10.6667H19.3333M16 10.6667H12.6667M16 10.6667V18.6667M19.3333 10.6667H23.7333C25.2267 10.6667 25.9733 10.6667 26.5427 10.9573C27.0453 11.2133 27.4533 11.62 27.7093 12.1227C28 12.692 28 13.4387 28 14.9293V18.6667M12.6667 10.6667H8.26667C6.77333 10.6667 6.02667 10.6667 5.456 10.9573C4.9542 11.2129 4.54625 11.6209 4.29067 12.1227C4 12.6933 4 13.44 4 14.9333V18.6667M16 18.6667H4M16 18.6667V26.6667M16 18.6667H28M28 18.6667V22.4053C28 23.896 28 24.64 27.7093 25.2107C27.4533 25.712 27.0453 26.12 26.5427 26.376C25.9733 26.6667 25.228 26.6667 23.7373 26.6667H16M4 18.6667V22.4C4 23.8933 4 24.64 4.29067 25.2107C4.54633 25.7124 4.95426 26.1203 5.456 26.376C6.02533 26.6667 6.772 26.6667 8.26267 26.6667H16" stroke="url(#paint0_linear_2888_6886)" stroke-width="1.5" stroke-linecap="round" stroke-linejoin="round"/>
</g>
<defs>
<linearGradient id="paint0_linear_2888_6886" x1="4" y1="26.6526" x2="28.9635" y2="25.5084" gradientUnits="userSpaceOnUse">
<stop stop-color="#8742DB"/>
<stop offset="1" stop-color="#D641DD"/>
</linearGradient>
</defs>
</svg>
