<svg width="24" height="24" viewBox="0 0 24 24" fill="none" xmlns="http://www.w3.org/2000/svg">
<g id="icon">
<path id="Vector (Stroke)" d="M10.7914 1.48773C11.1747 1.32903 11.5856 1.24758 12.0005 1.24805C12.8085 1.24817 13.6184 1.55776 14.2344 2.17372L15.8024 3.74172C15.865 3.80438 15.9534 3.83296 16.0381 3.8203C16.0904 3.81245 16.158 3.78399 16.2402 3.69995C16.3258 3.61243 16.4082 3.48163 16.4698 3.3228L16.4702 3.32179C16.6663 2.81835 16.9849 2.37175 17.3971 2.0224C17.8092 1.67304 18.302 1.43195 18.8307 1.32094C19.3595 1.20992 19.9076 1.23248 20.4254 1.38658C20.9433 1.54068 21.4146 1.82145 21.7966 2.2035C22.1786 2.58554 22.4594 3.05681 22.6135 3.57466C22.7676 4.09251 22.7902 4.64061 22.6792 5.16938C22.5681 5.69815 22.3271 6.19089 21.9777 6.60304C21.6283 7.0152 21.1817 7.33375 20.6783 7.52989L20.6773 7.53028C20.518 7.59209 20.3872 7.67444 20.3001 7.75961C20.2165 7.84129 20.1886 7.90845 20.181 7.95991L20.1805 7.96288C20.1676 8.04766 20.196 8.1353 20.2584 8.19772L21.8264 9.76572C22.4425 10.3818 22.7521 11.1919 22.7521 12C22.7521 12.8079 22.4436 13.6171 21.8264 14.2344L20.2154 15.8454C20.0242 16.0363 19.7908 16.1801 19.5342 16.2647C19.2776 16.3493 19.0048 16.3727 18.7376 16.3329C17.876 16.2046 17.3863 15.4882 17.1773 14.9282L17.1767 14.9266C17.0748 14.6513 16.9052 14.406 16.6837 14.2134C16.4621 14.0208 16.1957 13.8869 15.9089 13.8242C15.036 13.6835 14.4703 14.0805 14.2966 14.2966C14.089 14.5042 13.937 14.7607 13.8544 15.0424C13.7719 15.3241 13.7615 15.6221 13.8242 15.9089C13.8869 16.1957 14.0208 16.4621 14.2134 16.6837C14.406 16.9052 14.6513 17.0748 14.9266 17.1767C16.7592 17.742 16.5823 18.9839 16.2648 19.5342C16.1802 19.791 16.0365 20.0243 15.8454 20.2154L14.2363 21.8245L13.0814 22.6792C11.6744 23.1098 10.9679 22.7471 10.7905 22.512C10.407 22.3531 10.0581 22.1195 9.76495 21.8256L8.19725 20.2579C8.16676 20.2274 8.12953 20.2044 8.08856 20.1909C8.04777 20.1774 8.00439 20.1736 7.96189 20.1798C7.90967 20.1878 7.84184 20.2164 7.75992 20.3001C7.67434 20.3877 7.5919 20.5185 7.53028 20.6773L7.52989 20.6783C7.33375 21.1817 7.0152 21.6283 6.60304 21.9777C6.19089 22.3271 5.69815 22.5681 5.16938 22.6792C4.64061 22.7902 4.09251 22.7676 3.57466 22.6135C3.05681 22.4594 2.58554 22.1786 2.2035 21.7966C1.82145 21.4146 1.54068 20.9433 1.38658 20.4254C1.23248 19.9076 1.20992 19.3595 1.32094 18.8307C1.43195 18.302 1.67304 17.8092 2.0224 17.3971C2.37175 16.9849 2.81835 16.6663 3.32179 16.4702L3.3228 16.4698C3.48167 16.4082 3.61235 16.3258 3.69963 16.2404C3.78341 16.1584 3.81149 16.0909 3.81914 16.0392L3.8193 16.0381C3.82568 15.9955 3.82197 15.9519 3.80847 15.9109C3.79496 15.87 3.77205 15.8327 3.74155 15.8022L2.17433 14.235C1.88026 13.9417 1.64705 13.5933 1.48809 13.2096C1.32916 12.826 1.24758 12.4148 1.24805 11.9996C1.24817 11.1916 1.55776 10.3817 2.17372 9.76572L3.69972 8.23972C4.10731 7.83212 4.68635 7.64023 5.25795 7.72529C6.16368 7.86071 6.68024 8.61794 6.91463 9.19411C7.02363 9.46121 7.19696 9.69722 7.41922 9.88115C7.64156 10.0651 7.90595 10.1913 8.18884 10.2484C8.47174 10.3054 8.76436 10.2917 9.04064 10.2083C9.31692 10.1249 9.56829 9.97442 9.77235 9.77035C9.97642 9.56629 10.1269 9.31492 10.2103 9.03864C10.2937 8.76236 10.3074 8.46974 10.2504 8.18684C10.1933 7.90395 10.0671 7.63956 9.88315 7.41722C9.69915 7.19488 9.46376 7.02179 9.19653 6.9128C8.62031 6.67849 7.86267 6.1614 7.72722 5.25544C7.64224 4.68437 7.83274 4.10669 8.24172 3.69772L9.76654 2.1729C10.0597 1.87928 10.408 1.64644 10.7914 1.48773Z" fill="white" fill-opacity="0.6"/>
</g>
</svg>
