<svg width="32" height="32" viewBox="0 0 32 32" fill="none" xmlns="http://www.w3.org/2000/svg">
<g id="people">
<path id="Vector" d="M6.87502 10.5L7.87243 10.4281L7.87242 10.428L6.87502 10.5ZM15.125 10.5L14.1275 10.4293L14.1275 10.4294L15.125 10.5ZM19.9713 24.9631L19.0009 25.2048L19.001 25.2051L19.9713 24.9631ZM2.02814 24.9631L2.99924 25.2018L2.99939 25.2012L2.02814 24.9631ZM19.5 11.6213L20.4974 11.5494L20.4974 11.5494L19.5 11.6213ZM26.125 11.6213L27.1225 11.6919L27.1225 11.6918L26.125 11.6213ZM20.2767 18.2442C19.7903 18.5057 19.6079 19.1121 19.8695 19.5985C20.131 20.085 20.7373 20.2673 21.2238 20.0058L20.2767 18.2442ZM29.9781 23.1719L30.9488 22.9314L30.9485 22.93L29.9781 23.1719ZM24.0002 23C23.448 23 23.0002 23.4477 23.0002 24C23.0002 24.5523 23.448 25 24.0002 25V23ZM5.8776 10.5719C6.08865 13.5014 8.29369 16 11 16V14C9.59384 14 8.02763 12.5824 7.87243 10.4281L5.8776 10.5719ZM11 16C13.7053 16 15.9149 13.503 16.1225 10.5706L14.1275 10.4294C13.9751 12.582 12.4072 14 11 14V16ZM16.1225 10.5707C16.2344 8.99338 15.7419 7.58809 14.7911 6.57428C13.8428 5.56317 12.4934 5 11 5V7C11.9835 7 12.7904 7.36464 13.3322 7.94244C13.8716 8.51753 14.2032 9.36224 14.1275 10.4293L16.1225 10.5707ZM11 5C7.94293 5 5.64826 7.3962 5.87761 10.572L7.87242 10.428C7.72678 8.4113 9.10336 7 11 7V5ZM11 20C14.8101 20 18.1719 21.876 19.0009 25.2048L20.9416 24.7215C19.8082 20.1703 15.3362 18 11 18V20ZM19.001 25.2051C18.9999 25.2009 18.9934 25.165 19.0286 25.1134C19.047 25.0864 19.0769 25.0561 19.12 25.0327C19.1648 25.0083 19.2085 25 19.2388 25V27C20.5606 27 21.1943 25.7348 20.9415 24.7211L19.001 25.2051ZM19.2388 25H2.76064V27H19.2388V25ZM2.76064 25C2.791 25 2.83495 25.0083 2.88022 25.0329C2.92367 25.0566 2.95366 25.0872 2.97197 25.1141C3.00686 25.1653 2.99978 25.1996 2.99924 25.2018L1.05705 24.7244C0.809421 25.7318 1.43536 27 2.76064 27V25ZM2.99939 25.2012C3.82842 21.8191 7.18001 20 11 20V18C6.67253 18 2.19036 20.1009 1.0569 24.7251L2.99939 25.2012ZM18.5026 11.6931C18.6764 14.1049 20.5149 16.25 22.8125 16.25V14.25C21.8251 14.25 20.6162 13.1976 20.4974 11.5494L18.5026 11.6931ZM22.8125 16.25C25.1091 16.25 26.9516 14.1066 27.1225 11.6919L25.1275 11.5506C25.011 13.1972 23.801 14.25 22.8125 14.25V16.25ZM27.1225 11.6918C27.313 8.99825 25.3683 7 22.8125 7V9C24.2143 9 25.2357 10.0205 25.1275 11.5507L27.1225 11.6918ZM22.8125 7C20.2502 7 18.3117 9.04388 18.5026 11.6931L20.4974 11.5494C20.3896 10.0524 21.4173 9 22.8125 9V7ZM20.7502 19.125C21.2238 20.0058 21.2236 20.0059 21.2234 20.006C21.2234 20.006 21.2232 20.0061 21.2231 20.0062C21.2229 20.0063 21.2227 20.0064 21.2225 20.0065C21.2221 20.0067 21.2218 20.0069 21.2215 20.007C21.221 20.0073 21.2207 20.0074 21.2207 20.0074C21.2206 20.0075 21.2214 20.0071 21.2231 20.0062C21.2265 20.0044 21.2334 20.0009 21.2436 19.9957C21.2641 19.9855 21.2975 19.9692 21.3421 19.9487C21.4317 19.9076 21.5634 19.8513 21.7227 19.7948C22.053 19.6776 22.4477 19.5795 22.8125 19.5795V17.5795C22.1296 17.5795 21.4932 17.7541 21.0543 17.9098C20.829 17.9896 20.6416 18.0697 20.5082 18.1308C20.4413 18.1615 20.3873 18.1878 20.3482 18.2074C20.3286 18.2172 20.3127 18.2253 20.3007 18.2316C20.2947 18.2347 20.2897 18.2373 20.2857 18.2394C20.2837 18.2405 20.282 18.2414 20.2805 18.2422C20.2797 18.2426 20.279 18.243 20.2784 18.2433C20.2781 18.2435 20.2778 18.2436 20.2775 18.2438C20.2774 18.2439 20.2772 18.244 20.2771 18.244C20.2769 18.2441 20.2767 18.2442 20.7502 19.125ZM22.8125 19.5795C25.8467 19.5795 28.3841 20.9114 29.0078 23.4137L30.9485 22.93C30.0034 19.1386 26.2783 17.5795 22.8125 17.5795V19.5795ZM29.0075 23.4124C28.9935 23.3557 28.997 23.2682 29.0585 23.1781C29.1286 23.0755 29.2578 23 29.3925 23V25C30.6062 25 31.1736 23.8389 30.9488 22.9314L29.0075 23.4124ZM29.3925 23H24.0002V25H29.3925V23Z" fill="url(#paint0_linear_2888_6891)"/>
</g>
<defs>
<linearGradient id="paint0_linear_2888_6891" x1="2.00025" y1="25.9876" x2="31.0791" y2="24.2252" gradientUnits="userSpaceOnUse">
<stop stop-color="#8742DB"/>
<stop offset="1" stop-color="#D641DD"/>
</linearGradient>
</defs>
</svg>
