<svg width="1264" height="182" viewBox="0 0 1264 182" fill="none" xmlns="http://www.w3.org/2000/svg">
<path d="M151.311 109.2L180.156 118.205C169.023 156.761 132.966 182 92.2286 182C40.9905 182 0 141.922 0 91.0634C0 40.839 40.1049 0 92.2286 0C132.46 0 168.39 24.4781 180.156 63.922L151.311 72.8C143.72 46.2927 120.315 27.6488 92.2286 27.6488C57.4373 27.6488 31.3754 55.2976 31.3754 91.0634C31.3754 125.307 56.4252 154.478 92.2286 154.478C120.441 154.478 143.34 136.595 151.311 109.2Z" fill="url(#paint0_linear_2478_5149)" fill-opacity="0.25"/>
<path d="M354.365 27.6488C320.46 27.6488 294.145 55.4244 294.145 90.9366C294.145 124.546 317.929 154.351 354.365 154.351C388.271 154.351 414.459 126.576 414.459 90.9366C414.459 57.0732 390.675 28.0293 354.365 27.6488ZM354.365 0C404.338 0 445.329 39.8244 445.329 90.9366C445.329 141.288 405.224 182 354.365 182C309.579 182 273.27 151.561 264.414 105.141H235.063V182H204.826V0.126829H235.063V76.9854H264.414C271.752 32.3415 308.188 0.253659 354.365 0Z" fill="url(#paint1_linear_2478_5149)" fill-opacity="0.25"/>
<path d="M641.552 78.2537L728.72 182H692.157L613.719 88.1463V182H583.608V88.1463L505.17 182H468.607L555.649 78.2537L482.903 0H519.213L583.608 69.5024V0H613.719V69.5024L678.114 0H714.424L641.552 78.2537Z" fill="url(#paint2_linear_2478_5149)" fill-opacity="0.25"/>
<path d="M756.679 0.126829H880.536V28.2829H786.916V68.4878H857.511V96.6439H786.916V153.971H880.536V182H756.679V0.126829Z" fill="url(#paint3_linear_2478_5149)" fill-opacity="0.25"/>
<path d="M893.188 0H1050.44V28.2829H986.935V182H956.698V28.2829H893.188V0Z" fill="url(#paint4_linear_2478_5149)" fill-opacity="0.25"/>
<path d="M1103.07 104.761V153.971H1155.96C1169.24 153.971 1182.9 144.459 1182.9 129.239C1182.9 114.907 1170.38 104.888 1155.96 104.888L1103.07 104.761ZM1103.07 77.3659H1159.5C1189.1 77.3659 1212.51 98.5463 1212.51 129.366C1212.51 160.185 1189.61 182 1159.5 182H1072.96V0.253659H1103.07V77.3659ZM1264 0.253659V182H1233.76V0.253659H1264Z" fill="url(#paint5_linear_2478_5149)" fill-opacity="0.25"/>
<defs>
<linearGradient id="paint0_linear_2478_5149" x1="635.59" y1="-37.864" x2="635.59" y2="182" gradientUnits="userSpaceOnUse">
<stop stop-color="white"/>
<stop offset="1" stop-color="white" stop-opacity="0"/>
</linearGradient>
<linearGradient id="paint1_linear_2478_5149" x1="635.59" y1="-37.864" x2="635.59" y2="182" gradientUnits="userSpaceOnUse">
<stop stop-color="white"/>
<stop offset="1" stop-color="white" stop-opacity="0"/>
</linearGradient>
<linearGradient id="paint2_linear_2478_5149" x1="635.59" y1="-37.864" x2="635.59" y2="182" gradientUnits="userSpaceOnUse">
<stop stop-color="white"/>
<stop offset="1" stop-color="white" stop-opacity="0"/>
</linearGradient>
<linearGradient id="paint3_linear_2478_5149" x1="635.59" y1="-37.864" x2="635.59" y2="182" gradientUnits="userSpaceOnUse">
<stop stop-color="white"/>
<stop offset="1" stop-color="white" stop-opacity="0"/>
</linearGradient>
<linearGradient id="paint4_linear_2478_5149" x1="635.59" y1="-37.864" x2="635.59" y2="182" gradientUnits="userSpaceOnUse">
<stop stop-color="white"/>
<stop offset="1" stop-color="white" stop-opacity="0"/>
</linearGradient>
<linearGradient id="paint5_linear_2478_5149" x1="635.59" y1="-37.864" x2="635.59" y2="182" gradientUnits="userSpaceOnUse">
<stop stop-color="white"/>
<stop offset="1" stop-color="white" stop-opacity="0"/>
</linearGradient>
</defs>
</svg>
