<svg width="28" height="28" viewBox="0 0 28 28" fill="none" xmlns="http://www.w3.org/2000/svg">
<g id="mail">
<path id="Rectangle 4 (Stroke)" fill-rule="evenodd" clip-rule="evenodd" d="M3.4165 6.41663C3.14036 6.41663 2.9165 6.64048 2.9165 6.91663V21.0833C2.9165 21.3594 3.14036 21.5833 3.4165 21.5833H24.5832C24.8593 21.5833 25.0832 21.3594 25.0832 21.0833V6.91663C25.0832 6.64048 24.8593 6.41663 24.5832 6.41663H3.4165ZM2.33317 4.66663C1.68884 4.66663 1.1665 5.18896 1.1665 5.83329V22.1666C1.1665 22.811 1.68884 23.3333 2.33317 23.3333H25.6665C26.3108 23.3333 26.8332 22.811 26.8332 22.1666V5.83329C26.8332 5.18896 26.3108 4.66663 25.6665 4.66663H2.33317Z" fill="white"/>
<path id="Vector 12" d="M7 10.5L14 15.1667L21 10.5" stroke="white" stroke-width="1.5" stroke-linecap="round" stroke-linejoin="round"/>
</g>
</svg>
