<svg width="28" height="28" viewBox="0 0 28 28" fill="none" xmlns="http://www.w3.org/2000/svg">
<g id="pin">
<g id="Union">
<path fill-rule="evenodd" clip-rule="evenodd" d="M17.759 11.0028C17.759 13.0941 16.0763 14.7894 14.0006 14.7894C11.9248 14.7894 10.2421 13.0941 10.2421 11.0028C10.2421 8.91148 11.9248 7.21615 14.0006 7.21615C16.0763 7.21615 17.759 8.91148 17.759 11.0028ZM16.5796 11.0028C16.5796 12.451 15.4166 13.61 14.0006 13.61C12.5845 13.61 11.4215 12.451 11.4215 11.0028C11.4215 9.55451 12.5845 8.39553 14.0006 8.39553C15.4166 8.39553 16.5796 9.55451 16.5796 11.0028Z" fill="white"/>
<path fill-rule="evenodd" clip-rule="evenodd" d="M20.3343 15.9828L14 24.2559L7.66568 15.9828C5.20887 12.774 5.49894 8.22627 8.3432 5.3607C11.4674 2.21311 16.5326 2.21311 19.6568 5.3607C22.5011 8.22627 22.7911 12.774 20.3343 15.9828ZM19.404 15.2597L14 22.3178L8.59601 15.2597C6.50004 12.5222 6.74751 8.64245 9.17402 6.19775C11.8393 3.51245 16.1607 3.51245 18.826 6.19775C21.2525 8.64245 21.5 12.5222 19.404 15.2597Z" fill="white"/>
</g>
</g>
</svg>
