<svg width="80" height="80" viewBox="0 0 80 80" fill="none" xmlns="http://www.w3.org/2000/svg">
<g id="CakeIcon">
<g id="Union">
<path d="M40.9922 10C40.9922 9.44772 40.5445 9 39.9922 9C39.4399 9 38.9922 9.44772 38.9922 10V12C38.9922 12.5523 39.4399 13 39.9922 13C40.5445 13 40.9922 12.5523 40.9922 12V10Z" fill="url(#paint0_linear_2534_3452)"/>
<path d="M55.4722 13C56.0245 13 56.4722 13.4477 56.4722 14V16C56.4722 16.5523 56.0245 17 55.4722 17C54.9199 17 54.4722 16.5523 54.4722 16V14C54.4722 13.4477 54.9199 13 55.4722 13Z" fill="url(#paint1_linear_2534_3452)"/>
<path fill-rule="evenodd" clip-rule="evenodd" d="M39.9922 15C40.5445 15 40.9922 15.4477 40.9922 16V31H54.4715V20C54.4715 19.4477 54.9192 19 55.4715 19C56.0238 19 56.4715 19.4477 56.4715 20V31H74.8206C78.0852 31.0465 80.526 34.0365 79.9034 37.2542L79.0068 41.888C78.4214 44.9136 76.856 47.1586 74.8206 48.6158V67C74.8206 69.2091 73.0298 71 70.8206 71H9.1644C6.95526 71 5.1644 69.2091 5.1644 67V48.6157C3.11767 47.1198 1.54717 44.8387 0.955765 41.7822L0.0989444 37.3539C-0.527307 34.1173 1.89731 31.1081 5.1644 31.0028V31H23.513V20C23.513 19.4477 23.9607 19 24.513 19C25.0653 19 25.513 19.4477 25.513 20V31H38.9922V16C38.9922 15.4477 39.4399 15 39.9922 15ZM7.1644 47.5187C11.1827 49.8308 16.855 48.8826 19.4945 44.5823C19.9988 43.7607 20.3923 42.8169 20.6426 41.75C20.892 42.8137 21.2731 43.7668 21.7584 44.6092C25.447 51.0124 35.1563 51.0209 38.861 44.6347C39.3532 43.7861 39.7395 42.8245 39.9915 41.75C40.2433 42.8235 40.6265 43.7861 41.1143 44.638C44.8786 51.2119 54.8675 51.1862 58.6864 44.6027C59.1756 43.7594 59.5635 42.8084 59.8242 41.75C60.0624 42.8192 60.4491 43.7631 60.9499 44.5822C64.809 50.895 75.4395 49.7963 77.0432 41.5081L77.9398 36.8742C78.3285 34.8653 76.7895 33 74.7433 33H5.34153C5.28206 33 5.223 33.0015 5.1644 33.0046C3.15464 33.1084 1.67509 34.9716 2.06253 36.974L2.91935 41.4022C3.27996 43.266 4.08493 44.7778 5.1644 45.9344C5.75757 46.57 6.43363 47.0982 7.1644 47.5187ZM72.8206 49.7382V67C72.8206 68.1046 71.9252 69 70.8206 69H9.1644C8.05983 69 7.1644 68.1046 7.1644 67V49.7688C11.6721 51.7636 17.4269 50.7075 20.5997 46.5252C25.1755 53.0231 35.3592 53.0488 39.9795 46.6025C44.6654 53.2646 55.1309 53.1736 59.8375 46.5168C62.8992 50.5508 68.4392 51.6076 72.8206 49.7382Z" fill="url(#paint2_linear_2534_3452)"/>
<path d="M24.5127 13C25.065 13 25.5127 13.4477 25.5127 14V16C25.5127 16.5523 25.065 17 24.5127 17C23.9604 17 23.5127 16.5523 23.5127 16V14C23.5127 13.4477 23.9604 13 24.5127 13Z" fill="url(#paint3_linear_2534_3452)"/>
</g>
</g>
<defs>
<linearGradient id="paint0_linear_2534_3452" x1="5.66022e-06" y1="70.9614" x2="83.128" y2="66.3181" gradientUnits="userSpaceOnUse">
<stop stop-color="#8742DB"/>
<stop offset="1" stop-color="#D641DD"/>
</linearGradient>
<linearGradient id="paint1_linear_2534_3452" x1="5.66022e-06" y1="70.9614" x2="83.128" y2="66.3181" gradientUnits="userSpaceOnUse">
<stop stop-color="#8742DB"/>
<stop offset="1" stop-color="#D641DD"/>
</linearGradient>
<linearGradient id="paint2_linear_2534_3452" x1="5.66022e-06" y1="70.9614" x2="83.128" y2="66.3181" gradientUnits="userSpaceOnUse">
<stop stop-color="#8742DB"/>
<stop offset="1" stop-color="#D641DD"/>
</linearGradient>
<linearGradient id="paint3_linear_2534_3452" x1="5.66022e-06" y1="70.9614" x2="83.128" y2="66.3181" gradientUnits="userSpaceOnUse">
<stop stop-color="#8742DB"/>
<stop offset="1" stop-color="#D641DD"/>
</linearGradient>
</defs>
</svg>
