<svg width="80" height="80" viewBox="0 0 80 80" fill="none" xmlns="http://www.w3.org/2000/svg">
<g id="CalendarIcon">
<g id="Union">
<path fill-rule="evenodd" clip-rule="evenodd" d="M18 15.12V7H20V15.12H52V7H54V15.12H58C60.2091 15.12 62 16.9109 62 19.12V43.9064C61.367 43.3162 60.6992 42.7629 60 42.2499V29.6H12V64C12 65.1046 12.8954 66 14 66H25.8281C26.0206 66.6806 26.2451 67.3479 26.4998 68H14C11.7909 68 10 66.2091 10 64V19.12C10 16.9109 11.7909 15.12 14 15.12H18ZM12 27.6H60V19.12C60 18.0154 59.1046 17.12 58 17.12H14C12.8954 17.12 12 18.0154 12 19.12V27.6Z" fill="url(#paint0_linear_2534_3442)"/>
<path d="M48.9996 76.8745L48.9997 74.8564C51.0585 74.5592 53.034 73.8056 54.7775 72.6405C57.0798 71.1022 58.8742 68.9157 59.9338 66.3575C60.9935 63.7994 61.2707 60.9844 60.7305 58.2687C60.1903 55.553 58.8569 53.0584 56.899 51.1005C54.9411 49.1426 52.4465 47.8092 49.7308 47.269C47.015 46.7288 44.2001 47.0061 41.6419 48.0657C39.0838 49.1253 36.8973 50.9197 35.3589 53.222C34.4086 54.6444 33.7319 56.2211 33.3536 57.8715L36.401 55.8159C36.8589 55.5071 37.4804 55.6279 37.7893 56.0858C38.0981 56.5436 37.9773 57.1651 37.5194 57.474L31.7162 61.3883L27.8018 55.5851C27.493 55.1272 27.6138 54.5057 28.0717 54.1968C28.5295 53.888 29.1511 54.0088 29.4599 54.4667L31.4171 57.3684C31.852 55.5026 32.6206 53.7203 33.696 52.1109C35.4541 49.4797 37.953 47.4289 40.8766 46.2179C43.8002 45.0069 47.0172 44.6901 50.1209 45.3074C53.2246 45.9248 56.0756 47.4486 58.3132 49.6863C60.5508 51.9239 62.0747 54.7748 62.6921 57.8785C63.3094 60.9822 62.9926 64.1993 61.7816 67.1229C60.5706 70.0465 58.5199 72.5454 55.8887 74.3035C53.8155 75.6888 51.4554 76.5651 48.9996 76.8745Z" fill="url(#paint1_linear_2534_3442)"/>
<path d="M47 55H45V64C45 64.5523 45.4477 65 46 65H55V63H47V55Z" fill="url(#paint2_linear_2534_3442)"/>
</g>
</g>
<defs>
<linearGradient id="paint0_linear_2534_3442" x1="10" y1="76.8311" x2="65.1836" y2="75.0191" gradientUnits="userSpaceOnUse">
<stop stop-color="#8742DB"/>
<stop offset="1" stop-color="#D641DD"/>
</linearGradient>
<linearGradient id="paint1_linear_2534_3442" x1="10" y1="76.8311" x2="65.1836" y2="75.0191" gradientUnits="userSpaceOnUse">
<stop stop-color="#8742DB"/>
<stop offset="1" stop-color="#D641DD"/>
</linearGradient>
<linearGradient id="paint2_linear_2534_3442" x1="10" y1="76.8311" x2="65.1836" y2="75.0191" gradientUnits="userSpaceOnUse">
<stop stop-color="#8742DB"/>
<stop offset="1" stop-color="#D641DD"/>
</linearGradient>
</defs>
</svg>
