<svg width="80" height="80" viewBox="0 0 80 80" fill="none" xmlns="http://www.w3.org/2000/svg">
<g id="fluent:diversity-16-regular">
<path id="Vector 117 (Stroke)" fill-rule="evenodd" clip-rule="evenodd" d="M17.2715 7.6868C18.3957 5.43774 21.6043 5.43773 22.7285 7.6868L33.674 29.5839C34.6882 31.6128 33.2132 34 30.9455 34H9.05453C6.78677 34 5.31182 31.6128 6.326 29.5839L17.2715 7.6868ZM20.9095 8.59657C20.5348 7.84688 19.4652 7.84688 19.0905 8.59657L8.14502 30.4937C7.80696 31.17 8.29861 31.9657 9.05453 31.9657H30.9455C31.7014 31.9657 32.193 31.17 31.855 30.4937L20.9095 8.59657Z" fill="url(#paint0_linear_2183_2447)"/>
<g id="Vector">
<path fill-rule="evenodd" clip-rule="evenodd" d="M20 48.0741C13.4135 48.0741 8.07407 53.4135 8.07407 60C8.07407 66.5865 13.4135 71.9259 20 71.9259C26.5865 71.9259 31.9259 66.5865 31.9259 60C31.9259 53.4135 26.5865 48.0741 20 48.0741ZM6 60C6 52.268 12.268 46 20 46C27.732 46 34 52.268 34 60C34 67.732 27.732 74 20 74C12.268 74 6 67.732 6 60Z" fill="url(#paint1_linear_2183_2447)"/>
<path fill-rule="evenodd" clip-rule="evenodd" d="M20.7071 58.1213C20.3166 57.7308 19.6834 57.7308 19.2929 58.1213L14.7071 62.7071C14.3166 63.0976 13.6834 63.0976 13.2929 62.7071C12.9024 62.3166 12.9024 61.6834 13.2929 61.2929L17.8787 56.7071C19.0503 55.5355 20.9497 55.5355 22.1213 56.7071L26.7071 61.2929C27.0976 61.6834 27.0976 62.3166 26.7071 62.7071C26.3166 63.0976 25.6834 63.0976 25.2929 62.7071L20.7071 58.1213Z" fill="url(#paint2_linear_2183_2447)"/>
</g>
<path id="Vector_2" fill-rule="evenodd" clip-rule="evenodd" d="M60.7751 48.2663C60.4519 48.077 60.053 48.0735 59.7265 48.257L48.6536 54.4831C48.3199 54.6707 48.1132 55.0247 48.1132 55.4087V64.5913C48.1132 64.9753 48.3199 65.3293 48.6536 65.5169L59.7265 71.743C60.053 71.9265 60.4519 71.923 60.7751 71.7337L71.3626 65.5326C71.6872 65.3425 71.8868 64.9936 71.8868 64.6162V55.3838C71.8868 55.0064 71.6872 54.6575 71.3626 54.4674L60.7751 48.2663ZM58.694 46.4058C59.6735 45.855 60.8702 45.8656 61.8399 46.4335L72.4274 52.6346C73.4012 53.205 74 54.2518 74 55.3838V64.6162C74 65.7482 73.4012 66.795 72.4274 67.3654L61.8399 73.5665C60.8702 74.1344 59.6735 74.145 58.694 73.5942L47.621 67.3682C46.62 66.8053 46 65.7433 46 64.5913V55.4087C46 54.2567 46.62 53.1947 47.621 52.6318L58.694 46.4058Z" fill="url(#paint3_linear_2183_2447)"/>
<g id="Vector_3">
<path fill-rule="evenodd" clip-rule="evenodd" d="M54.2963 8.07407C50.8599 8.07407 48.0741 10.8599 48.0741 14.2963V25.7037C48.0741 29.1401 50.8599 31.9259 54.2963 31.9259H65.7037C69.1401 31.9259 71.9259 29.1401 71.9259 25.7037V14.2963C71.9259 10.8599 69.1401 8.07407 65.7037 8.07407H54.2963ZM46 14.2963C46 9.71438 49.7144 6 54.2963 6H65.7037C70.2856 6 74 9.71438 74 14.2963V25.7037C74 30.2856 70.2856 34 65.7037 34H54.2963C49.7144 34 46 30.2856 46 25.7037V14.2963Z" fill="url(#paint4_linear_2183_2447)"/>
<path fill-rule="evenodd" clip-rule="evenodd" d="M57 27C54.7909 27 53 25.2091 53 23L53 21C53 20.4477 53.4477 20 54 20C54.5523 20 55 20.4477 55 21L55 23C55 24.1046 55.8954 25 57 25C58.1046 25 59 24.1046 59 23V17C59 14.7909 60.7909 13 63 13C65.2091 13 67 14.7909 67 17V19C67 19.5523 66.5523 20 66 20C65.4477 20 65 19.5523 65 19V17C65 15.8954 64.1046 15 63 15C61.8954 15 61 15.8954 61 17V23C61 25.2091 59.2091 27 57 27Z" fill="url(#paint5_linear_2183_2447)"/>
</g>
</g>
<defs>
<linearGradient id="paint0_linear_2183_2447" x1="6" y1="33.9826" x2="35.1307" y2="32.7215" gradientUnits="userSpaceOnUse">
<stop stop-color="#8742DB"/>
<stop offset="1" stop-color="#D641DD"/>
</linearGradient>
<linearGradient id="paint1_linear_2183_2447" x1="6" y1="73.9826" x2="35.1307" y2="72.7215" gradientUnits="userSpaceOnUse">
<stop stop-color="#8742DB"/>
<stop offset="1" stop-color="#D641DD"/>
</linearGradient>
<linearGradient id="paint2_linear_2183_2447" x1="6" y1="73.9826" x2="35.1307" y2="72.7215" gradientUnits="userSpaceOnUse">
<stop stop-color="#8742DB"/>
<stop offset="1" stop-color="#D641DD"/>
</linearGradient>
<linearGradient id="paint3_linear_2183_2447" x1="46" y1="73.9826" x2="75.1307" y2="72.7215" gradientUnits="userSpaceOnUse">
<stop stop-color="#8742DB"/>
<stop offset="1" stop-color="#D641DD"/>
</linearGradient>
<linearGradient id="paint4_linear_2183_2447" x1="46" y1="33.9826" x2="75.1307" y2="32.7215" gradientUnits="userSpaceOnUse">
<stop stop-color="#8742DB"/>
<stop offset="1" stop-color="#D641DD"/>
</linearGradient>
<linearGradient id="paint5_linear_2183_2447" x1="46" y1="33.9826" x2="75.1307" y2="32.7215" gradientUnits="userSpaceOnUse">
<stop stop-color="#8742DB"/>
<stop offset="1" stop-color="#D641DD"/>
</linearGradient>
</defs>
</svg>
