<svg width="80" height="80" viewBox="0 0 80 80" fill="none" xmlns="http://www.w3.org/2000/svg">
<g id="MaskIcon">
<path id="Vector" d="M27.1754 36.4213C25.6604 36.8726 23.9643 36.6819 22.5345 35.7543C22.0998 35.4723 21.9963 34.8774 22.3037 34.4604C23.6551 32.6271 25.9308 31.7882 28.0807 32.1668M46.0829 9.06863L13.4678 15.9941C11.7852 16.3514 10.711 18.0037 11.0687 19.6847L16.9926 47.5261C18.1715 53.0669 21.5677 57.5679 26.0561 60.2993C24.3161 56.7778 23.7019 52.7465 24.5616 48.7058L30.1218 22.5736C30.4575 20.9958 32.0937 20.0064 33.7764 20.3637L52.5172 24.3432L49.7772 11.4653C49.4195 9.78437 47.7655 8.71134 46.0829 9.06863ZM33.891 20.4022L66.5061 27.3276C68.1887 27.6849 69.2775 29.2683 68.938 30.8641L63.314 57.2957C61.1571 67.4332 50.7433 73.8112 40.0543 71.5415C29.3652 69.2718 22.4486 59.2138 24.6056 49.0763L30.2295 22.6447C30.5691 21.0489 32.2084 20.0449 33.891 20.4022ZM57.6629 46.0372C55.0986 47.6078 51.6391 46.8732 49.936 44.3965C49.6498 43.9803 49.7911 43.4247 50.2381 43.1857C52.79 41.821 56.1042 42.5248 57.8799 44.8084C58.1909 45.2083 58.0938 45.7733 57.6629 46.0372ZM42.079 42.7281C39.5147 44.2987 36.0552 43.5641 34.352 41.0874C34.0658 40.6712 34.2072 40.1156 34.6542 39.8766C37.2061 38.5119 40.5203 39.2157 42.296 41.4993C42.607 41.8992 42.5099 42.4642 42.079 42.7281ZM35.3832 54.1055L51.4066 57.5079C51.5313 57.5344 51.5782 57.6815 51.4889 57.766L51.306 57.939C46.286 62.6887 37.6736 60.7426 35.2044 54.3006C35.1619 54.1897 35.2626 54.0799 35.3832 54.1055Z" stroke="url(#paint0_linear_2478_5133)" stroke-width="2" stroke-linecap="round"/>
</g>
<defs>
<linearGradient id="paint0_linear_2478_5133" x1="11" y1="71.9608" x2="71.3594" y2="69.5553" gradientUnits="userSpaceOnUse">
<stop stop-color="#8742DB"/>
<stop offset="1" stop-color="#D641DD"/>
</linearGradient>
</defs>
</svg>
