<svg width="80" height="80" viewBox="0 0 80 80" fill="none" xmlns="http://www.w3.org/2000/svg">
<g id="PeopleIcon">
<path id="Vector (Stroke)" fill-rule="evenodd" clip-rule="evenodd" d="M16.1902 26.3219C15.6797 19.2517 20.7278 14 27.5002 14C30.8512 14 33.8178 15.259 35.8837 17.4618C37.9521 19.6673 39.0626 22.76 38.8102 26.3206M16.1903 26.322C16.6761 33.0643 21.7095 38.5 27.5002 38.5C33.2898 38.5 38.3325 33.0668 38.8102 26.3207M27.5002 16C21.8882 16 17.7582 20.2669 18.1851 26.178L18.1851 26.1781C18.615 32.1452 23.0096 36.5 27.5002 36.5C31.9917 36.5 36.3928 32.1457 36.8152 26.1794L36.8152 26.1793C37.0314 23.129 36.0818 20.5968 34.4249 18.83C32.7654 17.0605 30.3413 16 27.5002 16ZM27.5002 48.5C17.5695 48.5 8.34263 53.2591 6.04172 62.6459L6.04157 62.6465C5.94601 63.0353 6.02692 63.3897 6.19032 63.6296C6.34483 63.8565 6.58089 64 6.90173 64H48.097C48.4184 64 48.6558 63.8559 48.8107 63.6289C48.9741 63.3895 49.0544 63.0365 48.958 62.6498L48.9579 62.6495C46.657 53.4107 37.42 48.5 27.5002 48.5ZM4.09938 62.1691C6.70498 51.5407 17.0623 46.5 27.5002 46.5C37.9459 46.5 48.2931 51.7048 50.8986 62.1658C51.3464 63.9613 50.2223 66 48.097 66H6.90173C4.77313 66 3.6597 63.9586 4.09931 62.1694" fill="url(#paint0_linear_2534_3436)"/>
<path id="Vector" d="M48.75 29.0531L49.7474 28.9813L49.7474 28.9813L48.75 29.0531ZM65.3125 29.0531L66.31 29.1237L66.31 29.1237L65.3125 29.0531ZM47.396 46.9034C46.8939 47.1334 46.6733 47.7269 46.9034 48.229C47.1334 48.7311 47.7269 48.9517 48.229 48.7216L47.396 46.9034ZM74.9453 57.9297L75.916 57.6892L75.9156 57.6878L74.9453 57.9297ZM55.9375 59C55.3852 59 54.9375 59.4477 54.9375 60C54.9375 60.5523 55.3852 61 55.9375 61V59ZM50.3161 47.9306C50.8442 47.7689 51.1412 47.2098 50.9795 46.6817C50.8179 46.1536 50.2587 45.8566 49.7306 46.0182L50.3161 47.9306ZM54.5868 45.1189C54.0363 45.1634 53.6262 45.6458 53.6708 46.1963C53.7154 46.7468 54.1978 47.1569 54.7482 47.1123L54.5868 45.1189ZM58.8841 47.097C59.4346 47.1409 59.9165 46.7302 59.9605 46.1797C60.0044 45.6292 59.5937 45.1473 59.0432 45.1033L58.8841 47.097ZM63.0216 45.7549C62.4861 45.6196 61.9424 45.944 61.8071 46.4795C61.6718 47.015 61.9962 47.5587 62.5317 47.694L63.0216 45.7549ZM65.9953 48.9176C66.4958 49.1512 67.0908 48.9347 67.3243 48.4342C67.5578 47.9337 67.3414 47.3387 66.8409 47.1052L65.9953 48.9176ZM70.3326 49.2197C69.8957 48.8818 69.2677 48.962 68.9298 49.3989C68.5919 49.8358 68.6721 50.4638 69.109 50.8017L70.3326 49.2197ZM71.6573 53.3449C71.9935 53.783 72.6213 53.8656 73.0594 53.5294C73.4975 53.1932 73.5801 52.5654 73.2439 52.1273L71.6573 53.3449ZM75.2836 55.7191C75.0797 55.2059 74.4984 54.955 73.9851 55.1589C73.4718 55.3628 73.221 55.9442 73.4249 56.4575L75.2836 55.7191ZM73.9925 58.508C73.9097 59.054 74.2853 59.5638 74.8314 59.6465C75.3774 59.7292 75.8872 59.3536 75.9699 58.8075L73.9925 58.508ZM74.6574 60.7108C75.1447 60.451 75.3292 59.8453 75.0694 59.3579C74.8096 58.8706 74.2039 58.6861 73.7165 58.9459L74.6574 60.7108ZM71.2883 59C70.736 59 70.2883 59.4477 70.2883 60C70.2883 60.5523 70.736 61 71.2883 61V59ZM66.9023 61C67.4546 61 67.9023 60.5523 67.9023 60C67.9023 59.4477 67.4546 59 66.9023 59V61ZM62.5164 59C61.9641 59 61.5164 59.4477 61.5164 60C61.5164 60.5523 61.9641 61 62.5164 61V59ZM58.1305 61C58.6828 61 59.1305 60.5523 59.1305 60C59.1305 59.4477 58.6828 59 58.1305 59V61ZM49.7728 27.4299C49.8325 26.8808 49.4359 26.3873 48.8868 26.3276C48.3378 26.2679 47.8443 26.6645 47.7845 27.2136L49.7728 27.4299ZM48.9562 23.5475C48.6826 24.0272 48.8497 24.6379 49.3294 24.9116C49.8092 25.1852 50.4199 25.0181 50.6935 24.5384L48.9562 23.5475ZM52.7127 22.3167C53.1645 21.999 53.2732 21.3753 52.9555 20.9235C52.6378 20.4717 52.0141 20.363 51.5623 20.6807L52.7127 22.3167ZM55.1179 19.1812C54.5757 19.2862 54.2213 19.8108 54.3263 20.3531C54.4313 20.8953 54.9559 21.2497 55.4981 21.1447L55.1179 19.1812ZM58.571 21.1423C59.1135 21.2453 59.6369 20.889 59.7399 20.3464C59.843 19.8038 59.4866 19.2804 58.944 19.1774L58.571 21.1423ZM62.5112 20.6627C62.0582 20.3468 61.4349 20.4578 61.1189 20.9107C60.8029 21.3637 60.9139 21.9871 61.3669 22.303L62.5112 20.6627ZM63.3841 24.5222C63.656 25.003 64.2661 25.1723 64.7468 24.9005C65.2276 24.6287 65.3969 24.0186 65.1251 23.5378L63.3841 24.5222ZM66.2808 27.2144C66.2231 26.6651 65.7311 26.2666 65.1819 26.3242C64.6326 26.3819 64.2341 26.8739 64.2917 27.4232L66.2808 27.2144ZM64.0911 30.4922C63.9683 31.0306 64.3052 31.5667 64.8437 31.6895C65.3822 31.8123 65.9182 31.4753 66.041 30.9368L64.0911 30.4922ZM64.6823 34.3357C64.9655 33.8615 64.8108 33.2476 64.3367 32.9643C63.8626 32.681 63.2486 32.8357 62.9654 33.3098L64.6823 34.3357ZM61.0174 35.5921C60.5902 35.942 60.5275 36.5721 60.8774 36.9994C61.2274 37.4266 61.8574 37.4893 62.2847 37.1393L61.0174 35.5921ZM58.9466 38.8752C59.4809 38.7353 59.8005 38.1887 59.6606 37.6544C59.5206 37.1202 58.974 36.8005 58.4398 36.9405L58.9466 38.8752ZM55.6231 36.9404C55.0889 36.8004 54.5423 37.12 54.4023 37.6542C54.2622 38.1884 54.5818 38.735 55.116 38.8751L55.6231 36.9404ZM51.7787 37.1381C52.2058 37.4883 52.8359 37.4259 53.1861 36.9988C53.5362 36.5717 53.4738 35.9416 53.0467 35.5915L51.7787 37.1381ZM51.0996 33.3087C50.8164 32.8345 50.2024 32.6798 49.7283 32.963C49.2542 33.2462 49.0994 33.8602 49.3826 34.3343L51.0996 33.3087ZM48.0233 30.9371C48.1465 31.4754 48.6828 31.812 49.2212 31.6888C49.7595 31.5656 50.0961 31.0293 49.9729 30.4909L48.0233 30.9371ZM48.229 48.7216C48.9059 48.4115 49.6019 48.1493 50.3161 47.9306L49.7306 46.0182C48.936 46.2615 48.157 46.5547 47.396 46.9034L48.229 48.7216ZM54.7482 47.1123C55.4949 47.0518 56.2562 47.0234 57.0312 47.0234V45.0234C56.2076 45.0234 55.3921 45.0536 54.5868 45.1189L54.7482 47.1123ZM57.0312 47.0234C57.6518 47.0234 58.2704 47.048 58.8841 47.097L59.0432 45.1033C58.3762 45.0501 57.7046 45.0234 57.0312 45.0234V47.0234ZM62.5317 47.694C63.7413 47.9996 64.9036 48.4083 65.9953 48.9176L66.8409 47.1052C65.6283 46.5395 64.3462 46.0896 63.0216 45.7549L62.5317 47.694ZM69.109 50.8017C70.0693 51.5444 70.9266 52.3928 71.6573 53.3449L73.2439 52.1273C72.4021 51.0303 71.4205 50.0611 70.3326 49.2197L69.109 50.8017ZM73.4249 56.4575C73.642 57.0042 73.8264 57.5754 73.975 58.1715L75.9156 57.6878C75.7456 57.0057 75.5339 56.3494 75.2836 55.7191L73.4249 56.4575ZM73.9747 58.1702C74.0046 58.291 74.0079 58.4057 73.9925 58.508L75.9699 58.8075C76.025 58.444 76.0089 58.0642 75.916 57.6892L73.9747 58.1702ZM73.7165 58.9459C73.6583 58.9769 73.5825 59 73.4812 59V61C73.9056 61 74.3052 60.8985 74.6574 60.7108L73.7165 58.9459ZM73.4812 59H71.2883V61H73.4812V59ZM66.9023 59H62.5164V61H66.9023V59ZM58.1305 59H55.9375V61H58.1305V59ZM49.7474 28.9813C49.7087 28.4441 49.7189 27.9259 49.7728 27.4299L47.7845 27.2136C47.7173 27.8319 47.7054 28.4706 47.7526 29.125L49.7474 28.9813ZM50.6935 24.5384C51.2003 23.6499 51.8878 22.8967 52.7127 22.3167L51.5623 20.6807C50.4969 21.4298 49.6089 22.4032 48.9562 23.5475L50.6935 24.5384ZM55.4981 21.1447C55.9877 21.0499 56.5001 21 57.0312 21V19C56.3746 19 55.7349 19.0617 55.1179 19.1812L55.4981 21.1447ZM57.0312 21C57.565 21 58.0796 21.049 58.571 21.1423L58.944 19.1774C58.327 19.0602 57.6875 19 57.0312 19V21ZM61.3669 22.303C62.1928 22.8792 62.8796 23.63 63.3841 24.5222L65.1251 23.5378C64.4727 22.3841 63.5816 21.4095 62.5112 20.6627L61.3669 22.303ZM64.2917 27.4232C64.3439 27.9199 64.3533 28.4406 64.315 28.9826L66.31 29.1237C66.3563 28.4685 66.3455 27.8307 66.2808 27.2144L64.2917 27.4232ZM64.315 28.9825C64.2784 29.4996 64.2024 30.0041 64.0911 30.4922L66.041 30.9368C66.1748 30.3499 66.2661 29.7441 66.31 29.1237L64.315 28.9825ZM62.9654 33.3098C62.4284 34.2085 61.7625 34.9818 61.0174 35.5921L62.2847 37.1393C63.2167 36.3759 64.0322 35.4237 64.6823 34.3357L62.9654 33.3098ZM58.4398 36.9405C57.9757 37.062 57.5042 37.125 57.0312 37.125V39.125C57.6826 39.125 58.3244 39.0382 58.9466 38.8752L58.4398 36.9405ZM57.0312 37.125C56.5583 37.125 56.0869 37.062 55.6231 36.9404L55.116 38.8751C55.7381 39.0382 56.3799 39.125 57.0312 39.125V37.125ZM53.0467 35.5915C52.3022 34.9811 51.6366 34.2076 51.0996 33.3087L49.3826 34.3343C50.0325 35.4222 50.8473 36.3745 51.7787 37.1381L53.0467 35.5915ZM49.9729 30.4909C49.8612 30.0028 49.7847 29.4983 49.7474 28.9813L47.7526 29.125C47.7972 29.745 47.8891 30.3505 48.0233 30.9371L49.9729 30.4909Z" fill="url(#paint1_linear_2534_3436)"/>
</g>
<defs>
<linearGradient id="paint0_linear_2534_3436" x1="4.0044" y1="65.9677" x2="52.9104" y2="64.0545" gradientUnits="userSpaceOnUse">
<stop stop-color="#8742DB"/>
<stop offset="1" stop-color="#D641DD"/>
</linearGradient>
<linearGradient id="paint1_linear_2534_3436" x1="47.8125" y1="59.9751" x2="76.128" y2="59.1419" gradientUnits="userSpaceOnUse">
<stop stop-color="#8742DB"/>
<stop offset="1" stop-color="#D641DD"/>
</linearGradient>
</defs>
</svg>
