<svg width="80" height="80" viewBox="0 0 80 80" fill="none" xmlns="http://www.w3.org/2000/svg">
<g id="PrepaymentIcon">
<g id="Union">
<path d="M6 20C6 18.3431 7.34314 17 9 17H64.4286C66.0854 17 67.4286 18.3431 67.4286 20V33.8277C68.1183 34.2117 68.7858 34.6309 69.4286 35.083V20C69.4286 17.2386 67.19 15 64.4286 15H9C6.23857 15 4 17.2386 4 20V54.2857C4 57.0471 6.23858 59.2857 9 59.2857H34.7509C34.577 58.6303 34.4319 57.9632 34.3171 57.2857H9C7.34314 57.2857 6 55.9426 6 54.2857V20Z" fill="url(#paint0_linear_2534_3447)"/>
<path fill-rule="evenodd" clip-rule="evenodd" d="M14.5343 25H24.5008C28.0184 25 31 27.7782 31 31.4603C31 35.0084 28.1022 37.8033 24.5008 37.8033H16.5444V41.0837H28.7219V42.8243H16.5444V49H14.5343V42.8243H11V41.0837H14.5343V37.8033H11V36.0628H14.5343V25ZM16.5444 26.8912V36.046H24.3333C26.7286 36.046 29.0402 34.1381 29.0402 31.4603C29.0402 29.0167 26.9799 26.9079 24.3333 26.8912H16.5444Z" fill="url(#paint1_linear_2534_3447)"/>
<path d="M58.3687 69.8745L58.3688 67.8564C60.4277 67.5592 62.4031 66.8056 64.1467 65.6405C66.449 64.1022 68.2434 61.9157 69.303 59.3575C70.3626 56.7994 70.6398 53.9844 70.0996 51.2687C69.5594 48.553 68.2261 46.0584 66.2681 44.1005C64.3102 42.1426 61.8156 40.8092 59.0999 40.269C56.3842 39.7288 53.5692 40.0061 51.0111 41.0657C48.4529 42.1253 46.2664 43.9197 44.7281 46.222C43.7777 47.6444 43.1011 49.2211 42.7227 50.8715L45.7702 48.8159C46.2281 48.5071 46.8496 48.6279 47.1584 49.0858C47.4673 49.5436 47.3464 50.1651 46.8886 50.474L41.0853 54.3883L37.171 48.5851C36.8621 48.1272 36.9829 47.5057 37.4408 47.1968C37.8987 46.888 38.5202 47.0088 38.829 47.4667L40.7863 50.3684C41.2211 48.5026 41.9898 46.7203 43.0651 45.1109C44.8232 42.4797 47.3221 40.4289 50.2457 39.2179C53.1693 38.0069 56.3864 37.6901 59.4901 38.3074C62.5938 38.9248 65.4447 40.4486 67.6823 42.6863C69.92 44.9239 71.4438 47.7748 72.0612 50.8785C72.6786 53.9822 72.3617 57.1993 71.1507 60.1229C69.9398 63.0465 67.889 65.5454 65.2578 67.3035C63.1846 68.6887 60.8245 69.5651 58.3687 69.8745Z" fill="url(#paint2_linear_2534_3447)"/>
<path d="M56.3691 48H54.3691V57C54.3691 57.5523 54.8169 58 55.3691 58H64.3691V56H56.3691V48Z" fill="url(#paint3_linear_2534_3447)"/>
</g>
</g>
<defs>
<linearGradient id="paint0_linear_2534_3447" x1="4" y1="69.8404" x2="75.0561" y2="66.008" gradientUnits="userSpaceOnUse">
<stop stop-color="#8742DB"/>
<stop offset="1" stop-color="#D641DD"/>
</linearGradient>
<linearGradient id="paint1_linear_2534_3447" x1="4" y1="69.8404" x2="75.0561" y2="66.008" gradientUnits="userSpaceOnUse">
<stop stop-color="#8742DB"/>
<stop offset="1" stop-color="#D641DD"/>
</linearGradient>
<linearGradient id="paint2_linear_2534_3447" x1="4" y1="69.8404" x2="75.0561" y2="66.008" gradientUnits="userSpaceOnUse">
<stop stop-color="#8742DB"/>
<stop offset="1" stop-color="#D641DD"/>
</linearGradient>
<linearGradient id="paint3_linear_2534_3447" x1="4" y1="69.8404" x2="75.0561" y2="66.008" gradientUnits="userSpaceOnUse">
<stop stop-color="#8742DB"/>
<stop offset="1" stop-color="#D641DD"/>
</linearGradient>
</defs>
</svg>
