<svg width="80" height="80" viewBox="0 0 80 80" fill="none" xmlns="http://www.w3.org/2000/svg">
<g id="ri:shake-hands-line">
<path id="Vector 121" d="M56.8571 49.5L42.2782 29.0894C41.8073 28.4302 40.9852 28.1201 40.1962 28.3042L30.4853 30.5701C28.0234 31.1445 25.443 30.3469 23.7347 28.4833L22.5393 27.1793C21.7235 26.2892 21.8762 24.8848 22.8644 24.191L28.1212 20.5M56.8571 49.5L60.2408 54.2371C60.9194 55.1871 60.6434 56.514 59.6423 57.1146L39.9414 68.9351C39.3551 69.287 38.6296 69.3148 38.018 69.009L35 67.5M56.8571 49.5H67.5C68.6046 49.5 69.5 48.6046 69.5 47.5V22.5C69.5 21.3954 68.6046 20.5 67.5 20.5H63.571C63.1978 20.5 62.832 20.3956 62.5151 20.1986L48.4304 11.4432C46.047 9.96167 43.0092 10.0467 40.7125 11.6593L28.1212 20.5M35 67.5L36.2333 65.496C37.871 62.8346 37.5464 59.4101 35.4378 57.1039L27.6214 48.5547C25.0529 45.7454 20.7103 45.5034 17.8457 48.01L14.5 50.9375M35 67.5L33.7206 69.2911C33.0563 70.2211 31.7492 70.4063 30.8527 69.6975L12.8857 55.491C11.9049 54.7155 11.8682 53.2403 12.8091 52.417L14.5 50.9375M14.5 50.9375L10.5957 47.0874C10.2146 46.7116 10 46.1986 10 45.6634V22.5C10 21.3954 10.8954 20.5 12 20.5H28.1212" stroke="url(#paint0_linear_2183_2445)" stroke-width="2"/>
</g>
<defs>
<linearGradient id="paint0_linear_2183_2445" x1="10" y1="70.9614" x2="71.9119" y2="68.3894" gradientUnits="userSpaceOnUse">
<stop stop-color="#8742DB"/>
<stop offset="1" stop-color="#D641DD"/>
</linearGradient>
</defs>
</svg>
