<svg width="81" height="80" viewBox="0 0 81 80" fill="none" xmlns="http://www.w3.org/2000/svg">
<g id="TeamIcon">
<path id="Vector" d="M29.4166 34.3077H51.9166C53.2364 34.3077 54.2916 35.3662 54.2916 36.6538V55.6154C54.2916 62.4471 48.7033 68 41.7916 68H39.5416C32.63 68 27.0416 62.4471 27.0416 55.6154V36.6538C27.0416 35.3662 28.0968 34.3077 29.4166 34.3077ZM5.79311 51.851C5.79311 56.1165 8.23092 59.7965 11.8411 61.849C8.12001 59.7862 5.66663 56.0493 5.66663 51.851V37.2115C5.66663 36.189 6.28455 35.232 7.25827 34.7125C6.3955 35.2218 5.79311 36.1219 5.79311 37.2115V51.851ZM75.5401 37.2115C75.5401 36.1219 74.9378 35.2218 74.075 34.7125C75.0487 35.232 75.6666 36.189 75.6666 37.2115V51.851C75.6666 56.0494 73.2131 59.7864 69.4919 61.8492C73.1022 59.7966 75.5401 56.1166 75.5401 51.851V37.2115ZM48.6666 19.9231C48.6666 24.2908 45.093 27.8462 40.6666 27.8462C36.2402 27.8462 32.6666 24.2908 32.6666 19.9231C32.6666 15.5554 36.2402 12 40.6666 12C45.093 12 48.6666 15.5554 48.6666 19.9231ZM70.0416 22.1538C70.0416 25.2895 67.4754 27.8462 64.2916 27.8462C61.1079 27.8462 58.5416 25.2895 58.5416 22.1538C58.5416 19.0181 61.1079 16.4615 64.2916 16.4615C67.4754 16.4615 70.0416 19.0181 70.0416 22.1538ZM23.9166 22.1538C23.9166 25.2895 21.3504 27.8462 18.1666 27.8462C14.9829 27.8462 12.4166 25.2895 12.4166 22.1538C12.4166 19.0181 14.9829 16.4615 18.1666 16.4615C21.3504 16.4615 23.9166 19.0181 23.9166 22.1538Z" stroke="url(#paint0_linear_3464_10445)" stroke-width="2"/>
</g>
<defs>
<linearGradient id="paint0_linear_3464_10445" x1="4.66663" y1="68.9639" x2="79.4984" y2="64.9426" gradientUnits="userSpaceOnUse">
<stop stop-color="#8742DB"/>
<stop offset="1" stop-color="#D641DD"/>
</linearGradient>
</defs>
</svg>
