<svg width="81" height="80" viewBox="0 0 81 80" fill="none" xmlns="http://www.w3.org/2000/svg">
<g id="TeamIcon">
<path id="Vector" d="M29.417 34.3077H51.917C53.2368 34.3077 54.292 35.3662 54.292 36.6538V55.6154C54.292 62.4471 48.7037 68 41.792 68H39.542C32.6303 68 27.042 62.4471 27.042 55.6154V36.6538C27.042 35.3662 28.0972 34.3077 29.417 34.3077ZM5.79348 51.851C5.79348 56.1165 8.23129 59.7965 11.8415 61.849C8.12038 59.7862 5.66699 56.0493 5.66699 51.851V37.2115C5.66699 36.189 6.28492 35.232 7.25864 34.7125C6.39587 35.2218 5.79348 36.1219 5.79348 37.2115V51.851ZM75.5405 37.2115C75.5405 36.1219 74.9381 35.2218 74.0754 34.7125C75.0491 35.232 75.667 36.189 75.667 37.2115V51.851C75.667 56.0494 73.2135 59.7864 69.4922 61.8492C73.1026 59.7966 75.5405 56.1166 75.5405 51.851V37.2115ZM48.667 19.9231C48.667 24.2908 45.0934 27.8462 40.667 27.8462C36.2406 27.8462 32.667 24.2908 32.667 19.9231C32.667 15.5554 36.2406 12 40.667 12C45.0934 12 48.667 15.5554 48.667 19.9231ZM70.042 22.1538C70.042 25.2895 67.4757 27.8462 64.292 27.8462C61.1082 27.8462 58.542 25.2895 58.542 22.1538C58.542 19.0181 61.1082 16.4615 64.292 16.4615C67.4757 16.4615 70.042 19.0181 70.042 22.1538ZM23.917 22.1538C23.917 25.2895 21.3507 27.8462 18.167 27.8462C14.9832 27.8462 12.417 25.2895 12.417 22.1538C12.417 19.0181 14.9832 16.4615 18.167 16.4615C21.3507 16.4615 23.917 19.0181 23.917 22.1538Z" stroke="url(#paint0_linear_2478_5143)" stroke-width="2"/>
</g>
<defs>
<linearGradient id="paint0_linear_2478_5143" x1="4.667" y1="68.9639" x2="79.4988" y2="64.9426" gradientUnits="userSpaceOnUse">
<stop stop-color="#8742DB"/>
<stop offset="1" stop-color="#D641DD"/>
</linearGradient>
</defs>
</svg>
