<svg width="287" height="218" viewBox="0 0 287 218" fill="none" xmlns="http://www.w3.org/2000/svg">
<path d="M30.292 154.282H40.7783V194.495H51.6646V204.359H40.7783V218H30.292V204.359H0.166016V194.495L30.292 154.282ZM30.292 169.034L11.1855 194.495H30.292V169.034Z" fill="white"/>
<path d="M69.0825 186.141C69.0825 198.183 77.8359 208.313 90.4551 208.313C103.296 208.313 111.828 198.316 111.828 186.141C111.828 173.389 102.541 163.969 90.4551 163.969C77.7026 163.969 69.0825 173.966 69.0825 186.141ZM58.1074 186.141C58.1074 167.834 72.7705 154.282 90.4551 154.282C109.739 154.282 122.847 169.079 122.847 186.141C122.847 204.981 107.917 218 90.4551 218C71.6152 218 58.1074 203.515 58.1074 186.141Z" fill="white"/>
<path d="M158.616 154.282H169.103V194.495H179.989V204.359H169.103V218H158.616V204.359H128.49V194.495L158.616 154.282ZM158.616 169.034L139.51 194.495H158.616V169.034Z" fill="white"/>
<path d="M156.945 69.7403C159.533 69.9463 170.794 58.9905 173.434 57.0912C175.966 55.269 177.743 53.9425 179.136 52.9028L179.137 52.9022C183.211 49.8612 184 49.2723 190.801 45.901C195.406 46.306 198.947 51.65 200.966 54.696L200.967 54.6973C201.615 55.6764 202.107 56.4183 202.426 56.6812C204.079 59.1607 205.678 61.2851 207.15 63.2411L207.151 63.2421C212.128 69.8557 215.657 74.545 214.964 84.5352C214.632 89.3162 208.499 92.4899 203.421 95.1173C201.331 96.1989 199.419 97.1881 198.165 98.1587C198.322 98.9476 198.302 99.6791 198.282 100.432C198.252 101.489 198.222 102.589 198.678 103.949C199.816 107.338 201.812 110.531 204.337 113.169L204.478 113.157C204.638 113.143 204.804 113.13 204.974 113.117L206.13 112.482C207.72 111.608 209.624 111.122 211.423 110.875C213.101 110.645 214.254 109.422 214.705 107.794C215.608 104.536 215.336 102.731 215.088 101.085C214.868 99.6218 214.666 98.2848 215.327 96.1649C220.799 78.615 250.505 91.1556 262.425 96.1878L262.429 96.1893C264.474 97.0526 265.995 97.6946 266.78 97.9254C266.627 98.691 266.457 99.5341 266.275 100.441C264.129 111.098 260.188 130.67 260.544 139.42C262.678 139.793 264.485 139.565 266.27 139.339C269.637 138.913 272.926 138.497 278.183 142.147C281.659 144.559 284.246 147.496 285.229 150.533C289.49 163.71 276.296 183.198 259.528 178.136C256.045 177.085 254.238 175.11 252.481 173.19C250.679 171.221 248.93 169.31 245.481 168.511C240.937 175.252 240.034 182.647 239.201 189.473C238.525 195.017 237.894 200.186 235.394 204.324C235.373 204.358 235.354 204.391 235.336 204.424C235.318 204.458 235.301 204.491 235.285 204.523L235.261 204.571C235.252 204.589 235.244 204.607 235.235 204.625C235.228 204.642 235.22 204.658 235.213 204.674L235.193 204.716C234.779 205.617 234.66 205.876 226.855 204.314C220.443 203.031 203.202 198.387 197.25 196.659C196.673 196.492 196.021 196.317 195.319 196.129L195.316 196.128C189.806 194.654 181.228 192.359 182.148 186.29C182.663 182.892 184.386 180.203 186.057 177.598C188.218 174.227 190.29 170.995 189.54 166.543C189.067 163.737 186.156 161.556 182.789 160.633L183.172 155.874L187.105 151.234L186.266 148.029C200.009 147.972 208.068 157.999 203.762 171.87C202.982 174.144 201.821 175.378 200.621 176.654C198.961 178.419 197.226 180.264 196.317 185.047C200.802 186.847 205.722 187.574 210.565 188.289C216.546 189.172 222.411 190.037 227.201 192.887C230.259 178.885 238.236 152.624 250.856 160.855C252.067 161.613 252.839 162.049 253.508 162.428C254.772 163.142 255.669 163.648 258.457 165.72C263.543 169.499 271.182 169.829 274.842 164.2C278.494 158.584 278.552 149.467 273.073 146.997C269.267 145.281 265.407 145.693 261.892 146.069C256.263 146.67 251.517 147.177 249.289 138.702C247.904 133.433 249.437 127.771 250.94 122.223C251.314 120.842 251.686 119.469 252.011 118.11C252.363 116.635 252.684 115.346 252.965 114.219C254.106 109.639 254.586 107.712 253.833 106.69C253.287 105.949 252.092 105.684 250.03 105.227C249.203 105.043 248.234 104.828 247.113 104.539C246.84 104.469 246.569 104.398 246.298 104.326C245.997 104.246 245.697 104.165 245.398 104.085L245.39 104.082L245.383 104.081C243.474 103.567 241.585 103.059 239.609 102.768C238.812 102.65 237.87 102.426 236.855 102.186C233.187 101.316 228.56 100.218 226.322 103.047C225.286 104.356 224.909 106.166 224.478 108.235L224.478 108.236C223.475 113.05 222.18 119.267 211.621 123.86C211.204 124.041 210.722 124.184 210.189 124.292L206.167 124.813L206.733 123.414L205.758 121.827L206.112 119.954L203.318 117.801L202.019 114.572L200.258 116.94L201.19 120.342L199.933 121.917L199.84 123.44L198.324 124.253C194.356 121.026 190.576 116.489 189.003 113.474C187.263 109.388 185.122 101.081 187.412 96.623C189.209 93.1261 193.716 91.34 197.856 89.6994C202.959 87.6774 207.503 85.8765 205.729 81.3669C202.549 73.2845 195.348 61.7707 189.936 55.8746C187.805 57.0568 185.129 58.9952 182.17 61.1392C171.499 68.8691 151.8 88.0485 145.973 75.3258C145.424 74.1261 144.993 72.8789 144.565 71.6374C143.292 67.9459 142.036 64.304 137.709 62.1046C125.645 55.9733 110.43 71.0644 116.493 80.8641C118.765 84.5364 122.314 85.5715 125.583 86.5251C129.432 87.6475 132.894 88.6572 133.432 93.7218C133.743 96.6498 132.983 97.6823 130.886 100.077C127.648 103.777 122.059 111.378 117.573 114.212C115.167 115.733 112.735 117.27 110.439 118.975C109.794 119.455 109.343 119.828 108.925 120.175L108.922 120.178C108.324 120.675 107.789 121.119 106.839 121.742C109.597 125.09 113.998 131.104 116.356 135.385C116.9 136.373 117.333 137.184 117.709 137.888L117.71 137.89C119.163 140.614 119.764 141.738 122.653 145.328C124.504 143.965 125.83 142.353 127.175 140.717C129.538 137.845 131.959 134.901 137.387 133.114C137.847 132.962 138.255 132.814 138.639 132.674L138.643 132.673C138.88 132.587 141.827 133.363 144.665 134.11C147.291 134.802 149.824 135.469 150.031 135.406L151.396 137.983L146.55 145.04L147.41 149.817C145.776 150.613 143.478 148.873 141.346 147.259C139.253 145.675 137.319 144.211 136.328 145.381C134.591 147.431 125.851 156.66 124.505 156.783C124.273 156.711 124.045 156.644 123.822 156.581C123.569 156.509 123.322 156.442 123.08 156.376C121.093 155.832 119.487 155.393 117.937 153.492C115.525 150.532 98.384 125.223 97.9231 123.942C96.4939 119.971 95.8961 116.987 98.6468 115.605C106.345 111.735 118.313 100.856 122.812 94.2981C121.445 92.6242 120.145 92.1881 118.637 91.6825C117.126 91.1759 115.407 90.5994 113.203 88.6381C104.39 80.7972 108.334 66.044 117.673 59.1109C127.069 52.1349 139.127 48.0199 148.232 58.0481C149.581 59.5338 150.807 61.3958 152.059 63.2973C153.563 65.5816 155.105 67.9239 156.945 69.7403Z" fill="#F5123B" fill-opacity="0.5"/>
<path d="M149.963 146.879C150.242 146.81 150.527 146.751 150.816 146.703L161.537 136.689C160.842 136.429 160.135 136.007 159.419 135.58C158.175 134.837 156.909 134.081 155.647 134.142L156.523 136.988L151.167 140.739L149.963 146.879Z" fill="#F5123B" fill-opacity="0.5"/>
<path d="M193.5 132L190 131.5L176.234 140.196L179.54 140.738L193.5 132Z" fill="#F5123B" fill-opacity="0.5"/>
<path d="M172.364 136.025L176.234 135.028L167.624 147.861L163.309 146.567L172.364 136.025Z" fill="#F5123B" fill-opacity="0.5"/>
<path d="M170 127.147L165.628 125.596L162.84 140.664L168.5 136.988L170 127.147Z" fill="#F5123B" fill-opacity="0.5"/>
<path d="M179.54 153.615L182.582 148.323L187.556 146.284L187.804 142.924C186.862 141.731 185.829 140.655 184.716 139.731L174.142 148.993C176.412 149.579 178.29 151.383 179.54 153.615Z" fill="#F5123B" fill-opacity="0.5"/>
</svg>
