<svg width="107" height="32" viewBox="0 0 107 32" fill="none" xmlns="http://www.w3.org/2000/svg">
<g id="Logo">
<g id="Vector">
<path fill-rule="evenodd" clip-rule="evenodd" d="M37.0124 24.8907V7.11022H37.9781C39.3959 7.11022 39.5424 4.86281 37.9781 4.86281H33.7648C32.2355 4.86281 32.2446 7.11022 33.7648 7.11022H34.7587V24.8907H33.7648C32.2355 24.8907 32.2446 27.1381 33.7648 27.1381H37.9781C39.3959 27.1381 39.5424 24.8907 37.9781 24.8907H37.0124ZM69.1302 25.686V12.7564C69.1302 11.2963 66.9796 11.3422 66.9796 12.7564V24.6136C64.8212 24.6136 62.095 24.9876 61.1124 23.9831C60.7013 23.5625 60.4957 23.0474 60.4957 22.4376V12.7564C60.4957 11.3173 58.3133 11.326 58.3133 12.7564V22.4376C58.3133 24.8939 60.1983 26.7582 62.6463 26.7582H68.0549C68.7719 26.7582 69.1302 26.4009 69.1302 25.686ZM73.6691 18.1488C73.6691 13.933 73.7697 13.8285 77.9707 13.8285C80.5886 13.8285 80.1531 16.6993 80.1531 18.1488H73.6691ZM73.6691 20.2933H81.2284C82.7363 20.2933 82.3037 18.5513 82.3037 15.9728C82.3037 13.5741 80.4465 11.6839 77.9707 11.6839C75.8428 11.6839 74.3044 11.4169 72.7517 12.9455C71.9083 13.7655 71.4867 14.7745 71.4867 15.9728V22.4376C71.4867 24.8939 73.3717 26.7582 75.8197 26.7582C77.3879 26.7582 81.4839 27.0492 82.019 26.4271C82.5446 25.8157 82.3825 24.6136 81.2284 24.6136H75.8197C73.245 24.6136 73.6691 21.767 73.6691 20.2933ZM94.813 12.8508C96.091 13.5214 95.1315 15.4442 93.8642 14.8059C89.3123 12.5136 85.6146 14.975 87.1588 15.9415L94.0539 20.4511C96.6449 22.1198 95.6983 26.7265 89.8473 26.7265C88.1926 26.7265 83.4088 25.7161 85.1029 23.857C86.3837 22.4512 88.6897 26.3223 92.8521 23.6992C93.381 23.3659 93.3512 22.5776 92.8521 22.2485L85.957 17.7388C83.8236 16.3142 84.1605 11.7156 90.195 11.7156C91.7554 11.7156 93.2948 12.0939 94.813 12.8508ZM102.167 11.6839C102.167 10.2067 102.443 6.00285 101.851 5.47164C101.205 4.89191 100.016 5.21135 100.016 6.29125V11.6839C99.1739 11.6839 97.8337 11.4676 97.8337 12.7564C97.8337 14.0422 99.2362 13.8285 100.016 13.8285V25.686C100.016 27.0828 102.167 27.1733 102.167 25.686V13.8285C104.379 13.8285 106.5 14.285 106.5 12.7564C106.5 11.2332 104.657 11.6839 102.167 11.6839ZM51.3348 24.5001C50.2348 25.213 47.3728 24.9236 45.5208 24.9236C44.2458 24.9236 43.2999 23.9385 43.2999 22.6765V9.32433C43.2999 8.0579 44.2509 7.10989 45.5208 7.10989C47.7467 7.10989 50.5183 6.72902 51.5634 7.7449C51.9989 8.16813 52.2169 8.69484 52.2169 9.32433V22.4486C50.4359 21.2504 49.0143 19.7806 48.0687 20.7712C46.7758 22.1256 49.3713 23.202 51.3348 24.5001ZM54.3071 23.8489C54.5805 22.8282 54.4378 11.3027 54.4378 9.32433C54.4378 6.85999 52.4847 4.86281 49.9959 4.86281C46.8624 4.86281 44.1572 4.36619 42.3526 6.16548C41.4816 7.03393 41.0461 8.08665 41.0461 9.32433V22.6765C41.0461 25.2127 42.9924 27.1381 45.5208 27.1381C48.6828 27.1381 51.4224 27.6369 53.262 25.8027C54.4239 26.5826 55.5144 27.7204 56.3978 26.796C57.582 25.5564 55.5138 24.6579 54.3071 23.8489Z" fill="white"/>
<path d="M4.80342 19.9291C4.56709 19.7837 4.42332 19.6402 4.29271 19.5099C4.22889 19.4462 4.16821 19.3856 4.1014 19.3295C3.99819 19.2428 3.94829 19.1832 3.91518 19.1436C3.85919 19.0766 3.85122 19.0671 3.71461 19.0815C3.60127 19.2985 3.77412 19.4973 3.93834 19.6863C4.04453 19.8085 4.14711 19.9265 4.16639 20.0426C4.09968 20.1176 3.96522 20.1937 3.81805 20.277C3.50057 20.4566 3.12393 20.6697 3.24067 20.9779C3.33744 21.0283 3.49865 21.0191 3.58979 20.9465C3.61941 20.923 3.64698 20.9008 3.67297 20.8799C3.93806 20.667 4.0389 20.586 4.46938 20.4752C4.70823 20.4137 5.04144 20.4739 5.18928 20.5882C5.23904 20.6267 5.33002 20.7618 5.44086 20.9265C5.59526 21.1558 5.78821 21.4424 5.96199 21.6047C6.16791 21.7971 6.22332 21.8144 6.44517 21.8836C6.47142 21.8918 6.50001 21.9007 6.53146 21.9107C6.77207 21.9874 6.81663 22.0148 6.87044 22.0479C6.89947 22.0658 6.93118 22.0853 6.99779 22.115C7.2505 22.228 7.2832 22.3228 7.32802 22.4526C7.35531 22.5317 7.38709 22.6238 7.47578 22.741C7.583 22.744 7.58343 22.7435 7.60848 22.7158C7.61842 22.7049 7.63224 22.6896 7.65816 22.6686C7.78677 22.5642 8.03444 22.5635 8.21948 22.696C8.43539 22.8506 8.53273 23.1344 8.60731 23.3518C8.65681 23.4961 8.69629 23.6112 8.75375 23.6399C8.91034 23.718 9.00333 23.6216 9.04195 23.4944C9.24751 22.8174 9.06335 22.6127 8.52286 22.2135C8.20012 21.9751 8.03227 21.9236 7.89681 21.8819C7.78665 21.8481 7.6979 21.8208 7.56468 21.705C7.31078 21.4844 7.07324 21.4224 6.88483 21.3732C6.7591 21.3404 6.65524 21.3133 6.58301 21.2486C6.60618 21.1987 6.64709 21.1721 6.70292 21.1357C6.77893 21.0863 6.88259 21.0188 7.00678 20.8501C7.01883 20.8337 7.03447 20.8138 7.05219 20.7912C7.17777 20.631 7.40791 20.3375 7.2074 20.237C7.0793 20.1746 7.0435 20.22 6.98627 20.2927C6.95958 20.3266 6.92823 20.3664 6.88067 20.4039C6.50412 20.7012 5.98731 20.6698 5.6109 20.4451C5.47879 20.3662 5.33282 20.2707 5.18462 20.1737C5.05676 20.09 4.92711 20.0052 4.80342 19.9291Z" fill="white"/>
<path d="M4.93766 13.2929C5.22521 13.1134 5.47881 13.003 5.83421 13.0093C5.83969 12.9385 5.84217 12.8648 5.84469 12.7899C5.85209 12.5697 5.85984 12.3391 5.94537 12.1421C5.99693 12.0234 6.43785 11.3312 6.5953 11.3907C6.70363 11.4317 6.73554 11.5819 6.69082 11.7104C6.67785 11.7476 6.66063 11.7803 6.64326 11.8133C6.63119 11.8362 6.61905 11.8593 6.60821 11.884C6.42366 12.3063 6.29446 13.1233 6.63584 13.5011C6.97767 13.8793 7.47621 14.0454 7.9566 14.0765C8.00502 14.0796 8.05168 14.0708 8.09853 14.062C8.17469 14.0477 8.25138 14.0333 8.33704 14.0697C8.68387 14.3876 8.03848 14.3828 7.84383 14.3813C7.83937 14.3812 7.83514 14.3812 7.83117 14.3812C7.82413 14.3811 7.81789 14.3811 7.81255 14.3811C7.46366 14.3819 6.69668 14.2171 6.45682 13.9453C6.36686 13.8434 6.25564 13.7162 6.21596 13.5998C6.04191 13.593 5.93283 13.6259 5.79075 13.6781C5.50478 13.783 5.06503 13.9637 4.90335 14.2301C4.63706 14.6689 4.64456 14.8767 4.65796 15.2484C4.66158 15.3488 4.66563 15.4611 4.66484 15.5932C4.66345 15.8251 4.64286 15.8244 4.56528 15.8219L4.56071 15.8217C4.5594 15.8217 4.55807 15.8217 4.55672 15.8216C4.55577 15.8216 4.55481 15.8216 4.55384 15.8215C4.23041 15.813 4.35737 14.6443 4.39043 14.379C4.31784 14.3902 4.28494 14.4059 4.24657 14.4242C4.181 14.4556 4.09946 14.4945 3.77649 14.5314C3.34736 14.5803 2.9312 14.5756 2.60579 14.2355C2.38349 14.0031 2.38516 13.9313 2.38777 13.8187C2.38852 13.7863 2.38935 13.7505 2.38492 13.7064C2.52185 13.683 2.54123 13.697 2.58969 13.7321C2.62699 13.759 2.6815 13.7984 2.82008 13.8428C2.95083 13.8847 3.16682 13.9329 3.31582 13.9515C3.95923 14.0319 4.04628 14.0003 4.61367 13.5607C4.66469 13.5212 4.71153 13.4802 4.75767 13.4398C4.81642 13.3884 4.87403 13.338 4.93766 13.2929Z" fill="white"/>
<path d="M5.33299 23.5143C5.47143 23.7419 5.66329 24.0574 5.89358 24.2861C5.91332 24.3057 5.93478 24.3272 5.95761 24.35C6.14807 24.5403 6.43368 24.8258 6.61015 24.9293C6.73906 25.005 6.73045 25.0451 6.71144 25.1338C6.70535 25.1622 6.69819 25.1956 6.69414 25.2367C5.97774 25.2479 5.3599 24.7665 5.02568 24.1477C4.95732 24.0212 4.94751 24.0193 4.81072 23.9927C4.8054 23.9917 4.79989 23.9906 4.79418 23.9895C4.78354 23.9874 4.7722 23.9852 4.76009 23.9828C4.62512 23.9555 4.09014 23.7145 3.93295 23.6327C3.80589 23.5666 3.26484 23.1608 3.13791 23.0191C3.05622 22.9279 3.02283 22.8729 2.98551 22.8115C2.95878 22.7675 2.92999 22.7201 2.88 22.6537C2.99454 22.4769 3.00966 22.4884 3.21293 22.6425C3.2882 22.6996 3.3893 22.7763 3.53075 22.8703C3.98479 23.1498 4.60568 23.1869 4.92689 23.2061C5.03836 23.2127 5.11384 23.2172 5.13357 23.229C5.17413 23.2531 5.24202 23.3648 5.33299 23.5143Z" fill="white"/>
<path d="M7.76117 7.92496C7.68939 7.9854 7.61064 8.04595 7.53282 8.10579C7.49176 8.13735 7.45097 8.16872 7.41159 8.19977C6.98492 8.69149 7.00695 9.01445 7.03445 9.4176C7.04028 9.50302 7.04635 9.59203 7.04845 9.68702L7.19889 9.7245C7.37 9.56065 7.38174 9.49164 7.40556 9.35169C7.41504 9.29596 7.42644 9.22898 7.45057 9.14029C7.5057 8.9377 7.63618 8.75507 7.78057 8.60948C8.18222 8.20451 8.43221 8.16531 8.57408 8.14307C8.70493 8.12255 8.74381 8.11646 8.72489 7.85114C8.70648 7.84578 8.68763 7.84043 8.66848 7.835C8.43988 7.77012 8.16698 7.69267 8.05688 7.44152C7.94516 7.18667 7.94348 7.07624 7.99014 6.79524C8.02197 6.60343 8.10463 6.54488 8.18381 6.48878C8.22961 6.45633 8.27426 6.42471 8.30722 6.36859C8.35789 6.28236 8.3168 6.1782 8.28648 6.10573C8.13775 6.08013 8.10959 6.08562 7.99468 6.16277C7.94002 6.19948 7.88213 6.22478 7.82479 6.24984C7.65667 6.32331 7.49319 6.39475 7.42911 6.74585C7.39513 6.93218 7.37116 7.27847 7.45855 7.42918C7.55409 7.59393 7.56577 7.62854 7.57249 7.64843C7.58147 7.67503 7.58158 7.67533 7.76117 7.92496Z" fill="white"/>
<path d="M4.90591 11.0167C4.94804 11.1285 4.99396 11.2503 4.99999 11.428C4.99342 11.4424 4.98845 11.4535 4.98467 11.4619C4.97553 11.4823 4.97328 11.4873 4.97226 11.487C4.97211 11.487 4.97238 11.4873 4.97226 11.487C4.97213 11.4868 4.97161 11.486 4.97147 11.4856C4.97005 11.4813 4.96679 11.4716 4.93338 11.5071C4.66692 11.7903 4.59642 11.5437 4.5332 11.3226C4.5255 11.2957 4.5179 11.2691 4.51008 11.2439C4.40021 10.8908 4.39679 10.3921 4.39397 9.98207C4.39359 9.92635 4.39322 9.87226 4.3926 9.8204C4.3908 9.67191 4.3855 9.54348 4.38074 9.42834C4.36405 9.02456 4.35412 8.78428 4.52634 8.4156C4.53841 8.41471 4.5497 8.41384 4.56027 8.41303C4.70994 8.40149 4.71347 8.40122 4.70934 8.53487C4.70916 8.5409 4.70896 8.54695 4.70877 8.55303C4.69933 8.85169 4.68827 9.20175 5.11233 9.13334C5.15614 9.05534 5.16676 8.99285 5.17752 8.9295C5.18916 8.86097 5.20097 8.79145 5.25516 8.70023C5.34762 8.54457 5.4409 8.45321 5.73951 8.62518C5.8615 8.69545 5.79509 8.95411 5.75202 9.07813C5.72969 9.14244 5.64032 9.22806 5.53364 9.33027C5.37025 9.48681 5.16623 9.68227 5.10018 9.89969C5.08393 9.93984 5.06514 9.99119 5.04582 10.044C5.01496 10.1284 4.98268 10.2166 4.95728 10.2687C4.76922 10.6542 4.83169 10.8199 4.90591 11.0167Z" fill="white"/>
<path d="M9.51276 14.357C9.51036 14.2734 9.50792 14.1885 9.51489 14.101C9.59948 14.0448 9.70962 14.0496 9.76233 14.1531C9.83461 14.295 9.88778 15.4588 9.74752 15.6635C9.58509 15.9004 9.22356 16.0086 8.89871 15.8204C8.89513 15.8176 8.89126 15.8145 8.88713 15.8113L8.8745 15.8014C8.75493 15.7079 8.4768 15.4904 8.48694 15.3946C8.4978 15.2918 8.6243 15.2389 8.73115 15.2788C8.75165 15.2865 8.77053 15.2941 8.7882 15.3011C8.94449 15.3637 9.00658 15.3885 9.27226 15.1141C9.52695 14.851 9.52002 14.6099 9.51276 14.357Z" fill="white"/>
<path d="M8.8743 25.9834C8.61233 26.0208 8.54006 25.9797 8.3721 25.8428C8.33658 25.8138 8.30045 25.7865 8.26441 25.7593C8.16945 25.6876 8.07505 25.6163 7.99388 25.5158C7.96685 25.4823 7.74413 25.1032 7.74673 25.068C7.7526 24.9885 8.06954 24.9049 8.23793 25.0343C8.60881 25.3196 8.91119 25.3597 9.12617 25.3881C9.29668 25.4107 9.41221 25.426 9.46331 25.5506C9.54461 25.7488 9.4635 25.773 9.3362 25.811C9.27769 25.8285 9.20942 25.8489 9.14267 25.8904C9.06052 25.9415 8.98285 25.9679 8.8743 25.9834Z" fill="white"/>
<path fill-rule="evenodd" clip-rule="evenodd" d="M4.8876 26.6063C5.33695 26.6067 5.58775 26.7509 5.83996 26.8959C6.23054 27.1205 6.62451 27.3471 7.76459 27.0446C7.93163 27.0024 8.12716 26.9903 8.33737 26.9773C8.66147 26.9572 9.02048 26.935 9.3638 26.7973C10.0482 26.5228 10.2683 26.1943 10.4532 25.7713C10.6041 25.426 10.6236 25.0309 10.6514 24.468C10.6576 24.341 10.6643 24.2054 10.673 24.0599V6.55023C10.6093 5.85002 10.3385 5.57235 9.92378 5.14697C9.89576 5.11822 9.86708 5.08881 9.83776 5.05854C9.72921 4.9571 9.58528 4.89389 9.4228 4.82881C9.19258 4.73663 8.88527 4.88605 8.67353 4.98939C8.61157 5.01962 8.56442 5.04407 8.52706 5.06344C8.45175 5.10248 8.41613 5.12095 8.37919 5.12461C8.3462 5.12789 8.31208 5.11938 8.24749 5.10329C8.18088 5.08669 8.08187 5.06201 7.91827 5.03385C7.51518 4.96446 6.98971 5.17544 6.74474 5.49473C6.72183 5.52459 6.70136 5.55185 6.68265 5.57677C6.51038 5.80622 6.48728 5.837 6.08516 5.86352C5.86314 5.87813 5.32943 6.07493 5.14577 6.23321C5.07128 6.2974 5.03213 6.38845 4.99624 6.47193C4.96719 6.53951 4.94027 6.60213 4.89846 6.6415C4.80409 6.73034 4.7186 6.81598 4.63328 6.90145C4.50575 7.0292 4.37856 7.15661 4.22266 7.29376C3.82671 7.64195 3.64456 8.09191 3.47823 8.58855C3.43604 8.71452 3.41544 8.83663 3.39581 8.95301C3.35615 9.1881 3.32044 9.39977 3.11876 9.57248C2.67298 9.95429 2.15492 10.6211 2.11386 11.2203C2.10109 11.4071 2.09799 11.7143 2.11887 11.8964C2.12404 11.9414 2.12905 11.9816 2.13357 12.0177C2.17347 12.3371 2.17412 12.3423 1.89203 12.6408C1.51113 13.0439 1.33868 13.4116 1.14837 13.8174C1.07323 13.9776 0.995301 14.1438 0.900659 14.3204C0.541686 14.9903 0.662649 15.548 0.742718 15.9172C0.778063 16.0801 0.805439 16.2063 0.780048 16.2893C0.763627 16.3429 0.704454 16.4479 0.648233 16.5476C0.611805 16.6122 0.576617 16.6746 0.555101 16.7195C0.434472 16.9707 0.538376 17.193 0.615458 17.3579C0.643999 17.419 0.668864 17.4722 0.67729 17.5161C0.693155 17.5988 0.673915 17.6408 0.651493 17.6897C0.639061 17.7168 0.625651 17.7461 0.616703 17.7856C0.513051 18.2433 0.515588 19.1492 0.754502 19.5284C0.789631 19.5842 0.819296 19.6214 0.843827 19.6523C0.913703 19.7401 0.941929 19.7756 0.93615 20.0364C0.932452 20.2031 0.883626 20.3712 0.834194 20.5415C0.752972 20.8211 0.670116 21.1065 0.783142 21.4005C0.803663 21.4539 0.848559 21.5204 0.896455 21.5913C0.94378 21.6613 0.994033 21.7357 1.0266 21.8061C1.08121 21.9242 1.08588 22.0913 1.09102 22.2751C1.09736 22.5016 1.1044 22.7537 1.20654 22.971C1.28317 23.1341 1.35646 23.1829 1.46558 23.2556C1.4898 23.2717 1.51579 23.289 1.54397 23.309C1.70466 23.423 1.78966 23.6059 1.88225 23.8051C1.99104 24.0392 2.11031 24.2958 2.37513 24.4897C2.526 24.6002 2.63994 24.6405 2.72662 24.6713C2.8472 24.714 2.91505 24.738 2.95621 24.906C3.07879 25.4064 3.30852 25.8323 3.6908 26.1803C3.89372 26.365 4.3427 26.5661 4.60305 26.6127C4.70369 26.6307 4.73346 26.6248 4.77221 26.6172C4.79837 26.6121 4.82864 26.6062 4.8876 26.6063ZM10.1721 24.6487C10.1294 24.8176 10.1186 24.954 10.1089 25.075C10.0876 25.3424 10.0724 25.5342 9.73306 25.8331C9.53972 26.0033 9.32629 26.1689 9.08484 26.2605L9.03728 26.2786C8.72055 26.3988 8.59053 26.4481 8.45647 26.467C8.3632 26.4801 8.26795 26.4785 8.10643 26.4758C8.01549 26.4743 7.9034 26.4724 7.759 26.4726C7.5804 26.4728 7.41818 26.4952 7.26076 26.5168C7.01393 26.5508 6.77889 26.5832 6.51096 26.5262C6.37384 26.497 6.23267 26.4347 6.09393 26.3735C6.06219 26.3595 6.0305 26.3455 5.99909 26.3321C5.69859 26.2031 5.60304 26.046 5.53161 25.9285C5.45948 25.8099 5.41195 25.7318 5.2028 25.7639C5.11873 25.7769 5.05047 25.7931 4.99082 25.8072C4.74691 25.8651 4.64652 25.8889 4.19638 25.517C3.85166 25.2321 3.84197 25.1933 3.76396 24.8805C3.74628 24.8096 3.72508 24.7246 3.69567 24.6195C3.6038 24.2911 3.39982 24.1696 3.19672 24.0486C2.99422 23.928 2.7926 23.8079 2.70383 23.4838C2.6948 23.4508 2.68564 23.4166 2.67628 23.3816C2.63848 23.2402 2.59751 23.087 2.54954 22.9602C2.50197 22.8345 2.40571 22.7746 2.30941 22.7146C2.15181 22.6164 1.99407 22.5182 2.04931 22.1314C2.07066 22.2431 2.12891 22.3771 2.19525 22.4114C2.27863 22.4545 2.38243 22.4131 2.47517 22.3761C2.50342 22.3648 2.53065 22.3539 2.55596 22.346C2.40104 21.9344 2.35547 21.6267 2.321 21.1153C2.31087 21.1124 2.30128 21.1094 2.29212 21.1066C2.20478 21.08 2.15636 21.0652 2.04807 21.1153C2.02573 21.177 2.01831 21.3028 2.01814 21.4463C2.00251 21.4462 1.98629 21.4467 1.96953 21.4472C1.87166 21.4504 1.75533 21.4542 1.6307 21.325C1.36597 21.0506 1.43037 20.7863 1.5038 20.485C1.58403 20.1558 1.67505 19.7824 1.35946 19.303C1.1802 19.0307 1.2252 18.6831 1.3311 18.3814C1.3555 18.418 1.38429 18.4582 1.41853 18.5042C1.45812 18.5574 1.48905 18.6001 1.51508 18.636C1.62565 18.7886 1.64768 18.819 1.86861 19.0144C2.0713 19.1937 2.13101 19.2242 2.22454 19.272C2.2769 19.2988 2.33985 19.331 2.44442 19.3977C2.57042 19.4781 2.68498 19.4872 2.86432 19.4528C2.86913 19.3815 2.85013 19.366 2.79467 19.3204C2.75625 19.2889 2.70035 19.2431 2.62275 19.1544C2.56015 19.0829 2.53992 19.0704 2.52197 19.0593C2.49772 19.0443 2.47763 19.0319 2.36283 18.88L1.85678 18.2229C1.83639 18.1726 1.82937 18.1502 1.82565 18.1383C1.82365 18.1319 1.8226 18.1286 1.82093 18.1256C1.81911 18.1223 1.81654 18.1195 1.81116 18.1135C1.80359 18.1051 1.79044 18.0906 1.76594 18.0599C1.68991 17.9618 1.65002 17.8627 1.61366 17.7723C1.54819 17.6096 1.49417 17.4754 1.26134 17.4269C1.25821 17.4303 1.25514 17.4337 1.25215 17.4371C1.14304 17.2621 1.06587 17.0902 1.23015 16.8737C1.23829 16.8629 1.24624 16.8525 1.25401 16.8424C1.40125 16.6496 1.47945 16.5472 1.4284 16.1289C1.38817 15.7992 1.42819 15.0216 1.54756 14.679C1.67894 14.3019 2.05676 13.5995 2.33743 13.3039C2.34857 13.2921 2.35971 13.2804 2.37085 13.2686C2.5191 13.1122 2.6688 12.9542 2.84426 12.8288C2.84721 12.7176 2.81809 12.6487 2.78353 12.5669C2.71659 12.4084 2.62924 12.2017 2.71513 11.5453C2.72139 11.4975 2.72576 11.4564 2.72964 11.42C2.74538 11.2723 2.75283 11.2024 2.84475 11.0709C3.07071 10.7684 3.2665 10.5726 3.52744 10.3117L3.55814 10.281C3.8004 10.0435 3.88768 9.62742 3.96982 9.23592C4.01214 9.03418 4.05309 8.83896 4.11318 8.67808C4.21115 8.41576 4.33169 8.25366 4.47154 8.06559C4.50643 8.01867 4.54253 7.97013 4.57977 7.91801C4.85082 7.53879 5.01474 7.51402 5.12787 7.49692C5.1927 7.48712 5.24086 7.47984 5.28294 7.40984C5.34183 7.31188 5.3676 7.21776 5.39147 7.13054C5.44146 6.94794 5.48317 6.79555 5.80328 6.70129C6.23016 6.57559 6.47249 6.57298 6.63151 6.57127C6.8176 6.56927 6.88957 6.5685 7.00966 6.3731C7.31729 5.87254 7.48127 5.67547 8.19504 5.79504C8.2175 5.7988 8.26069 5.80734 8.31434 5.81794C8.49217 5.85309 8.78492 5.91095 8.81833 5.89272C8.84944 5.87573 8.86275 5.85592 8.8762 5.83588C8.90998 5.78557 8.94469 5.73387 9.26452 5.72213C9.42629 5.71616 9.65156 5.76557 9.78103 5.8336C9.96677 5.93121 10.1068 6.33353 10.1721 6.58446V10.6128C10.1666 10.6017 10.1607 10.5907 10.1543 10.5801C9.95921 10.5433 9.92862 10.5603 9.84564 10.678C9.7907 10.756 9.66568 10.8162 9.52857 10.8823C9.45728 10.9166 9.38273 10.9525 9.31306 10.9933C9.28021 11.0125 9.24251 11.0338 9.20134 11.057C8.84778 11.2563 8.23775 11.6002 8.23292 12.056C8.41803 12.1535 8.51266 12.0669 8.65881 11.9332C8.75854 11.8419 8.88226 11.7287 9.0751 11.6371C9.29936 11.5305 9.50502 11.4342 9.741 11.3756C9.77738 11.3666 9.80933 11.362 9.83887 11.3577C9.94419 11.3425 10.0189 11.3317 10.1539 11.1405L10.1721 11.1135V19.1976C9.41604 19.1722 9.1245 19.0563 8.62386 18.7221C8.43704 18.6269 8.03945 18.0512 8.02154 17.817C8.21682 17.6594 8.30727 17.379 8.26644 17.131C8.25651 17.0707 8.24839 17.0144 8.24075 16.9614C8.20557 16.7176 8.18059 16.5444 8.03553 16.3741C7.9332 16.3858 7.86908 16.4265 7.79591 16.473C7.79218 16.4754 7.78843 16.4777 7.78465 16.4801C7.78152 16.4821 7.77837 16.4841 7.7752 16.4861L7.77277 16.4876C7.77128 16.4886 7.76977 16.4895 7.76827 16.4904C7.76494 16.5861 7.78454 16.6711 7.80356 16.7535C7.84424 16.9299 7.8823 17.0949 7.6879 17.3289C7.51566 17.5361 7.41054 17.5245 7.17773 17.4988C7.08721 17.4889 6.97737 17.4767 6.83679 17.4745C6.30733 17.4662 5.92463 17.4927 5.48398 17.7306C5.44943 17.7492 5.41361 17.7691 5.37753 17.7891C5.2874 17.839 5.19563 17.8899 5.11797 17.9252L5.07908 18.281C5.05777 18.4762 5.15171 18.4228 5.3328 18.3198C5.44386 18.2566 5.58771 18.1748 5.75785 18.1203C6.17767 17.9858 6.86562 17.8755 7.31148 18.1756C7.53709 18.3125 7.58957 18.4458 7.64383 18.5836C7.69144 18.7046 7.74042 18.829 7.90893 18.9624C7.97876 19.0177 8.04202 19.0763 8.10595 19.1356C8.37211 19.3822 8.64983 19.6395 9.46077 19.7109C9.51187 19.7096 9.56105 19.7087 9.60893 19.7078C9.80439 19.7042 9.97812 19.701 10.1721 19.6699V24.6487Z" fill="white"/>
<path fill-rule="evenodd" clip-rule="evenodd" d="M18.624 9.28187C18.6442 9.26021 18.6647 9.23209 18.6855 9.19679C18.9015 8.82964 18.5831 8.43002 18.3127 8.09066C18.2321 7.98942 18.1557 7.89354 18.099 7.80549C18.0443 7.7204 17.6692 7.42839 17.5926 7.38383C17.4762 7.31619 17.3811 7.18073 17.2801 7.03688C17.17 6.87999 17.0528 6.71313 16.8934 6.61338L16.0427 6.11068C15.9703 6.07053 15.5905 5.99155 15.4861 5.9753C15.4631 5.97173 15.4374 5.97124 15.4092 5.97071C15.2928 5.9685 15.134 5.96549 14.9503 5.74119C14.7723 5.52393 14.5058 5.4297 14.2781 5.34918C14.1645 5.30901 14.0605 5.27225 13.982 5.22533C13.8911 5.17104 13.6837 5.10728 13.6049 5.08459C13.5709 5.07484 13.5322 5.04412 13.4845 5.00628C13.3364 4.88868 13.1014 4.70222 12.653 4.86177C12.3911 4.97511 11.8927 5.2354 11.7872 5.52154C11.7415 5.65086 11.7152 5.76144 11.6897 5.86911C11.6714 5.94632 11.6534 6.02207 11.6289 6.10213C11.5983 6.20179 11.5617 6.28466 11.5253 6.36674C11.4699 6.49198 11.4153 6.61538 11.3845 6.7938C11.3787 6.82703 11.3725 6.85981 11.3663 6.89236C11.3439 7.00939 11.3222 7.12331 11.3278 7.2432V25.6406C11.4571 26.1999 11.7419 26.379 11.8908 26.4726C11.916 26.4884 11.9373 26.5018 11.9533 26.5142C11.9979 26.5487 12.0404 26.5824 12.0817 26.6152C12.3389 26.8192 12.5494 26.9863 12.9427 27.0766C13.0363 27.0981 13.0985 27.1153 13.1488 27.1292C13.2688 27.1624 13.3217 27.1771 13.5756 27.1876C14.0547 27.2073 14.4681 27.1428 14.9286 27.0417C15.0708 27.0106 15.176 27.0191 15.314 27.0303C15.5071 27.0459 15.7645 27.0667 16.2772 26.9911C16.6365 26.9381 16.6614 26.9194 16.7275 26.8698C16.7786 26.8315 16.8543 26.7748 17.1278 26.6694C17.2048 26.6398 17.2416 26.6121 17.2743 26.5876C17.324 26.5502 17.364 26.5201 17.5215 26.5016C18.1479 26.4277 18.5534 25.9809 19.0714 25.2276C19.1141 25.1622 19.8392 24.5273 19.8771 24.5065C20.4076 23.9828 20.4307 23.8946 20.4887 23.674C20.5145 23.5759 20.5472 23.4515 20.6345 23.2508C20.6601 23.1921 20.6848 23.1245 20.711 23.0524C20.8099 22.7813 20.9319 22.4468 21.2139 22.2796C21.387 22.177 21.4752 21.9105 21.549 21.6874C21.5705 21.6225 21.5909 21.5608 21.6117 21.5084C21.6543 21.4009 21.6907 21.3115 21.7216 21.2356C21.8134 21.01 21.857 20.9028 21.8734 20.7918C21.8881 20.6919 21.8808 20.5887 21.867 20.3927L21.8652 20.3673C21.8355 19.9428 21.8892 19.6599 21.9429 19.3774C21.9863 19.1489 22.0297 18.9207 22.0288 18.6178C22.0285 18.4981 22.0304 18.3954 22.0322 18.2937C22.0347 18.1624 22.0371 18.0323 22.0345 17.8699C22.0259 17.3309 21.9713 17.2383 21.9112 17.1365C21.8808 17.085 21.849 17.0311 21.821 16.9159C21.7695 16.703 21.6998 16.5766 21.5674 16.412C21.5431 16.3818 21.5209 16.3528 21.4997 16.3252C21.3588 16.1417 21.2613 16.0146 20.8681 15.9272C20.8659 15.9268 20.8637 15.9264 20.8615 15.9262C20.8294 15.9201 20.795 15.9164 20.7553 15.9134C20.7391 15.9122 20.7208 15.9108 20.7005 15.9092C20.3409 15.8811 19.3786 15.8059 19.2397 16.0966C19.1308 16.3245 19.218 16.456 19.3118 16.5974C19.3636 16.6755 19.4175 16.7566 19.4414 16.8587C19.4614 16.9442 19.4633 17.1255 19.4349 17.2151C19.3565 17.4629 18.849 17.5016 18.6605 17.4294C18.216 17.2589 18.2775 17.0321 18.3559 16.7426C18.3772 16.6639 18.3998 16.5806 18.4138 16.4925C18.4251 16.4218 18.4417 16.233 18.4439 16.1578C18.4591 15.6372 17.4661 15.693 16.8745 15.7263C16.7456 15.7335 16.6358 15.7397 16.5596 15.7386C16.5577 15.667 16.553 15.5978 16.5484 15.529C16.5434 15.4535 16.5383 15.3785 16.537 15.3011C16.5364 15.2675 16.535 15.2286 16.5334 15.1861C16.5196 14.8145 16.4958 14.1726 16.9573 14.4676C17.4493 14.7819 17.8906 14.4601 18.0796 13.9648C18.1358 13.8174 18.122 13.445 18.112 13.1745C18.11 13.1219 18.1082 13.0731 18.1071 13.0306C18.0993 12.7332 18.067 12.5978 17.8581 12.4221C17.5048 12.1252 17.1427 12.3081 16.8889 12.4363C16.7995 12.4814 16.7235 12.5198 16.6661 12.528C16.6033 12.3714 16.5428 11.3313 16.5699 11.0826C16.9295 11.0623 17.2471 11.0453 17.5998 11.0386C17.6197 11.0383 17.6424 11.0381 17.6671 11.0379C17.8713 11.0364 18.2177 11.0338 18.3504 10.9049C18.5045 10.7549 18.5734 10.6235 18.4211 10.4051C18.2739 10.1942 18.1615 9.80198 18.3117 9.57794C18.3573 9.50997 18.418 9.46142 18.4807 9.41119C18.5292 9.37234 18.579 9.33249 18.624 9.28187ZM16.3939 7.26113C16.3929 7.22712 16.3925 7.19355 16.3921 7.16077C16.3917 7.13054 16.3913 7.10088 16.3905 7.0723C16.5024 7.1524 16.5236 7.18758 16.5488 7.22957C16.583 7.28662 16.6248 7.35626 16.9121 7.56826C17.0071 7.63831 17.0903 7.67201 17.1699 7.70426C17.3012 7.75746 17.4228 7.80672 17.5714 8.00876C17.602 8.05293 17.6727 8.1021 17.7426 8.15077C17.8169 8.20249 17.8904 8.25365 17.9143 8.29764C17.966 8.34746 18.025 8.49542 18.0912 8.6648C18.0915 8.66828 18.094 8.6748 18.099 8.68476L18.0996 8.6863C18.1116 8.71694 18.1238 8.74817 18.1362 8.77953C18.197 8.99706 18.0845 9.18153 18.0328 9.26639C18.0255 9.27827 18.0194 9.28827 18.0152 9.29605C17.735 9.67332 17.7989 9.86672 17.8773 10.1043C17.9198 10.2333 17.9667 10.3752 17.9651 10.5667C17.8099 10.6312 17.6143 10.6291 17.4168 10.627C17.3567 10.6264 17.296 10.6258 17.2367 10.627C17.0921 10.6301 16.9743 10.6355 16.8781 10.64C16.5253 10.6563 16.4633 10.6591 16.4402 10.4809C16.422 10.3406 16.4252 10.1598 16.4286 9.96867C16.4364 9.52852 16.4451 9.03341 16.1958 8.85144C16.0498 8.7448 15.9059 8.78111 15.7409 8.82278C15.6377 8.84885 15.5262 8.87701 15.4006 8.87356C15.1487 8.86667 14.9065 8.67577 14.9201 8.29509L14.9205 8.28469C14.9263 8.11735 14.9397 7.73348 15.2976 7.60932C15.5352 7.52685 15.7112 7.63232 15.8609 7.72203C16.0303 7.8236 16.1661 7.90498 16.3195 7.67057C16.4045 7.54061 16.4029 7.49962 16.3967 7.34121L16.3967 7.34032C16.3958 7.31674 16.3948 7.29057 16.3939 7.26113ZM20.7513 16.4793C20.5609 16.3733 20.3628 16.4594 20.1842 16.537C20.1091 16.5696 20.0374 16.6008 19.9712 16.6155C19.8651 16.6426 19.8648 16.7619 19.8642 16.9241C19.8637 17.083 19.8631 17.283 19.7627 17.4773C19.6939 17.6105 19.4648 17.8257 19.3495 17.8719C18.9463 18.0333 18.5355 17.97 18.1994 17.7266C17.8099 17.4447 17.7961 17.1225 17.7827 16.8098C17.7742 16.6126 17.7659 16.4192 17.6638 16.242L16.5624 16.2412C16.5521 16.3381 16.5493 16.5179 16.5462 16.7225C16.5399 17.1306 16.532 17.6373 16.4596 17.7804L16.2869 18.0005C16.1649 18.1928 15.8377 18.1457 15.5668 18.1068C15.4548 18.0907 15.3525 18.076 15.2782 18.0801C15.2632 18.1154 15.2429 18.1436 15.222 18.1726C15.1927 18.2133 15.1622 18.2557 15.1434 18.3215C15.0518 18.6429 15.1048 19.0309 15.2867 19.2881C15.5319 19.3166 15.6311 19.2742 15.7197 19.2365C15.7837 19.2092 15.8421 19.1842 15.946 19.19C16.6084 19.2267 16.5798 20.1382 16.56 20.769C16.5566 20.8766 16.5535 20.976 16.5541 21.0615C16.6219 21.0615 16.7242 21.0673 16.8431 21.0741C17.1924 21.0939 17.685 21.1218 17.8651 21.0341C18.1105 20.9144 17.9811 20.7021 17.8804 20.537C17.8596 20.5028 17.8399 20.4706 17.8251 20.4416C17.6331 20.0663 18.0241 19.6771 18.3597 19.5051C18.5838 19.3904 19.3407 19.3683 19.5892 19.7375C19.8272 20.0912 19.7755 20.2737 19.7233 20.4581C19.6931 20.5649 19.6627 20.6723 19.6883 20.8139C19.8822 20.9147 20.2221 20.8799 20.5532 20.8459C20.7603 20.8247 20.964 20.8038 21.1263 20.8167C21.1994 20.5745 21.2519 20.2889 21.2117 20.0194C21.1352 19.5067 21.2116 19.238 21.3049 18.9103C21.3459 18.7662 21.3901 18.6108 21.426 18.4182C21.5015 18.013 21.407 17.7357 21.3006 17.4234C21.2738 17.3447 21.2463 17.2639 21.2205 17.1782C21.1391 16.9078 20.949 16.6981 20.8123 16.5473C20.7904 16.5232 20.7698 16.5004 20.7513 16.4793ZM20.9079 21.3725C20.8773 21.3732 20.8386 21.3745 20.7935 21.3759C20.4059 21.3884 19.5489 21.4159 19.3566 21.2708C19.1071 21.0825 19.1978 20.8091 19.2818 20.5562C19.3634 20.3103 19.4386 20.0838 19.1885 19.9737C18.9723 19.8785 18.725 19.8085 18.4924 19.9228C18.3509 19.9923 18.3024 20.0665 18.287 20.1538C18.2581 20.3181 18.3088 20.4514 18.3598 20.5854C18.4289 20.7671 18.4985 20.95 18.3706 21.2132C18.2566 21.4477 17.2114 21.5039 16.9854 21.5037C16.8788 21.5036 16.7904 21.5148 16.6959 21.5267C16.65 21.5325 16.6026 21.5385 16.5511 21.5435C16.4912 21.8858 16.4849 22.671 16.7628 22.9492C16.7836 22.9376 16.8018 22.9263 16.819 22.9155C16.9082 22.8599 16.9741 22.8188 17.2654 22.831C17.9099 22.8581 18.07 23.637 17.9857 24.1746C17.9536 24.3799 17.9033 24.4628 17.8004 24.614C17.5665 24.9576 16.9737 24.94 16.7162 24.8302C16.5221 24.7473 16.5465 25.0206 16.5722 25.3084C16.5786 25.3809 16.5852 25.4543 16.5883 25.5232C16.5932 25.6297 16.6035 25.7373 16.6139 25.8467C16.6235 25.9475 16.6333 26.0498 16.6391 26.1541C16.7153 26.1158 16.7951 26.067 16.8801 26.0032C16.9962 25.916 17.1214 25.8957 17.2583 25.8734C17.5462 25.8266 17.8862 25.7713 18.3028 25.0696C18.3532 24.9848 19.1391 24.2709 19.2268 24.2107C19.4599 24.051 19.5414 23.8447 19.6155 23.657C19.6691 23.5213 19.7189 23.3954 19.8192 23.3037C19.97 23.166 20.2564 22.5859 20.4776 22.1379C20.6073 21.8753 20.7146 21.658 20.759 21.6018C20.8177 21.5275 20.8671 21.46 20.9079 21.3725ZM16.0537 26.3222C16.0482 26.2332 16.0486 26.1381 16.0491 26.0456C16.0496 25.9298 16.0501 25.8182 16.0388 25.7278C15.9924 25.3556 15.9114 24.6779 16.2267 24.4268C16.347 24.331 16.5236 24.2593 16.7077 24.3224C16.7979 24.3533 16.8423 24.3807 16.8774 24.4022C16.9475 24.4453 16.9802 24.4654 17.265 24.4451C17.7386 24.4114 17.588 23.6229 17.5192 23.5103C17.3778 23.2784 17.0618 23.3587 16.8223 23.4196C16.7222 23.4451 16.6354 23.4671 16.5803 23.4615C16.1389 23.4166 16.1162 23.2985 16.0625 23.0196C16.0511 22.9601 16.0382 22.8934 16.0196 22.8184C15.9423 22.507 15.9391 22.182 15.9356 21.8222C15.9349 21.7521 15.9342 21.6807 15.9329 21.6078C15.7814 21.6045 15.6347 21.6138 15.4939 21.6227C15.3937 21.629 15.2965 21.6352 15.2027 21.6365L15.1807 21.6368C14.8892 21.6408 14.7812 21.6422 14.4985 21.7276C14.5012 21.8224 14.5324 21.9014 14.565 21.9837C14.6275 22.1415 14.695 22.312 14.5765 22.6316C14.5024 22.8312 14.3405 22.9436 14.2158 23.0303L14.2072 23.0362C13.7987 23.2917 12.9214 23.1215 12.7436 22.5212C12.626 22.0849 12.7594 21.8997 12.8747 21.7396C12.9441 21.6433 13.0069 21.5561 13.0046 21.4288C12.7213 21.3251 12.4164 21.3655 12.139 21.4023C12.0304 21.4167 11.9259 21.4305 11.8287 21.4349V25.4586C11.8349 25.4707 11.8421 25.4866 11.8508 25.5057C11.9432 25.7092 12.2012 26.2775 13.1975 26.5545C13.6482 26.6798 14.2161 26.4581 14.3562 26.4034C14.3663 26.3995 14.3742 26.3964 14.3797 26.3944L14.3816 26.3936C14.3823 26.3934 14.3828 26.3932 14.3834 26.393C14.3839 26.3928 14.3845 26.3927 14.3849 26.3925L14.3858 26.3922C14.3862 26.3921 14.3866 26.392 14.3869 26.3919C14.5001 26.362 14.8559 26.3479 14.9891 26.3947C15.1062 26.4359 15.642 26.4423 15.7623 26.3989C15.8637 26.3625 15.9595 26.3407 16.0537 26.3222ZM11.8287 20.9317C12.5256 20.9167 13.6263 20.9586 13.4138 21.5876L13.2798 21.9957C12.9486 22.8986 14.2066 22.9709 14.2977 22.4522C14.3321 22.2562 14.2692 22.0827 14.2119 21.9247C14.1201 21.6717 14.0428 21.4583 14.4023 21.2563C14.6223 21.1327 14.9106 21.1367 15.1814 21.1405C15.2452 21.1413 15.3081 21.1422 15.3689 21.1414C15.4622 21.1401 15.5401 21.141 15.605 21.1418C15.7746 21.1437 15.8558 21.1446 15.8946 21.1037C15.9302 21.0661 15.9299 20.9932 15.9293 20.8532C15.9292 20.824 15.9291 20.7918 15.9293 20.7565C15.9294 20.7279 15.9299 20.6995 15.9303 20.6712C15.9318 20.577 15.9333 20.4837 15.9239 20.3891C15.9201 20.3508 15.9195 20.3047 15.9188 20.255C15.9164 20.0754 15.9133 19.8488 15.7592 19.7784C15.6877 19.7458 15.6041 19.7496 15.5092 19.7539C15.2888 19.7638 15.0077 19.7765 14.6784 19.3424C14.5495 19.1726 14.4883 18.6692 14.5177 18.4333C14.5652 18.1996 14.7096 17.8355 14.9063 17.7281C15.0686 17.6394 15.2894 17.6915 15.4921 17.7393C15.742 17.7983 15.9646 17.8508 16.0168 17.6255C16.1104 17.2217 16.1411 16.574 16.0907 16.1955C15.9773 16.1842 15.8228 16.1877 15.6519 16.1917C15.0358 16.206 14.2068 16.2252 14.3226 15.5673C14.3344 15.5002 14.353 15.439 14.371 15.3799C14.4191 15.2218 14.4626 15.079 14.358 14.8808C14.0626 14.3207 13.0717 14.4854 13.0426 15.0424C13.032 15.2466 13.1418 15.3725 13.2422 15.4876C13.3587 15.6212 13.4624 15.7402 13.35 15.9499C13.2151 16.2017 12.7888 16.1824 12.4529 16.1671C12.3579 16.1628 12.2702 16.1588 12.1983 16.1613C12.166 16.1625 12.1331 16.1645 12.1001 16.1665C12.0072 16.1721 11.9134 16.1778 11.8287 16.1649V20.9317ZM11.8287 15.7088C11.8309 15.7089 11.8331 15.7089 11.8354 15.709C11.9447 15.7132 12.0495 15.7232 12.1512 15.733C12.4237 15.7593 12.6735 15.7833 12.9268 15.6845C12.919 15.5817 12.8807 15.5293 12.8363 15.4685C12.7918 15.4076 12.7412 15.3384 12.7088 15.2015C12.5797 14.6544 13.1248 14.1817 13.6685 14.1626C14.1093 14.1471 14.4087 14.1622 14.6455 14.4932C14.9275 14.8874 14.8727 15.0835 14.8156 15.2874C14.7817 15.4087 14.7471 15.5326 14.782 15.7026C14.808 15.829 15.1368 15.8108 15.3313 15.8C15.3681 15.798 15.4002 15.7962 15.4245 15.7957C15.5131 15.794 15.5958 15.7891 15.6784 15.7842C15.8132 15.7763 15.948 15.7684 16.1074 15.7742C16.1027 15.6875 16.0994 15.6001 16.0961 15.5131L16.0961 15.5122C16.0887 15.317 16.0813 15.1239 16.0585 14.9447C16.0033 14.5106 16.0344 14.1874 16.3513 13.9595C16.558 13.8109 16.7589 13.8815 16.9648 13.954C17.0988 14.0011 17.2349 14.049 17.376 14.0376C17.5845 13.7846 17.6892 12.6959 17.1112 12.8358C17.0409 12.8528 16.9686 12.8816 16.8958 12.9106C16.665 13.0024 16.4305 13.0958 16.2471 12.8189C16.0544 12.5279 16.0601 11.8461 16.0643 11.3561C16.0652 11.2502 16.066 11.1533 16.0647 11.0712C15.7922 11.0405 14.9844 11.0299 14.7385 11.0478C14.7416 11.1549 14.7674 11.265 14.7946 11.3806C14.8447 11.5946 14.8994 11.8278 14.8233 12.0965C14.8169 12.119 14.8118 12.1392 14.8071 12.1583C14.792 12.2184 14.7799 12.2663 14.7411 12.3312C14.3306 13.0167 12.7275 12.763 12.8138 11.6809C12.8244 11.5486 12.8675 11.4717 12.9069 11.4013C12.9497 11.325 12.9881 11.2565 12.976 11.1338C12.8029 11.1205 12.1737 11.1503 12.0084 11.1708C11.9507 11.178 11.889 11.1756 11.8287 11.1676V15.7088ZM11.8287 10.5859V7.56697C11.9338 7.35875 11.9716 7.1879 12.0069 7.02824C12.0384 6.88568 12.068 6.75204 12.1417 6.60867C12.1753 6.5434 12.2052 6.44823 12.2386 6.34216C12.3531 5.97802 12.508 5.48528 12.9891 5.63186C13.0937 5.6637 13.219 5.66574 13.3498 5.66786C13.5059 5.67039 13.6698 5.67305 13.8155 5.72667L14.2605 5.98988C14.2915 6.00722 14.3219 6.0215 14.3514 6.03534C14.4269 6.07082 14.4963 6.10345 14.5558 6.17739C14.5598 6.18241 14.5639 6.18745 14.5679 6.19251C14.6459 6.28974 14.7293 6.39364 14.826 6.47275C14.8714 6.50216 14.9141 6.53482 14.9563 6.56702C15.1221 6.6938 15.2785 6.81342 15.5558 6.69986C15.6826 6.64792 15.7691 6.67639 15.9291 6.72908C15.9593 6.73903 15.9922 6.74987 16.0284 6.76118C16.0509 6.89488 16.0182 7.28219 15.9823 7.40109C15.8576 7.41165 15.8393 7.40243 15.7846 7.37498C15.7667 7.366 15.7449 7.35508 15.7143 7.34226C15.5055 7.25489 15.1402 7.18876 14.9477 7.3177C14.1286 7.86652 14.3797 9.2849 15.3458 9.22748C15.3921 9.22474 15.4426 9.21863 15.495 9.21229C15.6543 9.19303 15.8314 9.17161 15.9624 9.23589C16.0409 9.27441 16.0454 9.40965 16.0489 9.51783C16.0497 9.54223 16.0504 9.56525 16.052 9.58548C16.0625 9.7234 16.0132 10.5727 15.9543 10.6265C15.8876 10.6873 15.435 10.6719 15.0519 10.6589C14.8409 10.6518 14.651 10.6453 14.5581 10.6527C14.4189 10.6638 14.3455 10.6776 14.2596 10.8221C14.2045 10.9148 14.2404 11.0626 14.2812 11.2307C14.3367 11.4594 14.4014 11.7256 14.2581 11.9418C14.0936 12.19 13.5943 12.167 13.49 11.9198C13.4058 11.7203 13.462 11.5447 13.5208 11.3615C13.5662 11.2199 13.613 11.0738 13.5975 10.9087C13.5698 10.6139 13.1593 10.6076 12.8954 10.6036C12.8617 10.6031 12.8302 10.6026 12.8024 10.6015C12.5818 10.5933 12.1525 10.583 11.8287 10.5859Z" fill="white"/>
<path fill-rule="evenodd" clip-rule="evenodd" d="M24.5139 6.77698C24.6078 6.85529 24.8934 6.93027 25.0455 6.92725C25.1914 6.92435 25.295 6.92043 25.3763 6.91736C25.6139 6.90839 25.6599 6.90665 26.011 6.95866C26.1771 7.09948 26.1704 7.40546 26.1667 7.57989C26.1655 7.63603 26.1645 7.67854 26.1698 7.69753C26.1671 7.83983 26.1718 7.96668 26.1761 8.08348C26.1908 8.47833 26.2012 8.75831 25.9079 9.13202C25.7676 9.31088 25.4474 9.2692 25.1823 9.23469C25.0731 9.22049 24.9733 9.2075 24.8992 9.21161C24.8842 9.24691 24.8639 9.27512 24.843 9.30418C24.8137 9.34489 24.7832 9.38724 24.7644 9.45304C24.6728 9.77445 24.7257 10.1624 24.9077 10.4197C25.1529 10.4481 25.2521 10.4058 25.3407 10.368C25.4046 10.3407 25.4631 10.3158 25.5669 10.3215C26.4268 10.3692 26.1971 11.8883 26.1049 12.4979C26.0891 12.6026 26.0773 12.6804 26.0758 12.7194C26.0393 12.7213 25.9991 12.7233 25.9558 12.7255C25.4471 12.7509 24.5129 12.7975 24.1195 12.9163C24.1269 13.0192 24.158 13.1 24.1887 13.1799C24.2465 13.3304 24.3031 13.4776 24.1974 13.7631C24.1276 13.9519 24.0239 14.1058 23.8971 14.1867C23.3473 14.5376 22.311 14.1557 22.349 13.3218C22.3569 13.1486 22.426 13.042 22.4931 12.9384C22.5619 12.8322 22.6287 12.729 22.6255 12.5603C22.2673 12.4291 21.921 12.4739 21.6014 12.5152C21.3418 12.5487 21.0998 12.5799 20.8832 12.5128C20.8758 12.5105 20.8692 12.5093 20.8631 12.5081C20.8174 12.4995 20.8043 12.497 20.7859 12.1182C20.7708 11.8069 20.7845 10.956 20.7948 10.6608C20.7958 10.6322 20.7963 10.6 20.7968 10.5653C20.8007 10.2935 20.8068 9.87032 21.093 9.84187C21.2533 9.82595 21.3952 9.87416 21.5326 9.92089C21.7105 9.98134 21.881 10.0393 22.0747 9.95263C22.3146 9.84522 22.337 9.33085 22.0961 9.16145C21.8677 9.00086 21.5997 9.07462 21.3953 9.13089C21.2739 9.16431 21.175 9.19156 21.12 9.15986C21.105 9.14034 21.0903 9.1224 21.0761 9.10522C21.0143 9.02997 20.9644 8.96916 20.9556 8.8524C20.942 8.67069 20.9591 7.21135 20.9756 7.14854C21.0267 6.95374 21.0833 6.82029 21.2259 6.84057C21.6248 6.89734 22.2 6.95167 22.5478 6.81605C22.54 6.7132 22.5017 6.66081 22.4573 6.60005C22.4128 6.53917 22.3621 6.46988 22.3298 6.33302C22.2007 5.78592 22.7458 5.31323 23.2895 5.29414C23.8365 5.27491 24.4094 5.44031 24.4914 6.08128C24.5035 6.17624 24.5009 6.28263 24.4983 6.3913C24.4951 6.52186 24.4918 6.65571 24.5139 6.77698ZM21.4984 7.29898C21.4621 7.30227 21.4298 7.3052 21.3767 7.3039C21.3933 7.51027 21.4018 7.86595 21.3781 8.09809C21.3726 8.15171 21.3676 8.19533 21.3632 8.23321C21.3464 8.37968 21.3394 8.44012 21.3545 8.65957C21.462 8.65624 21.556 8.62886 21.6513 8.60108C21.8186 8.5523 21.9902 8.50231 22.2463 8.57933C22.2681 8.58585 22.2877 8.59109 22.3062 8.59602C22.3646 8.61159 22.4112 8.62402 22.4742 8.66401C23.1371 9.08508 22.9127 10.7217 21.9955 10.672C21.8833 10.6625 21.8139 10.6233 21.7422 10.5828C21.643 10.5267 21.5394 10.4681 21.3117 10.482C21.2812 10.7103 21.3045 10.9461 21.3275 11.1782C21.3558 11.4649 21.3836 11.746 21.309 12.0006C21.9801 11.9783 23.2643 12.0399 23.0348 12.7192C23.0143 12.784 23.0033 12.8248 22.9938 12.8601C22.9758 12.9268 22.963 12.9742 22.9008 13.1272C22.7874 13.4064 22.8598 13.7632 23.1574 13.8665C23.4543 13.9696 23.8691 13.8657 23.9187 13.5837C23.9531 13.3878 23.8901 13.2143 23.8328 13.0562C23.7411 12.8032 23.6637 12.5899 24.0233 12.3878C24.2468 12.2623 24.5215 12.2669 24.7908 12.2715C24.8577 12.2727 24.9244 12.2738 24.9898 12.2729C25.3496 12.2681 25.4824 12.2819 25.5295 12.2237C25.5679 12.1762 25.5493 12.0807 25.5503 11.888C25.5504 11.8595 25.5509 11.8311 25.5513 11.8027C25.5528 11.7085 25.5542 11.6153 25.5449 11.5206C25.5411 11.4824 25.5405 11.4363 25.5398 11.3866C25.5374 11.2069 25.5343 10.9803 25.3801 10.91C25.3088 10.8774 25.2222 10.8811 25.1233 10.8854C24.8931 10.8953 24.5959 10.9082 24.2664 10.474C24.1376 10.3042 24.1093 9.80069 24.1387 9.56486C24.1809 9.35713 24.3204 8.97266 24.5273 8.85962C24.6896 8.77096 24.9104 8.82304 25.1131 8.87088C25.363 8.92983 25.5856 8.98234 25.6378 8.75703C25.7314 8.35322 25.7621 7.70551 25.7117 7.32706C25.5983 7.31571 25.4438 7.31929 25.2729 7.32325C24.6568 7.33754 23.8278 7.35676 23.9435 6.69885C23.9545 6.6368 23.9712 6.57614 23.9879 6.51574C24.0375 6.33617 24.0865 6.15901 23.979 5.95522C23.6793 5.38709 22.6923 5.56735 22.6636 6.11682C22.6529 6.32273 22.7615 6.45965 22.8617 6.58581C22.9795 6.73429 23.0855 6.86786 22.971 7.08146C22.9048 7.20494 22.8481 7.22488 22.7036 7.26212C22.4806 7.31965 22.2378 7.30955 21.9898 7.29925C21.8569 7.29372 21.7225 7.28813 21.5888 7.29288C21.5511 7.2942 21.5238 7.29668 21.4984 7.29898Z" fill="white"/>
</g>
</g>
</svg>
