<svg width="132" height="40" viewBox="0 0 132 40" fill="none" xmlns="http://www.w3.org/2000/svg">
<g id="Property 1=small">
<g id="Vector">
<path fill-rule="evenodd" clip-rule="evenodd" d="M45.4683 31.1133V8.88779H46.6709C48.4364 8.88779 48.6189 6.07853 46.6709 6.07853H41.4241C39.5197 6.07853 39.531 8.88779 41.4241 8.88779H42.6617V31.1133H41.4241C39.5197 31.1133 39.531 33.9226 41.4241 33.9226H46.6709C48.4364 33.9226 48.6189 31.1133 46.6709 31.1133H45.4683ZM85.464 32.1075V15.9455C85.464 14.1203 82.7859 14.1778 82.7859 15.9455V30.767C80.0981 30.767 76.7032 31.2346 75.4797 29.9789C74.9676 29.4531 74.7116 28.8093 74.7116 28.0471V15.9455C74.7116 14.1466 71.9939 14.1575 71.9939 15.9455V28.0471C71.9939 31.1174 74.3413 33.4477 77.3897 33.4477H84.125C85.0178 33.4477 85.464 33.0012 85.464 32.1075ZM91.1163 22.686C91.1163 17.4162 91.2415 17.2857 96.4729 17.2857C99.7329 17.2857 99.1906 20.8741 99.1906 22.686H91.1163ZM91.1163 25.3667H100.53C102.407 25.3667 101.869 23.1891 101.869 19.966C101.869 16.9676 99.5561 14.6049 96.4729 14.6049C93.8231 14.6049 91.9074 14.2711 89.9739 16.1819C88.9235 17.2069 88.3986 18.4682 88.3986 19.966V28.0471C88.3986 31.1174 90.7459 33.4477 93.7944 33.4477C95.7472 33.4477 100.848 33.8115 101.514 33.0339C102.169 32.2696 101.967 30.767 100.53 30.767H93.7944C90.5881 30.767 91.1163 27.2088 91.1163 25.3667ZM117.446 16.0635C119.038 16.9017 117.843 19.3052 116.265 18.5074C110.596 15.642 105.992 18.7188 107.915 19.9268L116.501 25.5639C119.728 27.6498 118.549 33.4081 111.263 33.4081C109.202 33.4081 103.245 32.1451 105.354 29.8213C106.95 28.064 109.821 32.9029 115.005 29.6241C115.663 29.2073 115.626 28.222 115.005 27.8106L106.418 22.1735C103.761 20.3928 104.181 14.6446 111.696 14.6446C113.639 14.6446 115.556 15.1174 117.446 16.0635ZM126.604 14.6049C126.604 12.7583 126.947 7.50358 126.21 6.83957C125.406 6.11491 123.926 6.51421 123.926 7.86408V14.6049C122.877 14.6049 121.208 14.3345 121.208 15.9455C121.208 17.5528 122.954 17.2857 123.926 17.2857V32.1075C123.926 33.8535 126.604 33.9666 126.604 32.1075V17.2857C129.359 17.2857 132 17.8563 132 15.9455C132 14.0415 129.705 14.6049 126.604 14.6049ZM63.3037 30.6251C61.934 31.5163 58.3699 31.1545 56.0637 31.1545C54.4759 31.1545 53.2979 29.9231 53.2979 28.3457V11.6554C53.2979 10.0724 54.4823 8.88738 56.0637 8.88738C58.8355 8.88738 62.2869 8.41129 63.5884 9.68114C64.1307 10.2102 64.4021 10.8686 64.4021 11.6554V28.0608C62.1843 26.563 60.414 24.7257 59.2364 25.964C57.6265 27.657 60.8586 29.0025 63.3037 30.6251ZM67.0051 29.8112C67.3455 28.5352 67.1679 14.1284 67.1679 11.6554C67.1679 8.57501 64.7357 6.07853 61.6364 6.07853C57.7343 6.07853 54.3656 5.45775 52.1184 7.70687C51.0337 8.79242 50.4914 10.1083 50.4914 11.6554V28.3457C50.4914 31.5159 52.9151 33.9226 56.0637 33.9226C60.0013 33.9226 63.4128 34.5462 65.7036 32.2534C67.1505 33.2283 68.5085 34.6505 69.6085 33.495C71.0833 31.9455 68.5077 30.8223 67.0051 29.8112Z" fill="white"/>
<path d="M5.35897 24.9114C5.06467 24.7297 4.88564 24.5503 4.723 24.3874C4.64352 24.3077 4.56795 24.232 4.48476 24.1619C4.35624 24.0535 4.2941 23.979 4.25287 23.9295C4.18314 23.8458 4.17322 23.8339 4.0031 23.8519C3.86196 24.1231 4.0772 24.3717 4.2817 24.6079C4.41394 24.7606 4.54169 24.9082 4.5657 25.0533C4.48262 25.1471 4.31518 25.2422 4.13192 25.3463C3.73656 25.5708 3.26754 25.8372 3.41291 26.2223C3.53342 26.2854 3.73417 26.2739 3.84767 26.1832C3.88455 26.1537 3.91888 26.126 3.95125 26.0999C4.28136 25.8337 4.40693 25.7325 4.943 25.594C5.24044 25.5171 5.65538 25.5924 5.83948 25.7353C5.90144 25.7834 6.01474 25.9523 6.15277 26.1581C6.34505 26.4448 6.58532 26.803 6.80173 27.0059C7.05815 27.2464 7.12715 27.268 7.40342 27.3545C7.43611 27.3647 7.47171 27.3759 7.51087 27.3884C7.8105 27.4843 7.866 27.5186 7.933 27.5599C7.96915 27.5822 8.00864 27.6066 8.09159 27.6438C8.40629 27.785 8.44701 27.9035 8.50281 28.0658C8.5368 28.1647 8.57638 28.2798 8.68682 28.4262C8.82034 28.43 8.82088 28.4294 8.85207 28.3948C8.86445 28.3811 8.88166 28.362 8.91393 28.3357C9.07409 28.2053 9.3825 28.2043 9.61294 28.37C9.8818 28.5633 10.003 28.918 10.0959 29.1898C10.1575 29.3702 10.2067 29.514 10.2783 29.5498C10.4733 29.6475 10.5891 29.5271 10.6371 29.368C10.8931 28.5218 10.6638 28.2659 9.99074 27.7669C9.58882 27.4689 9.37981 27.4045 9.21112 27.3524C9.07395 27.3101 8.96343 27.2761 8.79753 27.1313C8.48135 26.8555 8.18554 26.778 7.95091 26.7166C7.79434 26.6756 7.66502 26.6417 7.57507 26.5608C7.60392 26.4984 7.65486 26.4651 7.72439 26.4197C7.81904 26.3578 7.94813 26.2735 8.10278 26.0626C8.11779 26.0422 8.13726 26.0172 8.15933 25.989C8.31571 25.7888 8.6023 25.4219 8.35261 25.2962C8.19309 25.2182 8.14851 25.275 8.07725 25.3659C8.04401 25.4082 8.00496 25.458 7.94574 25.5049C7.47683 25.8765 6.83326 25.8372 6.36452 25.5564C6.20001 25.4578 6.01823 25.3384 5.83368 25.2172C5.67446 25.1126 5.513 25.0065 5.35897 24.9114Z" fill="white"/>
<path d="M5.52615 16.6161C5.88422 16.3918 6.20003 16.2538 6.6426 16.2616C6.64943 16.1732 6.65251 16.081 6.65565 15.9874C6.66487 15.7122 6.67452 15.4239 6.78103 15.1776C6.84524 15.0292 7.3943 14.164 7.59037 14.2384C7.72528 14.2896 7.76501 14.4774 7.70933 14.638C7.69317 14.6845 7.67172 14.7254 7.65009 14.7666C7.63507 14.7953 7.61995 14.8241 7.60645 14.8551C7.37663 15.3829 7.21574 16.4041 7.64085 16.8764C8.06653 17.3492 8.68736 17.5568 9.28558 17.5956C9.34588 17.5995 9.40398 17.5885 9.46232 17.5775C9.55716 17.5596 9.65266 17.5416 9.75933 17.5871C10.1912 17.9846 9.38754 17.9785 9.14514 17.9766C9.13959 17.9766 9.13433 17.9765 9.12938 17.9765C9.12062 17.9764 9.11285 17.9764 9.1062 17.9764C8.67173 17.9774 7.71662 17.7714 7.41792 17.4317C7.3059 17.3042 7.1674 17.1453 7.11799 16.9998C6.90125 16.9913 6.7654 17.0324 6.58848 17.0976C6.23237 17.2288 5.68475 17.4546 5.48342 17.7876C5.15181 18.3361 5.16115 18.5958 5.17784 19.0605C5.18234 19.186 5.18739 19.3264 5.1864 19.4915C5.18468 19.7814 5.15904 19.7806 5.06243 19.7774L5.05674 19.7772C5.0551 19.7771 5.05344 19.7771 5.05177 19.777C5.05058 19.777 5.04939 19.777 5.04818 19.7769C4.64542 19.7662 4.80352 18.3054 4.84468 17.9738C4.75429 17.9877 4.71332 18.0074 4.66554 18.0303C4.58389 18.0695 4.48235 18.1182 4.08015 18.1642C3.54577 18.2253 3.02754 18.2196 2.62231 17.7943C2.34548 17.5038 2.34755 17.4141 2.3508 17.2734C2.35174 17.2329 2.35278 17.1881 2.34726 17.1331C2.51777 17.1038 2.54191 17.1213 2.60226 17.1651C2.6487 17.1988 2.71659 17.248 2.88916 17.3035C3.05198 17.3558 3.32095 17.4162 3.50649 17.4394C4.30772 17.5399 4.41612 17.5004 5.12268 16.9509C5.18622 16.9015 5.24455 16.8503 5.302 16.7998C5.37517 16.7355 5.44691 16.6725 5.52615 16.6161Z" fill="white"/>
<path d="M6.01844 29.3929C6.19083 29.6774 6.42976 30.0718 6.71653 30.3577C6.74111 30.3822 6.76784 30.409 6.79627 30.4375C7.03345 30.6754 7.38911 31.0322 7.60887 31.1617C7.7694 31.2562 7.75867 31.3064 7.735 31.4172C7.72741 31.4527 7.7185 31.4945 7.71346 31.5459C6.82133 31.5599 6.05196 30.9581 5.63575 30.1846C5.55062 30.0265 5.53841 30.0241 5.36807 29.9909C5.36145 29.9896 5.35459 29.9883 5.34747 29.9869C5.33422 29.9843 5.3201 29.9815 5.30501 29.9785C5.13694 29.9444 4.47074 29.6431 4.27499 29.5409C4.11677 29.4583 3.44301 28.951 3.28495 28.7739C3.18322 28.6598 3.14164 28.5912 3.09517 28.5144C3.06187 28.4594 3.02603 28.4001 2.96378 28.3172C3.10641 28.0961 3.12524 28.1105 3.37836 28.3032C3.47209 28.3746 3.598 28.4704 3.77415 28.5878C4.33955 28.9373 5.11273 28.9836 5.51273 29.0076C5.65154 29.0159 5.74554 29.0216 5.7701 29.0363C5.82061 29.0664 5.90516 29.206 6.01844 29.3929Z" fill="white"/>
<path d="M9.04221 9.90622C8.95283 9.98176 8.85476 10.0574 8.75785 10.1322C8.70672 10.1717 8.65592 10.2109 8.60688 10.2497C8.07556 10.8644 8.10299 11.2681 8.13724 11.772C8.14449 11.8788 8.15206 11.9901 8.15467 12.1088L8.34201 12.1556C8.55509 11.9508 8.56971 11.8646 8.59937 11.6896C8.61118 11.62 8.62538 11.5362 8.65543 11.4254C8.72407 11.1721 8.88656 10.9439 9.06637 10.7619C9.56653 10.2557 9.87785 10.2067 10.0545 10.1789C10.2175 10.1532 10.2659 10.1456 10.2423 9.81394C10.2194 9.80724 10.1959 9.80056 10.1721 9.79376C9.8874 9.71267 9.54756 9.61585 9.41045 9.30192C9.27133 8.98335 9.26924 8.84532 9.32734 8.49406C9.36698 8.25431 9.46991 8.18111 9.56852 8.11099C9.62556 8.07043 9.68115 8.0309 9.7222 7.96076C9.7853 7.85296 9.73413 7.72277 9.69637 7.63218C9.51116 7.60017 9.4761 7.60704 9.333 7.70348C9.26493 7.74937 9.19285 7.78099 9.12144 7.81231C8.91207 7.90415 8.7085 7.99345 8.6287 8.43233C8.58639 8.66524 8.55654 9.0981 8.66536 9.28649C8.78433 9.49242 8.79889 9.53569 8.80726 9.56056C8.81844 9.5938 8.81857 9.59417 9.04221 9.90622Z" fill="white"/>
<path d="M5.4866 13.7709C5.53907 13.9106 5.59626 14.0628 5.60375 14.285C5.59558 14.3031 5.58939 14.3169 5.58468 14.3274C5.5733 14.3529 5.5705 14.3591 5.56923 14.3588C5.56904 14.3588 5.56938 14.3591 5.56923 14.3588C5.56907 14.3585 5.56842 14.3575 5.56825 14.357C5.56647 14.3517 5.56242 14.3395 5.52081 14.3839C5.189 14.7379 5.1012 14.4297 5.02247 14.1533C5.01288 14.1196 5.00342 14.0864 4.99368 14.0549C4.85687 13.6135 4.85261 12.9901 4.8491 12.4776C4.84862 12.4079 4.84816 12.3403 4.84738 12.2755C4.84515 12.0899 4.83854 11.9294 4.83262 11.7854C4.81183 11.2807 4.79947 10.9804 5.01393 10.5195C5.02896 10.5184 5.04303 10.5173 5.05618 10.5163C5.24257 10.5019 5.24696 10.5015 5.24182 10.6686C5.24159 10.6761 5.24135 10.6837 5.24111 10.6913C5.22936 11.0646 5.21558 11.5022 5.74366 11.4167C5.79821 11.3192 5.81144 11.2411 5.82484 11.1619C5.83934 11.0762 5.85404 10.9893 5.92152 10.8753C6.03666 10.6807 6.15282 10.5665 6.52467 10.7815C6.67658 10.8693 6.59388 11.1927 6.54025 11.3477C6.51244 11.4281 6.40116 11.5351 6.2683 11.6629C6.06483 11.8585 5.81078 12.1029 5.72852 12.3746C5.70829 12.4248 5.6849 12.489 5.66084 12.555C5.6224 12.6605 5.58221 12.7707 5.55058 12.8359C5.31638 13.3178 5.39418 13.5249 5.4866 13.7709Z" fill="white"/>
<path d="M11.2234 17.9463C11.2204 17.8417 11.2174 17.7356 11.2261 17.6263C11.3314 17.556 11.4686 17.562 11.5342 17.6914C11.6242 17.8687 11.6904 19.3235 11.5158 19.5794C11.3135 19.8755 10.8633 20.0108 10.4588 19.7755C10.4543 19.772 10.4495 19.7682 10.4443 19.7641L10.4286 19.7518C10.2797 19.6349 9.93338 19.363 9.946 19.2432C9.95952 19.1147 10.1171 19.0487 10.2501 19.0986C10.2756 19.1081 10.2991 19.1176 10.3211 19.1264C10.5158 19.2046 10.5931 19.2357 10.9239 18.8926C11.2411 18.5638 11.2325 18.2624 11.2234 17.9463Z" fill="white"/>
<path d="M10.4284 32.4792C10.1021 32.526 10.0122 32.4746 9.803 32.3035C9.75876 32.2673 9.71377 32.2332 9.66889 32.1991C9.55064 32.1095 9.43308 32.0204 9.332 31.8947C9.29834 31.8529 9.02099 31.3791 9.02423 31.335C9.03154 31.2356 9.42622 31.1311 9.63591 31.293C10.0978 31.6495 10.4743 31.6996 10.742 31.7352C10.9544 31.7634 11.0982 31.7826 11.1619 31.9383C11.2631 32.186 11.1621 32.2162 11.0036 32.2638C10.9307 32.2856 10.8457 32.3111 10.7626 32.363C10.6603 32.4269 10.5635 32.4598 10.4284 32.4792Z" fill="white"/>
<path fill-rule="evenodd" clip-rule="evenodd" d="M5.4638 33.2578C6.02338 33.2584 6.33569 33.4386 6.64976 33.6199C7.13614 33.9007 7.62675 34.1839 9.04648 33.8057C9.25448 33.7531 9.49797 33.7379 9.75975 33.7217C10.1633 33.6966 10.6104 33.6688 11.0379 33.4966C11.8902 33.1535 12.1643 32.7429 12.3945 32.2141C12.5824 31.7825 12.6067 31.2886 12.6413 30.585C12.6491 30.4262 12.6575 30.2568 12.6683 30.0749V8.18781C12.5889 7.31254 12.2518 6.96545 11.7353 6.43372C11.7004 6.3978 11.6647 6.36103 11.6282 6.32319C11.493 6.1964 11.3138 6.11738 11.1114 6.03602C10.8247 5.9208 10.442 6.10758 10.1784 6.23675C10.1012 6.27454 10.0425 6.3051 9.99596 6.32931C9.90218 6.37812 9.85783 6.4012 9.81182 6.40578C9.77074 6.40987 9.72825 6.39924 9.64782 6.37912C9.56487 6.35838 9.44157 6.32753 9.23784 6.29233C8.73588 6.20559 8.08152 6.46932 7.77646 6.86843C7.74794 6.90575 7.72245 6.93983 7.69915 6.97098C7.48463 7.25779 7.45585 7.29626 6.9551 7.32941C6.67863 7.34768 6.01401 7.59368 5.7853 7.79152C5.69254 7.87176 5.64379 7.98558 5.59909 8.08993C5.56292 8.17441 5.52939 8.25267 5.47733 8.30189C5.35981 8.41294 5.25335 8.51999 5.1471 8.62683C4.98829 8.78652 4.82991 8.94578 4.63576 9.11722C4.1427 9.55245 3.91587 10.1149 3.70873 10.7357C3.65621 10.8932 3.63055 11.0458 3.6061 11.1913C3.55671 11.4851 3.51225 11.7497 3.2611 11.9656C2.70597 12.4429 2.06084 13.2764 2.00971 14.0254C1.99381 14.2589 1.98994 14.6429 2.01595 14.8705C2.02238 14.9268 2.02863 14.977 2.03426 15.0222C2.08395 15.4214 2.08476 15.4279 1.73348 15.8011C1.25914 16.3049 1.04439 16.7645 0.807404 17.2717C0.71383 17.472 0.616789 17.6797 0.498934 17.9005C0.0519114 18.7379 0.202543 19.435 0.302253 19.8965C0.346267 20.1002 0.380358 20.2579 0.348739 20.3616C0.32829 20.4286 0.254603 20.5598 0.184592 20.6845C0.139229 20.7653 0.0954101 20.8433 0.0686167 20.8993C-0.0816011 21.2134 0.0477885 21.4913 0.143777 21.6975C0.17932 21.7738 0.210283 21.8403 0.220776 21.8951C0.240533 21.9985 0.216574 22.051 0.188651 22.1122C0.173171 22.1461 0.156471 22.1826 0.145328 22.232C0.0162528 22.8041 0.0194117 23.9365 0.316927 24.4105C0.360673 24.4802 0.397614 24.5268 0.428162 24.5654C0.515178 24.6752 0.550327 24.7195 0.54313 25.0455C0.538526 25.2539 0.477723 25.4641 0.416166 25.6768C0.315022 26.0265 0.211843 26.3831 0.352591 26.7506C0.378147 26.8174 0.434055 26.9005 0.493699 26.9891C0.552631 27.0766 0.615211 27.1696 0.655765 27.2577C0.723776 27.4053 0.729592 27.6141 0.735992 27.8439C0.74388 28.1271 0.752655 28.4421 0.879842 28.7138C0.975272 28.9177 1.06653 28.9787 1.20242 29.0695C1.23259 29.0896 1.26494 29.1113 1.30004 29.1363C1.50014 29.2787 1.60599 29.5074 1.7213 29.7564C1.85677 30.049 2.0053 30.3698 2.33506 30.6122C2.52294 30.7503 2.66483 30.8007 2.77278 30.8391C2.92292 30.8925 3.00742 30.9225 3.05868 31.1325C3.21133 31.758 3.4974 32.2904 3.97345 32.7253C4.22614 32.9562 4.78525 33.2077 5.10946 33.2658C5.23479 33.2883 5.27186 33.281 5.32011 33.2716C5.35269 33.2652 5.39038 33.2577 5.4638 33.2578ZM12.0445 30.8109C11.9914 31.022 11.9778 31.1925 11.9658 31.3438C11.9393 31.678 11.9203 31.9178 11.4978 32.2913C11.257 32.5042 10.9912 32.7112 10.6906 32.8257L10.6313 32.8483C10.2369 32.9985 10.075 33.0602 9.90805 33.0838C9.79192 33.1002 9.67329 33.0982 9.47216 33.0948C9.35892 33.0929 9.21933 33.0905 9.03951 33.0908C8.8171 33.0911 8.6151 33.119 8.41906 33.1461C8.11169 33.1886 7.819 33.229 7.48535 33.1577C7.3146 33.1213 7.1388 33.0434 6.96603 32.9669C6.9265 32.9494 6.88703 32.9319 6.84792 32.9151C6.47372 32.7539 6.35473 32.5575 6.26578 32.4107C6.17595 32.2624 6.11677 32.1647 5.85632 32.2049C5.75162 32.2211 5.66662 32.2413 5.59234 32.259C5.2886 32.3314 5.16359 32.3612 4.60304 31.8962C4.17376 31.5402 4.1617 31.4917 4.06456 31.1007C4.04253 31.012 4.01614 30.9058 3.97952 30.7744C3.86511 30.3639 3.6111 30.212 3.35818 30.0608C3.10601 29.91 2.85493 29.7599 2.74439 29.3548C2.73315 29.3136 2.72174 29.2707 2.71009 29.227C2.66302 29.0503 2.612 28.8587 2.55226 28.7003C2.49301 28.5431 2.37315 28.4682 2.25322 28.3933C2.05697 28.2706 1.86053 28.1478 1.92933 27.6643C1.95592 27.8039 2.02845 27.9714 2.11107 28.0143C2.2149 28.0682 2.34416 28.0164 2.45964 27.9701C2.49483 27.956 2.52873 27.9424 2.56025 27.9325C2.36733 27.418 2.31059 27.0333 2.26766 26.3942C2.25504 26.3905 2.2431 26.3868 2.23169 26.3833C2.12294 26.35 2.06264 26.3315 1.92778 26.3942C1.89997 26.4713 1.89072 26.6285 1.89052 26.8079C1.87105 26.8077 1.85086 26.8084 1.82999 26.8091C1.70811 26.813 1.56325 26.8177 1.40804 26.6562C1.07838 26.3132 1.15857 25.9829 1.25002 25.6063C1.34992 25.1948 1.46327 24.728 1.07027 24.1288C0.847047 23.7885 0.90308 23.3539 1.03496 22.9767C1.06534 23.0225 1.10119 23.0727 1.14383 23.1302C1.19313 23.1967 1.23165 23.2501 1.26406 23.295C1.40175 23.4858 1.42919 23.5238 1.7043 23.7681C1.95671 23.9921 2.03107 24.0303 2.14754 24.0901C2.21274 24.1235 2.29114 24.1637 2.42135 24.2471C2.57826 24.3476 2.72091 24.359 2.94425 24.316C2.95024 24.2269 2.92657 24.2075 2.85751 24.1506C2.80968 24.1112 2.74005 24.0538 2.64342 23.943C2.56548 23.8536 2.54028 23.838 2.51793 23.8241C2.48772 23.8054 2.46272 23.7899 2.31975 23.6L1.68958 22.7786C1.66418 22.7158 1.65544 22.6878 1.65081 22.6729C1.64832 22.6649 1.64701 22.6607 1.64494 22.657C1.64266 22.6529 1.63947 22.6493 1.63277 22.6419C1.62334 22.6314 1.60697 22.6132 1.57645 22.5749C1.48178 22.4523 1.4321 22.3284 1.38682 22.2154C1.3053 22.012 1.23803 21.8442 0.948089 21.7836C0.944183 21.7879 0.940366 21.7922 0.936638 21.7964C0.800764 21.5777 0.704667 21.3627 0.909244 21.0921C0.919379 21.0787 0.929285 21.0657 0.938953 21.053C1.12231 20.812 1.21969 20.684 1.15612 20.1611C1.10602 19.749 1.15586 18.777 1.30451 18.3488C1.46811 17.8774 1.93861 16.9994 2.28812 16.6299C2.30199 16.6152 2.31586 16.6005 2.32974 16.5858C2.51435 16.3903 2.70077 16.1928 2.91927 16.036C2.92294 15.897 2.88668 15.8108 2.84365 15.7086C2.76028 15.5106 2.6515 15.2522 2.75846 14.4317C2.76626 14.3718 2.77171 14.3205 2.77653 14.2751C2.79613 14.0904 2.80541 14.003 2.91988 13.8387C3.20127 13.4605 3.44507 13.2158 3.77003 12.8896L3.80825 12.8512C4.10993 12.5544 4.21863 12.0343 4.3209 11.5449C4.37361 11.2927 4.4246 11.0487 4.49943 10.8476C4.62143 10.5197 4.77154 10.3171 4.94569 10.082C4.98914 10.0233 5.03409 9.96267 5.08047 9.89753C5.41801 9.42351 5.62213 9.39254 5.76301 9.37116C5.84374 9.35891 5.90371 9.34982 5.95612 9.26232C6.02945 9.13986 6.06154 9.02222 6.09127 8.91319C6.15351 8.68494 6.20546 8.49445 6.60408 8.37663C7.13567 8.2195 7.43745 8.21624 7.63546 8.21411C7.86719 8.21161 7.95682 8.21064 8.10637 7.96639C8.48946 7.34069 8.69365 7.09435 9.58251 7.24382C9.61047 7.24852 9.66425 7.25919 9.73106 7.27244C9.95251 7.31638 10.3171 7.3887 10.3587 7.36591C10.3974 7.34468 10.414 7.31991 10.4307 7.29487C10.4728 7.23198 10.516 7.16735 10.9143 7.15268C11.1158 7.14522 11.3963 7.20698 11.5575 7.29202C11.7888 7.41402 11.9632 7.91693 12.0445 8.23058V13.2661C12.0376 13.2521 12.0303 13.2384 12.0223 13.2251C11.7794 13.1791 11.7413 13.2003 11.638 13.3475C11.5696 13.445 11.4139 13.5203 11.2431 13.6028C11.1544 13.6458 11.0615 13.6906 10.9748 13.7416C10.9338 13.7657 10.8869 13.7922 10.8356 13.8213C10.3953 14.0704 9.63569 14.5002 9.62967 15.07C9.86019 15.1919 9.97803 15.0837 10.16 14.9165C10.2842 14.8024 10.4383 14.6609 10.6784 14.5463C10.9577 14.4131 11.2138 14.2928 11.5077 14.2195C11.553 14.2082 11.5927 14.2025 11.6295 14.1971C11.7607 14.1781 11.8537 14.1646 12.0218 13.9257L12.0445 13.8919V23.997C11.103 23.9653 10.7399 23.8204 10.1165 23.4027C9.88386 23.2837 9.38875 22.564 9.36644 22.2712C9.60963 22.0742 9.72226 21.7237 9.67141 21.4137C9.65905 21.3384 9.64894 21.268 9.63942 21.2018C9.59562 20.897 9.5645 20.6805 9.38386 20.4676C9.25644 20.4823 9.17659 20.5332 9.08547 20.5913C9.08083 20.5942 9.07616 20.5972 9.07145 20.6002C9.06756 20.6027 9.06364 20.6051 9.05969 20.6076L9.05666 20.6095C9.0548 20.6107 9.05293 20.6119 9.05105 20.6131C9.04691 20.7326 9.07131 20.8388 9.095 20.9419C9.14566 21.1624 9.19306 21.3687 8.95097 21.6611C8.73648 21.9202 8.60558 21.9057 8.31567 21.8736C8.20294 21.8611 8.06616 21.8459 7.89109 21.8432C7.23177 21.8328 6.7552 21.8659 6.20646 22.1633C6.16344 22.1866 6.11884 22.2114 6.0739 22.2364C5.96167 22.2988 5.84739 22.3623 5.75068 22.4065L5.70225 22.8513C5.67572 23.0953 5.7927 23.0285 6.01821 22.8998C6.15651 22.8208 6.33564 22.7186 6.54752 22.6504C7.0703 22.4822 7.927 22.3444 8.48222 22.7195C8.76317 22.8906 8.82852 23.0573 8.89609 23.2296C8.95538 23.3808 9.01638 23.5363 9.22621 23.703C9.31317 23.7721 9.39195 23.8454 9.47156 23.9195C9.80301 24.2277 10.1488 24.5494 11.1587 24.6387C11.2223 24.637 11.2836 24.6359 11.3432 24.6348C11.5866 24.6303 11.8029 24.6263 12.0445 24.5874V30.8109Z" fill="white"/>
<path fill-rule="evenodd" clip-rule="evenodd" d="M22.5695 11.6023C22.5947 11.5753 22.6202 11.5401 22.646 11.496C22.915 11.0371 22.5186 10.5375 22.1819 10.1133C22.0814 9.98679 21.9863 9.86694 21.9158 9.75687C21.8476 9.65051 21.3805 9.28551 21.2851 9.22981C21.1402 9.14525 21.0217 8.97592 20.896 8.79611C20.7588 8.60001 20.6129 8.39143 20.4145 8.26674L19.355 7.63837C19.2649 7.58817 18.7919 7.48945 18.6619 7.46914C18.6333 7.46468 18.6013 7.46407 18.5662 7.4634C18.4212 7.46064 18.2235 7.45687 17.9947 7.1765C17.7731 6.90493 17.4412 6.78715 17.1576 6.68649C17.0161 6.63628 16.8867 6.59033 16.7889 6.53168C16.6757 6.46381 16.4174 6.38411 16.3193 6.35575C16.277 6.34356 16.2288 6.30517 16.1694 6.25786C15.9849 6.11087 15.6923 5.87778 15.1339 6.07723C14.8078 6.2189 14.1871 6.54426 14.0558 6.90193C13.9988 7.06359 13.9662 7.20181 13.9344 7.33641C13.9116 7.43291 13.8892 7.5276 13.8586 7.62768C13.8206 7.75226 13.7749 7.85584 13.7297 7.95844C13.6606 8.11499 13.5926 8.26924 13.5543 8.49227C13.5471 8.5338 13.5393 8.57478 13.5316 8.61546C13.5038 8.76175 13.4767 8.90415 13.4837 9.05401V32.0507C13.6446 32.7499 13.9994 32.9737 14.1848 33.0907C14.2161 33.1105 14.2427 33.1272 14.2626 33.1427C14.3182 33.1859 14.3711 33.228 14.4225 33.269C14.7428 33.5241 15.0049 33.7328 15.4947 33.8458C15.6113 33.8727 15.6886 33.8941 15.7513 33.9116C15.9007 33.9531 15.9667 33.9714 16.2829 33.9845C16.8794 34.0092 17.3943 33.9285 17.9677 33.8022C18.1448 33.7632 18.2758 33.7739 18.4476 33.7878C18.6881 33.8074 19.0086 33.8334 19.6471 33.7389C20.0946 33.6726 20.1255 33.6493 20.2078 33.5873C20.2715 33.5394 20.3657 33.4685 20.7064 33.3368C20.8022 33.2998 20.8481 33.2652 20.8887 33.2345C20.9507 33.1878 21.0005 33.1502 21.1966 33.127C21.9766 33.0346 22.4816 32.4761 23.1267 31.5346C23.1798 31.4527 24.0828 30.6592 24.13 30.6331C24.7905 29.9785 24.8194 29.8683 24.8916 29.5926C24.9237 29.4699 24.9644 29.3144 25.0732 29.0636C25.105 28.9901 25.1357 28.9056 25.1685 28.8155C25.2916 28.4766 25.4435 28.0585 25.7947 27.8496C26.0103 27.7213 26.1201 27.3882 26.212 27.1093C26.2388 27.0281 26.2641 26.9511 26.29 26.8855C26.3431 26.7511 26.3884 26.6394 26.4269 26.5445C26.5412 26.2625 26.5955 26.1285 26.6159 25.9897C26.6342 25.8649 26.6252 25.7359 26.608 25.4909L26.6058 25.4591C26.5687 24.9285 26.6356 24.5749 26.7025 24.2218C26.7566 23.9362 26.8106 23.6509 26.8095 23.2723C26.809 23.1227 26.8114 22.9943 26.8137 22.8672C26.8167 22.703 26.8197 22.5403 26.8165 22.3374C26.8058 21.6636 26.7378 21.5479 26.663 21.4206C26.6251 21.3563 26.5855 21.2889 26.5507 21.1449C26.4865 20.8788 26.3998 20.7208 26.2349 20.5151C26.2046 20.4772 26.177 20.441 26.1505 20.4065C25.9751 20.1771 25.8537 20.0182 25.364 19.9091C25.3613 19.9085 25.3586 19.908 25.3559 19.9078C25.3159 19.9002 25.273 19.8955 25.2236 19.8918C25.2035 19.8902 25.1806 19.8885 25.1554 19.8865C24.7076 19.8514 23.5092 19.7574 23.3362 20.1208C23.2006 20.4057 23.3092 20.57 23.426 20.7467C23.4906 20.8443 23.5576 20.9457 23.5874 21.0734C23.6123 21.1803 23.6147 21.4069 23.5794 21.5189C23.4817 21.8286 22.8497 21.8771 22.615 21.7867C22.0615 21.5736 22.138 21.2902 22.2357 20.9282C22.2622 20.8299 22.2903 20.7257 22.3078 20.6156C22.3218 20.5273 22.3425 20.2913 22.3452 20.1972C22.3642 19.5465 21.1276 19.6163 20.3909 19.6579C20.2304 19.6669 20.0936 19.6747 19.9987 19.6733C19.9964 19.5837 19.9906 19.4973 19.9848 19.4113C19.9785 19.3169 19.9723 19.2231 19.9706 19.1264C19.9699 19.0844 19.9681 19.0357 19.9662 18.9827C19.949 18.5181 19.9193 17.7158 20.494 18.0845C21.1066 18.4774 21.6563 18.0751 21.8916 17.456C21.9615 17.2718 21.9444 16.8063 21.9319 16.4682C21.9295 16.4024 21.9272 16.3414 21.9258 16.2883C21.9161 15.9166 21.8759 15.7473 21.6158 15.5276C21.1758 15.1565 20.7248 15.3851 20.4088 15.5454C20.2975 15.6018 20.2029 15.6498 20.1314 15.66C20.0532 15.4643 19.9778 14.1641 20.0116 13.8532C20.4594 13.8279 20.8548 13.8066 21.2941 13.7983C21.3189 13.7978 21.3471 13.7976 21.3779 13.7974C21.6322 13.7955 22.0635 13.7922 22.2288 13.6311C22.4207 13.4436 22.5065 13.2794 22.3168 13.0063C22.1335 12.7428 21.9936 12.2525 22.1807 11.9724C22.2374 11.8875 22.3129 11.8268 22.391 11.764C22.4514 11.7154 22.5134 11.6656 22.5695 11.6023ZM19.7924 9.07643C19.7912 9.03392 19.7907 8.99195 19.7902 8.95098C19.7897 8.91319 19.7892 8.87612 19.7882 8.84039C19.9276 8.94052 19.9539 8.98449 19.9853 9.03698C20.0279 9.10829 20.08 9.19534 20.4378 9.46034C20.556 9.5479 20.6596 9.59002 20.7587 9.63034C20.9222 9.69684 21.0737 9.75842 21.2588 10.011C21.2969 10.0662 21.3849 10.1276 21.4719 10.1885C21.5645 10.2531 21.656 10.3171 21.6857 10.3721C21.7501 10.4343 21.8236 10.6193 21.9061 10.831C21.9064 10.8354 21.9095 10.8435 21.9158 10.856L21.9165 10.8579C21.9314 10.8962 21.9466 10.9352 21.9621 10.9744C22.0377 11.2463 21.8977 11.4769 21.8332 11.583C21.8242 11.5979 21.8166 11.6103 21.8114 11.6201C21.4625 12.0917 21.542 12.3334 21.6396 12.6304C21.6926 12.7916 21.751 12.9691 21.749 13.2084C21.5557 13.289 21.3121 13.2864 21.0662 13.2838C20.9913 13.283 20.9158 13.2822 20.8419 13.2838C20.6619 13.2876 20.5151 13.2944 20.3953 13.3C19.956 13.3203 19.8788 13.3239 19.8501 13.1012C19.8274 12.9258 19.8314 12.6998 19.8356 12.4609C19.8453 11.9107 19.8562 11.2918 19.5457 11.0643C19.3638 10.931 19.1847 10.9764 18.9793 11.0285C18.8507 11.0611 18.7118 11.0963 18.5555 11.092C18.2418 11.0834 17.9401 10.8447 17.9572 10.3689L17.9576 10.3559C17.9649 10.1467 17.9816 9.66686 18.4272 9.51167C18.7231 9.40858 18.9422 9.54042 19.1286 9.65256C19.3396 9.77952 19.5087 9.88124 19.6998 9.58823C19.8057 9.42578 19.8037 9.37453 19.7959 9.17653L19.7959 9.17541C19.7948 9.14594 19.7935 9.11323 19.7924 9.07643ZM25.2186 20.5991C24.9815 20.4667 24.7348 20.5742 24.5123 20.6713C24.4188 20.7121 24.3296 20.751 24.2471 20.7695C24.1151 20.8032 24.1146 20.9524 24.114 21.1551C24.1133 21.3538 24.1126 21.6038 23.9875 21.8466C23.9018 22.0132 23.6166 22.2822 23.473 22.3399C22.9709 22.5417 22.4594 22.4625 22.0407 22.1583C21.5557 21.8059 21.5385 21.4031 21.5218 21.0122C21.5113 20.7658 21.501 20.524 21.3737 20.3025L20.0023 20.3016C19.9894 20.4227 19.9859 20.6474 19.982 20.9031C19.9742 21.4133 19.9644 22.0466 19.8743 22.2255L19.6592 22.5006C19.5073 22.741 19.0998 22.6821 18.7624 22.6335C18.623 22.6133 18.4956 22.595 18.4031 22.6001C18.3844 22.6442 18.3591 22.6795 18.3331 22.7158C18.2966 22.7667 18.2586 22.8196 18.2352 22.9019C18.1211 23.3037 18.1871 23.7886 18.4136 24.1102C18.719 24.1457 18.8425 24.0928 18.9528 24.0456C19.0325 24.0115 19.1052 23.9803 19.2346 23.9875C20.0596 24.0334 20.0239 25.1728 19.9992 25.9612C19.995 26.0957 19.9911 26.22 19.9919 26.3269C20.0764 26.3269 20.2037 26.3342 20.3517 26.3426C20.7868 26.3674 21.4002 26.4023 21.6244 26.2926C21.93 26.143 21.7689 25.8777 21.6435 25.6713C21.6176 25.6285 21.5931 25.5882 21.5747 25.552C21.3355 25.0829 21.8224 24.5964 22.2404 24.3814C22.5194 24.238 23.462 24.2103 23.7715 24.6719C24.0679 25.114 24.0035 25.3422 23.9385 25.5727C23.9008 25.7062 23.863 25.8404 23.8948 26.0174C24.1363 26.1434 24.5596 26.0999 24.9719 26.0574C25.2298 26.0309 25.4834 26.0048 25.6855 26.0209C25.7767 25.7181 25.8419 25.3612 25.7919 25.0243C25.6966 24.3835 25.7918 24.0475 25.908 23.6379C25.959 23.4578 26.0141 23.2635 26.0588 23.0228C26.1528 22.5163 26.0352 22.1696 25.9027 21.7792C25.8693 21.6809 25.835 21.5799 25.8029 21.4727C25.7015 21.1348 25.4648 20.8726 25.2946 20.6842C25.2673 20.654 25.2416 20.6256 25.2186 20.5991ZM25.4136 26.7156C25.3755 26.7166 25.3273 26.7181 25.2711 26.7199C24.7885 26.7355 23.7213 26.7699 23.4818 26.5885C23.1711 26.3531 23.2841 26.0114 23.3886 25.6953C23.4902 25.3879 23.5839 25.1048 23.2724 24.9672C23.0032 24.8482 22.6953 24.7607 22.4056 24.9035C22.2294 24.9904 22.169 25.0831 22.1499 25.1922C22.1139 25.3977 22.177 25.5643 22.2405 25.7318C22.3266 25.9589 22.4132 26.1875 22.254 26.5165C22.112 26.8097 20.8104 26.8799 20.5289 26.8796C20.3962 26.8795 20.2862 26.8935 20.1685 26.9084C20.1113 26.9157 20.0523 26.9232 19.9881 26.9294C19.9136 27.3572 19.9057 28.3387 20.2517 28.6866C20.2777 28.6721 20.3003 28.6579 20.3218 28.6444C20.4328 28.5749 20.5149 28.5235 20.8777 28.5388C21.6803 28.5727 21.8797 29.5463 21.7747 30.2183C21.7346 30.4749 21.672 30.5785 21.5438 30.7675C21.2526 31.197 20.5144 31.175 20.1938 31.0377C19.9521 30.9341 19.9824 31.2758 20.0144 31.6355C20.0225 31.7262 20.0306 31.8179 20.0345 31.904C20.0406 32.0371 20.0534 32.1716 20.0664 32.3084C20.0783 32.4344 20.0905 32.5623 20.0977 32.6926C20.1926 32.6448 20.292 32.5838 20.3979 32.504C20.5424 32.3951 20.6983 32.3696 20.8689 32.3418C21.2274 32.2832 21.6507 32.2141 22.1695 31.337C22.2322 31.231 23.2109 30.3386 23.3202 30.2634C23.6104 30.0637 23.7119 29.8059 23.8043 29.5712C23.871 29.4017 23.9329 29.2442 24.0579 29.1297C24.2456 28.9575 24.6023 28.2324 24.8778 27.6724C25.0393 27.3441 25.1729 27.0725 25.2282 27.0023C25.3013 26.9093 25.3628 26.825 25.4136 26.7156ZM19.3688 32.9028C19.3619 32.7916 19.3624 32.6727 19.363 32.5571C19.3637 32.4123 19.3643 32.2727 19.3503 32.1597C19.2925 31.6945 19.1916 30.8474 19.5843 30.5335C19.734 30.4137 19.954 30.3241 20.1832 30.403C20.2955 30.4417 20.3508 30.4759 20.3945 30.5028C20.4818 30.5567 20.5225 30.5817 20.8771 30.5564C21.467 30.5143 21.2793 29.5286 21.1938 29.3879C21.0176 29.098 20.6241 29.1984 20.3259 29.2745C20.2012 29.3064 20.0931 29.3339 20.0246 29.3269C19.4748 29.2708 19.4465 29.1232 19.3797 28.7745C19.3655 28.7002 19.3495 28.6167 19.3263 28.5231C19.23 28.1338 19.226 27.7275 19.2216 27.2777C19.2208 27.1901 19.2199 27.1008 19.2183 27.0097C19.0297 27.0056 18.847 27.0172 18.6716 27.0284C18.5469 27.0363 18.4259 27.044 18.309 27.0456L18.2816 27.046C17.9186 27.051 17.7841 27.0528 17.4321 27.1595C17.4354 27.2781 17.4743 27.3767 17.515 27.4797C17.5927 27.6769 17.6768 27.89 17.5292 28.2895C17.437 28.539 17.2353 28.6796 17.08 28.7879L17.0694 28.7953C16.5607 29.1147 15.4682 28.9019 15.2468 28.1515C15.1003 27.6061 15.2664 27.3746 15.41 27.1745C15.4964 27.0542 15.5747 26.9452 15.5717 26.786C15.219 26.6564 14.8393 26.7069 14.4939 26.7529C14.3586 26.7709 14.2285 26.7882 14.1074 26.7937V31.8233C14.1152 31.8384 14.1242 31.8583 14.135 31.8822C14.25 32.1365 14.5713 32.8469 15.812 33.1932C16.3732 33.3498 17.0805 33.0726 17.2549 33.0043C17.2675 32.9993 17.2773 32.9955 17.2841 32.993L17.2866 32.9921C17.2873 32.9918 17.2881 32.9915 17.2887 32.9913C17.2894 32.9911 17.2901 32.9908 17.2907 32.9907L17.2918 32.9903C17.2923 32.9901 17.2927 32.99 17.2931 32.9899C17.4341 32.9525 17.8772 32.9349 18.043 32.9934C18.1889 33.0449 18.8561 33.0528 19.0059 32.9987C19.1322 32.9531 19.2514 32.9259 19.3688 32.9028ZM14.1074 26.1646C14.9753 26.1459 16.346 26.1983 16.0814 26.9846L15.9145 27.4946C15.502 28.6233 17.0686 28.7136 17.182 28.0652C17.2248 27.8203 17.1465 27.6034 17.0751 27.4059C16.9609 27.0896 16.8646 26.8229 17.3123 26.5704C17.5863 26.4159 17.9453 26.4209 18.2825 26.4256C18.362 26.4267 18.4403 26.4278 18.5159 26.4268C18.6322 26.4252 18.7292 26.4263 18.81 26.4272C19.0212 26.4297 19.1223 26.4308 19.1706 26.3797C19.2149 26.3327 19.2146 26.2415 19.2139 26.0665C19.2138 26.03 19.2136 25.9898 19.2138 25.9456C19.214 25.9099 19.2146 25.8744 19.2151 25.839C19.217 25.7213 19.2188 25.6047 19.2071 25.4863C19.2024 25.4386 19.2016 25.3809 19.2008 25.3188C19.1977 25.0942 19.1939 24.811 19.002 24.7231C18.913 24.6823 18.8089 24.687 18.6907 24.6924C18.4162 24.7048 18.0662 24.7206 17.6561 24.1781C17.4956 23.9658 17.4194 23.3365 17.456 23.0417C17.5151 22.7495 17.695 22.2944 17.9399 22.1601C18.1421 22.0493 18.417 22.1144 18.6695 22.1742C18.9807 22.2479 19.2578 22.3135 19.3229 22.0319C19.4394 21.5271 19.4776 20.7175 19.4148 20.2444C19.2736 20.2302 19.0812 20.2347 18.8684 20.2397C18.1012 20.2575 17.0688 20.2815 17.213 19.4592C17.2277 19.3753 17.2509 19.2987 17.2733 19.2248C17.3332 19.0272 17.3873 18.8488 17.2572 18.601C16.8893 17.9009 15.6554 18.1067 15.6191 18.8031C15.6059 19.0582 15.7426 19.2156 15.8676 19.3595C16.0127 19.5265 16.1419 19.6752 16.0019 19.9374C15.8339 20.2522 15.3031 20.228 14.8847 20.2089C14.7665 20.2035 14.6572 20.1985 14.5677 20.2017C14.5274 20.2031 14.4865 20.2056 14.4454 20.2081C14.3297 20.2151 14.2129 20.2222 14.1074 20.2061V26.1646ZM14.1074 19.636C14.1102 19.6361 14.113 19.6362 14.1158 19.6363C14.2519 19.6415 14.3825 19.6541 14.5091 19.6663C14.8484 19.6991 15.1595 19.7291 15.4749 19.6057C15.4652 19.4771 15.4175 19.4116 15.3622 19.3357C15.3068 19.2596 15.2437 19.173 15.2035 19.0019C15.0426 18.318 15.7215 17.7271 16.3985 17.7033C16.9474 17.6839 17.3203 17.7028 17.6151 18.1165C17.9663 18.6093 17.898 18.8544 17.827 19.1093C17.7848 19.2608 17.7416 19.4158 17.7851 19.6283C17.8175 19.7863 18.2269 19.7635 18.4691 19.75C18.515 19.7475 18.555 19.7453 18.5852 19.7447C18.6955 19.7425 18.7985 19.7364 18.9014 19.7303C19.0693 19.7204 19.2372 19.7105 19.4357 19.7177C19.4298 19.6094 19.4257 19.5002 19.4216 19.3914L19.4215 19.3902C19.4123 19.1463 19.4032 18.9049 19.3748 18.6809C19.306 18.1383 19.3447 17.7343 19.7393 17.4494C19.9967 17.2636 20.2469 17.3519 20.5033 17.4425C20.6702 17.5014 20.8397 17.5613 21.0154 17.5471C21.275 17.2308 21.4054 15.8699 20.6857 16.0447C20.5982 16.066 20.508 16.102 20.4174 16.1382C20.13 16.253 19.838 16.3697 19.6096 16.0236C19.3696 15.6599 19.3768 14.8077 19.3819 14.1952C19.383 14.0628 19.3841 13.9416 19.3825 13.839C19.0431 13.8007 18.0372 13.7873 17.7309 13.8098C17.7348 13.9436 17.767 14.0812 17.8008 14.2258C17.8633 14.4933 17.9314 14.7847 17.8365 15.1207C17.8286 15.1487 17.8223 15.1741 17.8163 15.1979C17.7975 15.273 17.7826 15.3329 17.7341 15.4141C17.223 16.2709 15.2268 15.9537 15.3342 14.6011C15.3473 14.4358 15.401 14.3396 15.4502 14.2516C15.5034 14.1563 15.5512 14.0707 15.5361 13.9173C15.3206 13.9006 14.5371 13.9379 14.3313 13.9635C14.2594 13.9725 14.1826 13.9696 14.1074 13.9595V19.636ZM14.1074 13.2323V9.45873C14.2383 9.19845 14.2853 8.98489 14.3293 8.78531C14.3686 8.60711 14.4054 8.44006 14.4972 8.26085C14.539 8.17926 14.5763 8.06031 14.6178 7.92771C14.7604 7.47254 14.9534 6.85662 15.5525 7.03984C15.6827 7.07965 15.8388 7.08219 16.0017 7.08484C16.1961 7.08801 16.4002 7.09133 16.5816 7.15836L17.1357 7.48737C17.1744 7.50904 17.2122 7.52689 17.2489 7.54419C17.3429 7.58854 17.4294 7.62933 17.5034 7.72175C17.5084 7.72803 17.5135 7.73433 17.5185 7.74066C17.6157 7.86219 17.7195 7.99206 17.8399 8.09095C17.8965 8.12772 17.9497 8.16855 18.0021 8.20879C18.2086 8.36727 18.4035 8.5168 18.7488 8.37484C18.9067 8.30992 19.0144 8.34551 19.2135 8.41136C19.2512 8.42381 19.2922 8.43736 19.3373 8.45149C19.3653 8.61862 19.3246 9.10275 19.2798 9.25138C19.1246 9.26458 19.1017 9.25305 19.0336 9.21874C19.0114 9.20752 18.9842 9.19386 18.9461 9.17783C18.6861 9.06863 18.2311 8.98596 17.9915 9.14714C16.9715 9.83317 17.2842 11.6061 18.4872 11.5344C18.5449 11.5309 18.6077 11.5233 18.673 11.5154C18.8714 11.4913 19.0919 11.4645 19.2551 11.5449C19.3529 11.593 19.3584 11.7621 19.3628 11.8973C19.3638 11.9278 19.3647 11.9566 19.3666 11.9819C19.3798 12.1543 19.3184 13.2159 19.245 13.2831C19.1619 13.3591 18.5984 13.3399 18.1213 13.3237C17.8585 13.3148 17.6219 13.3067 17.5064 13.3159C17.333 13.3298 17.2416 13.347 17.1346 13.5276C17.066 13.6436 17.1107 13.8283 17.1615 14.0384C17.2307 14.3243 17.3112 14.6571 17.1327 14.9273C16.9279 15.2376 16.3061 15.2087 16.1762 14.8997C16.0713 14.6504 16.1414 14.4309 16.2145 14.2019C16.2711 14.0249 16.3294 13.8422 16.3101 13.6358C16.2757 13.2673 15.7645 13.2595 15.4358 13.2545C15.3938 13.2538 15.3546 13.2532 15.32 13.2519C15.0452 13.2416 14.5107 13.2288 14.1074 13.2323Z" fill="white"/>
<path fill-rule="evenodd" clip-rule="evenodd" d="M29.9041 8.47124C30.0211 8.56913 30.3767 8.66286 30.566 8.65908C30.7477 8.65545 30.8768 8.65056 30.978 8.64672C31.2739 8.6355 31.3312 8.63333 31.7684 8.69833C31.9752 8.87437 31.967 9.25684 31.9623 9.47487C31.9608 9.54505 31.9596 9.59819 31.9661 9.62193C31.9628 9.7998 31.9687 9.95836 31.974 10.1044C31.9923 10.5979 32.0052 10.9479 31.6401 11.415C31.4653 11.6386 31.0666 11.5865 30.7364 11.5434C30.6005 11.5256 30.4762 11.5094 30.3839 11.5145C30.3653 11.5587 30.34 11.5939 30.3139 11.6302C30.2774 11.6811 30.2395 11.7341 30.2161 11.8163C30.102 12.2181 30.1679 12.703 30.3944 13.0246C30.6998 13.0601 30.8234 13.0072 30.9337 12.96C31.0133 12.9259 31.0861 12.8947 31.2154 12.9019C32.2862 12.9616 32.0002 14.8604 31.8854 15.6224C31.8657 15.7532 31.851 15.8505 31.8491 15.8993C31.8036 15.9016 31.7536 15.9041 31.6997 15.9068C31.0662 15.9386 29.9028 15.9969 29.4129 16.1454C29.4222 16.2741 29.4609 16.3751 29.4991 16.4749C29.5711 16.6631 29.6416 16.847 29.51 17.2039C29.4231 17.4399 29.2939 17.6322 29.136 17.7333C28.4513 18.172 27.1609 17.6947 27.2082 16.6523C27.218 16.4358 27.304 16.3025 27.3876 16.173C27.4733 16.0402 27.5565 15.9113 27.5526 15.7004C27.1064 15.5364 26.6752 15.5924 26.2772 15.644C25.9539 15.6859 25.6525 15.725 25.3828 15.641C25.3737 15.6382 25.3654 15.6366 25.3578 15.6352C25.3009 15.6244 25.2846 15.6213 25.2617 15.1477C25.2429 14.7587 25.2599 13.6951 25.2728 13.326C25.2741 13.2903 25.2747 13.25 25.2753 13.2066C25.2801 12.8669 25.2877 12.3379 25.6441 12.3024C25.8437 12.2824 26.0204 12.3427 26.1916 12.4011C26.4131 12.4767 26.6254 12.5491 26.8666 12.4408C27.1653 12.3065 27.1933 11.6636 26.8933 11.4518C26.6088 11.2511 26.2752 11.3433 26.0206 11.4136C25.8694 11.4554 25.7462 11.4895 25.6777 11.4498C25.659 11.4254 25.6407 11.403 25.6231 11.3815C25.5461 11.2875 25.4839 11.2115 25.473 11.0655C25.456 10.8384 25.4774 9.0142 25.4979 8.93569C25.5615 8.69219 25.6321 8.52538 25.8096 8.55073C26.3063 8.62169 27.0227 8.68961 27.4558 8.52007C27.446 8.39151 27.3983 8.32603 27.343 8.25007C27.2876 8.17398 27.2246 8.08737 27.1843 7.91629C27.0235 7.23241 27.7023 6.64155 28.3793 6.61769C29.0605 6.59365 29.7739 6.8004 29.8761 7.60161C29.8912 7.72032 29.8879 7.85331 29.8846 7.98914C29.8806 8.15234 29.8765 8.31966 29.9041 8.47124ZM26.1489 9.12374C26.1038 9.12785 26.0635 9.13151 25.9974 9.12989C26.018 9.38785 26.0286 9.83246 25.9991 10.1226C25.9923 10.1896 25.986 10.2442 25.9806 10.2915C25.9596 10.4746 25.9509 10.5502 25.9698 10.8245C26.1036 10.8203 26.2206 10.7861 26.3393 10.7514C26.5477 10.6904 26.7613 10.6279 27.0803 10.7242C27.1074 10.7323 27.1319 10.7389 27.1549 10.745C27.2276 10.7645 27.2857 10.78 27.3641 10.83C28.1897 11.3564 27.9102 13.4021 26.7679 13.34C26.6282 13.3282 26.5419 13.2792 26.4525 13.2285C26.3291 13.1584 26.2 13.0851 25.9164 13.1025C25.8785 13.3879 25.9075 13.6826 25.9361 13.9728C25.9714 14.3311 26.006 14.6825 25.913 15.0008C26.7487 14.9728 28.348 15.0499 28.0622 15.899C28.0366 15.98 28.0229 16.031 28.0111 16.0751C27.9887 16.1586 27.9728 16.2177 27.8954 16.409C27.7541 16.758 27.8442 17.204 28.2149 17.3332C28.5846 17.462 29.1012 17.3322 29.1629 16.9796C29.2057 16.7348 29.1273 16.5179 29.056 16.3203C28.9417 16.004 28.8454 15.7373 29.2931 15.4848C29.5715 15.3278 29.9136 15.3337 30.2489 15.3394C30.3323 15.3409 30.4153 15.3423 30.4968 15.3412C30.9448 15.3351 31.1101 15.3524 31.1688 15.2796C31.2166 15.2202 31.1934 15.1009 31.1947 14.86C31.1949 14.8243 31.1954 14.7888 31.196 14.7534C31.1978 14.6357 31.1996 14.5192 31.188 14.4008C31.1833 14.353 31.1825 14.2954 31.1816 14.2332C31.1786 14.0087 31.1747 13.7254 30.9828 13.6375C30.894 13.5968 30.7862 13.6014 30.663 13.6068C30.3764 13.6192 30.0062 13.6352 29.5959 13.0925C29.4355 12.8802 29.4003 12.2509 29.4369 11.9561C29.4894 11.6964 29.6631 11.2158 29.9208 11.0745C30.1229 10.9637 30.3978 11.0288 30.6503 11.0886C30.9615 11.1623 31.2387 11.2279 31.3037 10.9463C31.4202 10.4415 31.4585 9.6319 31.3956 9.15885C31.2544 9.14465 31.062 9.14913 30.8492 9.15408C30.0821 9.17194 29.0497 9.19597 29.1938 8.37357C29.2074 8.29602 29.2283 8.22019 29.2491 8.1447C29.3109 7.92023 29.3719 7.69878 29.238 7.44404C28.8648 6.73388 27.6358 6.9592 27.6 7.64604C27.5866 7.90342 27.7219 8.07458 27.8466 8.23227C27.9933 8.41788 28.1253 8.58485 27.9828 8.85184C27.9003 9.00619 27.8297 9.03112 27.6498 9.07767C27.372 9.14958 27.0697 9.13696 26.7609 9.12407C26.5954 9.11717 26.428 9.11018 26.2615 9.11611C26.2145 9.11777 26.1805 9.12086 26.1489 9.12374Z" fill="white"/>
</g>
</g>
</svg>
