<svg width="80" height="80" viewBox="0 0 80 80" fill="none" xmlns="http://www.w3.org/2000/svg">
<g id="PeopleIcon">
<path id="Star 2" d="M40 37.9869L44.955 46.494L45.1768 46.8748L45.6074 46.9681L55.2294 49.0517L48.6698 56.393L48.3762 56.7216L48.4205 57.16L49.4123 66.9549L40.4032 62.9849L40 62.8072L39.5968 62.9849L30.5877 66.9549L31.5795 57.16L31.6238 56.7216L31.3302 56.393L24.7706 49.0517L34.3926 46.9681L34.8232 46.8748L35.045 46.494L40 37.9869Z" stroke="url(#paint0_linear_3076_61854)" stroke-width="2"/>
<path id="Subtract" fill-rule="evenodd" clip-rule="evenodd" d="M29.8125 34.2308C29.8125 33.8351 30.1469 33.4615 30.625 33.4615H49.375C49.8531 33.4615 50.1875 33.8351 50.1875 34.2308V46.9367L52.1875 47.3698V34.2308C52.1875 32.7014 50.9283 31.4615 49.375 31.4615H30.625C29.0717 31.4615 27.8125 32.7014 27.8125 34.2308V47.3698L29.8125 46.9367V34.2308ZM29.7074 56.0776L30.5845 57.0593L30.5713 57.1897C30.2604 56.8378 29.9718 56.4664 29.7074 56.0776ZM49.4287 57.1897L49.4155 57.0593L50.2926 56.0776C50.0282 56.4664 49.7396 56.8378 49.4287 57.1897ZM22.9675 57.2254C23.5719 57.1562 24.1618 57.0444 24.7333 56.8933C24.8227 56.8696 24.9116 56.8451 25 56.8195C24.7595 56.3547 24.5279 55.8549 24.3068 55.3234C23.4234 55.5634 22.4874 55.6923 21.5185 55.6923C16.1357 55.6923 11.7721 51.7145 11.7721 46.8077V34.6923C11.7721 33.8002 12.5655 33.0769 13.5441 33.0769H22.3356C22.4467 32.5146 22.5709 31.9753 22.7075 31.4615H22.3356H20.6437H13.5441C11.5868 31.4615 10 32.908 10 34.6923V46.8077C10 52.6067 15.157 57.3077 21.5185 57.3077C22.0093 57.3077 22.4929 57.2797 22.9675 57.2254ZM55 56.8195C55.0884 56.8451 55.1773 56.8696 55.2667 56.8933C55.8382 57.0444 56.4281 57.1562 57.0325 57.2254C57.5071 57.2797 57.9907 57.3077 58.4815 57.3077C64.843 57.3077 70 52.6067 70 46.8077V34.6923C70 32.908 68.4132 31.4615 66.4559 31.4615H59.3563H57.6644H57.2925C57.4291 31.9753 57.5533 32.5146 57.6644 33.0769H66.4559C67.4345 33.0769 68.2279 33.8002 68.2279 34.6923V46.8077C68.2279 51.7145 63.8643 55.6923 58.4815 55.6923C57.5126 55.6923 56.5766 55.5634 55.6932 55.3234C55.4721 55.8549 55.2405 56.3547 55 56.8195ZM45.5 20.3846C45.5 23.3293 43.0669 25.7692 40 25.7692C36.9331 25.7692 34.5 23.3293 34.5 20.3846C34.5 17.4399 36.9331 15 40 15C43.0669 15 45.5 17.4399 45.5 20.3846ZM63.3125 22.2308C63.3125 24.1559 61.7189 25.7692 59.6875 25.7692C57.6561 25.7692 56.0625 24.1559 56.0625 22.2308C56.0625 20.3057 57.6561 18.6923 59.6875 18.6923C61.7189 18.6923 63.3125 20.3057 63.3125 22.2308ZM24.875 22.2308C24.875 24.1559 23.2814 25.7692 21.25 25.7692C19.2186 25.7692 17.625 24.1559 17.625 22.2308C17.625 20.3057 19.2186 18.6923 21.25 18.6923C23.2814 18.6923 24.875 20.3057 24.875 22.2308ZM47.5 20.3846C47.5 24.463 44.1421 27.7692 40 27.7692C35.8579 27.7692 32.5 24.463 32.5 20.3846C32.5 16.3062 35.8579 13 40 13C44.1421 13 47.5 16.3062 47.5 20.3846ZM59.6875 27.7692C62.7941 27.7692 65.3125 25.2896 65.3125 22.2308C65.3125 19.172 62.7941 16.6923 59.6875 16.6923C56.5809 16.6923 54.0625 19.172 54.0625 22.2308C54.0625 25.2896 56.5809 27.7692 59.6875 27.7692ZM26.875 22.2308C26.875 25.2896 24.3566 27.7692 21.25 27.7692C18.1434 27.7692 15.625 25.2896 15.625 22.2308C15.625 19.172 18.1434 16.6923 21.25 16.6923C24.3566 16.6923 26.875 19.172 26.875 22.2308Z" fill="url(#paint1_linear_3076_61854)"/>
</g>
<defs>
<linearGradient id="paint0_linear_3076_61854" x1="22" y1="71.9776" x2="59.4538" y2="70.3563" gradientUnits="userSpaceOnUse">
<stop stop-color="#8742DB"/>
<stop offset="1" stop-color="#D641DD"/>
</linearGradient>
<linearGradient id="paint1_linear_3076_61854" x1="70" y1="57.2801" x2="7.67426" y2="53.6266" gradientUnits="userSpaceOnUse">
<stop stop-color="#8742DB"/>
<stop offset="1" stop-color="#D641DD"/>
</linearGradient>
</defs>
</svg>
