<svg width="200" height="200" viewBox="0 0 200 200" fill="none" xmlns="http://www.w3.org/2000/svg">
<rect width="200" height="200" rx="32" fill="#333682"/>
<path fill-rule="evenodd" clip-rule="evenodd" d="M59.203 149.216V50.7888H64.5257C72.3401 50.7888 73.1477 38.3478 64.5257 38.3478H41.303C32.874 38.3478 32.924 50.7888 41.303 50.7888H46.7811V149.216H41.303C32.874 149.216 32.924 161.657 41.303 161.657H64.5257C72.3401 161.657 73.1477 149.216 64.5257 149.216H59.203ZM138.144 147.054C132.081 151.001 116.306 149.399 106.099 149.399C99.0712 149.399 93.8576 143.945 93.8576 136.96V63.0455C93.8576 56.0349 99.0997 50.787 106.099 50.787C118.367 50.787 133.643 48.6786 139.404 54.3022C141.804 56.6451 143.006 59.5608 143.006 63.0455V135.698C133.189 129.065 125.354 120.928 120.142 126.412C113.016 133.91 127.322 139.868 138.144 147.054ZM154.526 143.449C156.033 137.799 155.247 73.9974 155.247 63.0455C155.247 49.4036 144.482 38.3478 130.764 38.3478C113.493 38.3478 98.5831 35.5986 88.6368 45.559C83.8361 50.3664 81.4357 56.194 81.4357 63.0455V136.96C81.4357 150.999 92.1632 161.657 106.099 161.657C123.527 161.657 138.627 164.419 148.766 154.265C155.17 158.582 161.181 164.881 166.049 159.764C172.577 152.901 161.177 147.928 154.526 143.449Z" fill="white"/>
</svg>
