<svg width="33" height="28" viewBox="0 0 33 28" fill="none" xmlns="http://www.w3.org/2000/svg">
<path d="M5.52644 18.9114C5.22295 18.7297 5.03832 18.5503 4.87059 18.3874C4.78863 18.3077 4.7107 18.232 4.62491 18.1619C4.49237 18.0535 4.42829 17.979 4.38577 17.9295C4.31386 17.8458 4.30363 17.8339 4.1282 17.8519C3.98265 18.1231 4.20461 18.3717 4.41551 18.6079C4.55188 18.7606 4.68362 18.9082 4.70838 19.0533C4.6227 19.1471 4.45003 19.2422 4.26104 19.3463C3.85332 19.5708 3.36965 19.8372 3.51956 20.2223C3.64384 20.2854 3.85086 20.2739 3.96791 20.1832C4.00594 20.1537 4.04135 20.126 4.07472 20.0999C4.41515 19.8337 4.54465 19.7325 5.09747 19.594C5.4042 19.5171 5.83211 19.5924 6.02196 19.7353C6.08586 19.7834 6.2027 19.9523 6.34505 20.1581C6.54333 20.4448 6.79111 20.803 7.01428 21.0059C7.27872 21.2464 7.34988 21.268 7.63477 21.3545C7.66849 21.3647 7.7052 21.3759 7.74559 21.3884C8.05458 21.4843 8.11181 21.5186 8.18091 21.5599C8.21818 21.5822 8.25891 21.6066 8.34445 21.6438C8.66898 21.785 8.71098 21.9035 8.76853 22.0658C8.80357 22.1647 8.84439 22.2798 8.95829 22.4262C9.09597 22.43 9.09653 22.4294 9.1287 22.3948C9.14146 22.3811 9.15921 22.362 9.19249 22.3357C9.35766 22.2053 9.67571 22.2043 9.91335 22.37C10.1906 22.5633 10.3156 22.918 10.4114 23.1898C10.475 23.3702 10.5257 23.514 10.5994 23.5498C10.8005 23.6475 10.92 23.5271 10.9696 23.368C11.2335 22.5218 10.997 22.2659 10.3029 21.7669C9.88847 21.4689 9.67293 21.4045 9.49897 21.3524C9.35751 21.3101 9.24354 21.2761 9.07245 21.1313C8.74639 20.8555 8.44134 20.778 8.19938 20.7166C8.03792 20.6756 7.90455 20.6417 7.8118 20.5608C7.84154 20.4984 7.89408 20.4651 7.96577 20.4197C8.06338 20.3578 8.19651 20.2735 8.35599 20.0626C8.37147 20.0422 8.39155 20.0172 8.41431 19.989C8.57558 19.7888 8.87113 19.4219 8.61363 19.2962C8.44912 19.2182 8.40315 19.275 8.32966 19.3659C8.29538 19.4082 8.25512 19.458 8.19405 19.5049C7.71048 19.8765 7.0468 19.8372 6.56341 19.5564C6.39376 19.4578 6.2063 19.3384 6.01598 19.2172L6.0158 19.217C5.8516 19.1124 5.68528 19.0065 5.52644 18.9114Z" fill="black"/>
<path d="M5.69884 10.6161C6.0681 10.3918 6.39378 10.2538 6.85018 10.2616C6.85722 10.1732 6.8604 10.081 6.86364 9.98745V9.9874C6.87314 9.71211 6.8831 9.42387 6.99293 9.1776C7.05915 9.02922 7.62537 8.16396 7.82757 8.2384C7.96669 8.28961 8.00767 8.47745 7.95024 8.63799C7.93358 8.68454 7.91146 8.72541 7.88916 8.76663L7.88915 8.76665C7.87365 8.79528 7.85807 8.82408 7.84415 8.85508C7.60715 9.3829 7.44123 10.4041 7.87963 10.8764C8.31861 11.3492 8.95884 11.5568 9.57576 11.5956C9.63794 11.5995 9.69785 11.5885 9.75802 11.5775C9.85583 11.5596 9.9543 11.5416 10.0643 11.5871C10.5097 11.9846 9.68091 11.9785 9.43093 11.9766C9.4252 11.9766 9.41977 11.9765 9.41467 11.9765C9.40564 11.9764 9.39763 11.9764 9.39077 11.9764C8.94272 11.9774 7.95777 11.7714 7.64973 11.4317C7.53421 11.3042 7.39138 11.1453 7.34042 10.9998C7.11691 10.9913 6.97682 11.0324 6.79437 11.0976C6.42713 11.2288 5.8624 11.4546 5.65478 11.7876C5.31281 12.3361 5.32243 12.5958 5.33964 13.0605C5.34429 13.186 5.34949 13.3264 5.34848 13.4915C5.3467 13.7814 5.32026 13.7806 5.22063 13.7774L5.21476 13.7772C5.21307 13.7771 5.21136 13.7771 5.20964 13.777C5.20841 13.777 5.20718 13.777 5.20594 13.7769C4.79059 13.7662 4.95363 12.3054 4.99608 11.9738C4.90286 11.9877 4.86061 12.0074 4.81134 12.0303C4.72713 12.0695 4.62242 12.1182 4.20766 12.1642C3.65657 12.2253 3.12215 12.2196 2.70425 11.7943C2.41878 11.5038 2.42091 11.4141 2.42427 11.2734C2.42523 11.2329 2.4263 11.1881 2.42061 11.1331C2.59645 11.1038 2.62135 11.1213 2.68358 11.1651C2.73147 11.1988 2.80148 11.248 2.97944 11.3035C3.14735 11.3558 3.42473 11.4162 3.61607 11.4394C4.44233 11.5399 4.55413 11.5004 5.28276 10.9509C5.34829 10.9015 5.40844 10.8503 5.46769 10.7998C5.54314 10.7355 5.61712 10.6725 5.69884 10.6161Z" fill="black"/>
<path d="M6.20652 23.3929C6.38429 23.6774 6.63069 24.0718 6.92642 24.3577C6.95177 24.3822 6.97934 24.409 7.00866 24.4375C7.25324 24.6754 7.62002 25.0322 7.84664 25.1617C8.01219 25.2562 8.00113 25.3064 7.97672 25.4172C7.96889 25.4527 7.9597 25.4945 7.95451 25.5459C7.0345 25.5599 6.24108 24.9581 5.81186 24.1846C5.72408 24.0265 5.71149 24.0241 5.53582 23.9909C5.52899 23.9896 5.52192 23.9883 5.51458 23.9869C5.50092 23.9843 5.48635 23.9815 5.47079 23.9785C5.29747 23.9444 4.61045 23.6431 4.40859 23.5409C4.24542 23.4583 3.55061 22.951 3.3876 22.7739C3.28269 22.6598 3.23981 22.5912 3.19189 22.5144L3.19188 22.5144L3.19187 22.5143C3.15753 22.4593 3.12059 22.4001 3.05639 22.3172C3.20349 22.0961 3.2229 22.1105 3.48394 22.3032L3.48399 22.3032C3.58065 22.3746 3.71044 22.4704 3.89209 22.5878C4.47516 22.9373 5.27251 22.9836 5.685 23.0076H5.68515C5.8283 23.0159 5.92509 23.0216 5.95042 23.0363C6.0025 23.0664 6.08969 23.206 6.20652 23.3929Z" fill="black"/>
<path d="M9.32478 3.90622C9.2326 3.98176 9.13147 4.05745 9.03153 4.13225C8.97881 4.1717 8.92642 4.21092 8.87585 4.24972C8.32792 4.86437 8.35621 5.26807 8.39153 5.77201C8.39901 5.87879 8.40681 5.99006 8.40951 6.10879L8.6027 6.15563C8.82244 5.95082 8.83752 5.86457 8.8681 5.68962C8.88028 5.61997 8.89492 5.53625 8.92591 5.42538C8.9967 5.17213 9.16427 4.94386 9.34969 4.76186C9.86549 4.25565 10.1865 4.20666 10.3687 4.17885C10.5368 4.15321 10.5867 4.14559 10.5624 3.81394C10.5387 3.80724 10.5145 3.80056 10.4899 3.79376C10.1964 3.71267 9.84592 3.61585 9.70453 3.30192C9.56106 2.98335 9.55891 2.84532 9.61882 2.49406C9.6597 2.25431 9.76585 2.18111 9.86753 2.11099C9.92636 2.07043 9.98368 2.0309 10.026 1.96076C10.0911 1.85296 10.0383 1.72277 9.99938 1.63218C9.80838 1.60017 9.77222 1.60704 9.62466 1.70348C9.55446 1.74937 9.48012 1.78099 9.40648 1.81231C9.19058 1.90415 8.98064 1.99345 8.89834 2.43233C8.85471 2.66524 8.82393 3.0981 8.93615 3.28649C9.05884 3.49242 9.07385 3.53569 9.08248 3.56056C9.09402 3.5938 9.09415 3.59417 9.32478 3.90622Z" fill="black"/>
<path d="M5.65806 7.77095C5.71217 7.91062 5.77114 8.06284 5.77887 8.28503C5.77045 8.30307 5.76406 8.3169 5.7592 8.32744L5.75919 8.32747L5.75917 8.32749L5.75915 8.32755C5.74742 8.35297 5.74457 8.35913 5.74327 8.35882C5.74308 8.35878 5.74292 8.35859 5.74277 8.3583C5.7426 8.35797 5.74244 8.35751 5.74225 8.35698C5.74043 8.35166 5.73625 8.3395 5.69333 8.38389C5.35115 8.7379 5.26061 8.42967 5.17942 8.15326C5.16954 8.1196 5.15978 8.0864 5.14973 8.05493C5.00865 7.61347 5.00425 6.9901 5.00064 6.4776C5.00014 6.40795 4.99967 6.34034 4.99886 6.27552C4.99656 6.0899 4.98975 5.92936 4.98364 5.78544C4.9622 5.28071 4.94945 4.98036 5.17061 4.51951C5.18612 4.51841 5.20062 4.51732 5.21419 4.5163C5.4064 4.50188 5.41093 4.50154 5.40563 4.66861C5.40539 4.67614 5.40514 4.68371 5.4049 4.6913C5.39278 5.06463 5.37857 5.5022 5.92315 5.41669C5.97941 5.3192 5.99304 5.24107 6.00686 5.16189C6.02181 5.07623 6.03698 4.98933 6.10656 4.87531C6.22531 4.68073 6.3451 4.56652 6.72857 4.78149C6.88523 4.86933 6.79994 5.19266 6.74463 5.34768C6.71596 5.42806 6.60119 5.53508 6.46419 5.66285C6.25436 5.85853 5.99236 6.10286 5.90754 6.37463C5.88668 6.42482 5.86255 6.489 5.83774 6.55501L5.8377 6.55512L5.83768 6.55517C5.79804 6.66063 5.75665 6.77073 5.72403 6.83586C5.48252 7.31782 5.56275 7.52491 5.65806 7.77095Z" fill="black"/>
<path d="M11.5742 11.9463C11.5711 11.8417 11.568 11.7356 11.5769 11.6263C11.6855 11.556 11.827 11.562 11.8947 11.6914C11.9875 11.8687 12.0558 13.3235 11.8756 13.5794C11.6671 13.8755 11.2028 14.0108 10.7856 13.7755C10.781 13.772 10.776 13.7682 10.7707 13.7641L10.7545 13.7518C10.601 13.6349 10.2438 13.363 10.2568 13.2432C10.2708 13.1147 10.4332 13.0487 10.5704 13.0986C10.5968 13.1081 10.621 13.1176 10.6437 13.1264C10.8444 13.2046 10.9241 13.2357 11.2653 12.8926C11.5924 12.5638 11.5835 12.2624 11.5742 11.9463Z" fill="black"/>
<path d="M10.7543 26.4792C10.4178 26.526 10.325 26.4746 10.1093 26.3035C10.0637 26.2673 10.0173 26.2332 9.97105 26.1991L9.97101 26.1991C9.84905 26.1095 9.72787 26.0204 9.62363 25.8947C9.58891 25.8529 9.3029 25.3791 9.30624 25.335C9.31377 25.2356 9.72079 25.1311 9.93703 25.293C10.4133 25.6495 10.8016 25.6996 11.0777 25.7352C11.2967 25.7634 11.445 25.7826 11.5107 25.9383C11.6151 26.186 11.5109 26.2162 11.3474 26.2638C11.2723 26.2856 11.1846 26.3111 11.0989 26.363C10.9934 26.4269 10.8937 26.4598 10.7543 26.4792Z" fill="black"/>
<path fill-rule="evenodd" clip-rule="evenodd" d="M5.63454 27.2578C6.21161 27.2584 6.53368 27.4386 6.85757 27.6199C7.35915 27.9007 7.86509 28.1839 9.32918 27.8057C9.54368 27.7531 9.79478 27.7379 10.0647 27.7217C10.4809 27.6966 10.942 27.6688 11.3829 27.4966C12.2618 27.1535 12.5444 26.7429 12.7818 26.2141C12.9756 25.7825 13.0007 25.2886 13.0364 24.585C13.0444 24.4262 13.053 24.2568 13.0642 24.0749V2.18781C12.9823 1.31254 12.6346 0.965453 12.102 0.433723C12.066 0.397796 12.0292 0.361027 11.9915 0.323195C11.8521 0.196395 11.6673 0.117378 11.4586 0.0360242C11.163 -0.0791954 10.7684 0.107582 10.4964 0.236755C10.4169 0.274544 10.3563 0.305098 10.3083 0.329312L10.3083 0.329323L10.3083 0.329341L10.3082 0.329361C10.2115 0.378169 10.1659 0.401203 10.1184 0.405782C10.0761 0.409872 10.0323 0.399245 9.94931 0.379125C9.86378 0.358376 9.73662 0.327534 9.52652 0.292327C9.00888 0.205593 8.33407 0.469318 8.01948 0.868434C7.99006 0.905752 7.96378 0.93983 7.93975 0.970978C7.71852 1.25779 7.68885 1.29626 7.17245 1.32941C6.88734 1.34768 6.20195 1.59368 5.96609 1.79152C5.87043 1.87176 5.82015 1.98558 5.77407 2.08993C5.73676 2.17441 5.70219 2.25267 5.6485 2.30189C5.5273 2.41294 5.41751 2.51999 5.30795 2.62683L5.30791 2.62686C5.14414 2.78655 4.98084 2.94578 4.78063 3.11722C4.27216 3.55245 4.03824 4.11491 3.82463 4.73571C3.77046 4.89317 3.74401 5.04581 3.71879 5.19127C3.66786 5.48514 3.622 5.74972 3.36301 5.96562C2.79053 6.44287 2.12524 7.27639 2.07252 8.02542C2.05611 8.25887 2.05213 8.6429 2.07895 8.87046C2.08558 8.9268 2.09203 8.97702 2.09783 9.0222C2.14907 9.42142 2.1499 9.42793 1.78765 9.80105C1.29849 10.3049 1.07703 10.7645 0.832635 11.2717C0.736137 11.472 0.636064 11.6797 0.514526 11.9005C0.0535336 12.7379 0.208873 13.435 0.311698 13.8965C0.357088 14.1002 0.392245 14.2579 0.359637 14.3616C0.338549 14.4286 0.262559 14.5598 0.190361 14.6845C0.14358 14.7653 0.0983917 14.8433 0.070761 14.8993C-0.0841511 15.2134 0.0492818 15.4913 0.14827 15.6975C0.184924 15.7738 0.216854 15.8403 0.227675 15.8951C0.248049 15.9985 0.223342 16.051 0.194547 16.1122C0.178582 16.1461 0.161361 16.1826 0.149869 16.232C0.0167607 16.8041 0.0200184 17.9365 0.326831 18.4105C0.371944 18.4802 0.410039 18.5268 0.441542 18.5654C0.531277 18.6752 0.567525 18.7195 0.560103 19.0455C0.555355 19.2539 0.492652 19.4641 0.429171 19.6768C0.324866 20.0265 0.218463 20.3831 0.36361 20.7506C0.389964 20.8174 0.447619 20.9005 0.509127 20.9891C0.569901 21.0766 0.634437 21.1696 0.676257 21.2577C0.746394 21.4053 0.752391 21.6141 0.758992 21.8439C0.767126 22.1271 0.776175 22.4421 0.907337 22.7138C1.00575 22.9177 1.09986 22.9787 1.24 23.0695C1.2711 23.0896 1.30447 23.1113 1.34066 23.1363C1.54702 23.2787 1.65618 23.5074 1.77509 23.7564C1.9148 24.049 2.06796 24.3698 2.40803 24.6122C2.60178 24.7503 2.7481 24.8007 2.85943 24.8391C3.01427 24.8925 3.1014 24.9225 3.15426 25.1325C3.31168 25.758 3.6067 26.2904 4.09762 26.7253C4.35821 26.9562 4.93479 27.2077 5.26913 27.2658C5.39838 27.2883 5.4366 27.281 5.48636 27.2716C5.51997 27.2652 5.55883 27.2577 5.63454 27.2578ZM12.4209 24.8109C12.3661 25.022 12.3522 25.1925 12.3398 25.3438C12.3124 25.678 12.2928 25.9178 11.8571 26.2913C11.6088 26.5042 11.3347 26.7112 11.0246 26.8257L10.9636 26.8483L10.9635 26.8483C10.5567 26.9986 10.3898 27.0602 10.2177 27.0838C10.0979 27.1002 9.97558 27.0982 9.76816 27.0948H9.76796C9.65118 27.0929 9.50743 27.0905 9.32199 27.0908C9.09264 27.0911 8.88432 27.119 8.68216 27.1461C8.36518 27.1886 8.06334 27.229 7.71927 27.1577C7.54318 27.1213 7.36188 27.0434 7.18372 26.9669L7.18361 26.9669C7.14285 26.9494 7.10225 26.9319 7.06192 26.9151C6.67602 26.7539 6.55331 26.5575 6.46159 26.4107C6.36895 26.2624 6.30792 26.1647 6.03933 26.2049C5.93136 26.2211 5.8437 26.2413 5.7671 26.259L5.76696 26.2591L5.76686 26.2591L5.76679 26.2591C5.45357 26.3315 5.32495 26.3612 4.74689 25.8962C4.30419 25.5402 4.29176 25.4917 4.19157 25.1007C4.16886 25.012 4.14164 24.9058 4.10387 24.7744C3.98589 24.3639 3.72395 24.212 3.46312 24.0608C3.20308 23.91 2.94415 23.7599 2.83016 23.3548C2.81856 23.3136 2.80679 23.2707 2.79478 23.227L2.79477 23.2269L2.79476 23.2269C2.74622 23.0502 2.69362 22.8587 2.63201 22.7003C2.57092 22.5431 2.44731 22.4682 2.32364 22.3933C2.12125 22.2706 1.91868 22.1478 1.98962 21.6643C2.01704 21.8039 2.09184 21.9714 2.17704 22.0143C2.28412 22.0682 2.41741 22.0164 2.53651 21.9701C2.57279 21.956 2.60775 21.9424 2.64026 21.9325C2.44131 21.418 2.38279 21.0333 2.33852 20.3942C2.32551 20.3905 2.3132 20.3868 2.30143 20.3833C2.18928 20.35 2.1271 20.3315 1.98803 20.3942C1.95934 20.4713 1.94981 20.6285 1.9496 20.8079C1.92952 20.8077 1.90869 20.8084 1.88717 20.8091L1.88709 20.8091C1.7614 20.813 1.6121 20.8177 1.45205 20.6562C1.11208 20.3132 1.19478 19.9829 1.28908 19.6063C1.39211 19.1948 1.50899 18.728 1.10371 18.1288C0.873517 17.7885 0.931301 17.3539 1.0673 16.9767C1.09864 17.0225 1.13561 17.0727 1.17958 17.1302C1.23041 17.1967 1.27014 17.2501 1.30356 17.295C1.44556 17.4858 1.47385 17.5238 1.75756 17.7681C2.01786 17.9921 2.09454 18.0303 2.21465 18.0901C2.28189 18.1235 2.36273 18.1637 2.49702 18.2471C2.65883 18.3476 2.80594 18.359 3.03626 18.316C3.04243 18.2269 3.01803 18.2075 2.94681 18.1506C2.89748 18.1112 2.82568 18.0538 2.72603 17.943C2.64565 17.8536 2.61966 17.838 2.59661 17.8241C2.56546 17.8054 2.53967 17.7899 2.39224 17.6L1.74238 16.7786C1.71619 16.7158 1.70718 16.6878 1.7024 16.6729C1.69982 16.6649 1.69848 16.6607 1.69634 16.657C1.694 16.6529 1.6907 16.6493 1.6838 16.6419C1.67407 16.6314 1.65718 16.6132 1.62572 16.5749C1.52809 16.4523 1.47685 16.3284 1.43016 16.2154C1.34609 16.012 1.27672 15.8442 0.977717 15.7836C0.973689 15.7879 0.969752 15.7922 0.965908 15.7964C0.825788 15.5777 0.726688 15.3627 0.937658 15.0921C0.948109 15.0787 0.958325 15.0657 0.968295 15.053C1.15738 14.812 1.2578 14.684 1.19225 14.1611C1.14058 13.749 1.19198 12.777 1.34528 12.3488C1.51399 11.8774 1.99919 10.9994 2.35962 10.6299C2.37393 10.6152 2.38823 10.6005 2.40254 10.5858L2.40258 10.5858C2.59297 10.3902 2.78517 10.1928 3.01049 10.036C3.01428 9.89698 2.97689 9.81084 2.93251 9.70862C2.84654 9.51057 2.73436 9.25215 2.84466 8.43166C2.8527 8.37184 2.85832 8.3205 2.8633 8.27506C2.88351 8.09037 2.89307 8.00303 3.01113 7.83868C3.30131 7.46052 3.55273 7.21579 3.88784 6.88961L3.92725 6.85124C4.23836 6.55439 4.35046 6.03429 4.45593 5.54492C4.51028 5.29274 4.56287 5.04872 4.64003 4.84761C4.76585 4.51971 4.92065 4.31708 5.10024 4.082C5.14505 4.02335 5.19141 3.96267 5.23924 3.89753C5.58732 3.42351 5.79782 3.39254 5.94311 3.37116C6.02636 3.35891 6.0882 3.34982 6.14224 3.26232C6.21787 3.13986 6.25096 3.02222 6.28162 2.91319C6.34581 2.68494 6.39938 2.49445 6.81046 2.37663C7.35866 2.2195 7.66987 2.21624 7.87407 2.21411C8.11304 2.21161 8.20547 2.21064 8.35969 1.96639C8.75475 1.34069 8.96533 1.09435 9.88196 1.24382C9.9108 1.24852 9.96626 1.25919 10.0352 1.27244C10.2635 1.31638 10.6395 1.3887 10.6824 1.36591C10.7223 1.34468 10.7394 1.31991 10.7567 1.29487C10.8001 1.23198 10.8447 1.16735 11.2554 1.15268C11.4631 1.14522 11.7524 1.20698 11.9187 1.29202C12.1572 1.41402 12.337 1.91693 12.4209 2.23058V7.26605C12.4138 7.25211 12.4062 7.23843 12.398 7.2251C12.1475 7.17914 12.1082 7.20034 12.0017 7.34752C11.9311 7.44498 11.7705 7.52026 11.5945 7.60283C11.5029 7.64575 11.4072 7.69065 11.3177 7.74164C11.2755 7.76569 11.2271 7.79225 11.1742 7.82126C10.7202 8.07038 9.9368 8.50021 9.9306 9.06996C10.1683 9.19191 10.2898 9.08366 10.4775 8.91649C10.6056 8.8024 10.7645 8.66087 11.0121 8.54633C11.3001 8.41314 11.5642 8.29283 11.8673 8.21953C11.914 8.20823 11.955 8.20246 11.993 8.19713C12.1282 8.17812 12.2241 8.16464 12.3975 7.92567L12.4209 7.8919V17.997C11.45 17.9653 11.0756 17.8204 10.4326 17.4027C10.1927 17.2837 9.68214 16.564 9.65914 16.2712C9.90993 16.0742 10.0261 15.7237 9.97365 15.4137C9.96089 15.3384 9.95046 15.268 9.94066 15.2018C9.89548 14.897 9.86339 14.6805 9.67711 14.4676C9.5457 14.4823 9.46336 14.5332 9.36939 14.5913C9.3646 14.5942 9.35979 14.5972 9.35493 14.6002C9.35092 14.6027 9.34687 14.6051 9.3428 14.6076L9.33968 14.6095C9.33776 14.6107 9.33583 14.6119 9.33389 14.6131C9.32962 14.7326 9.35479 14.8388 9.37922 14.9419C9.43146 15.1624 9.48034 15.3687 9.23068 15.6611C9.00949 15.9202 8.8745 15.9057 8.57553 15.8736C8.45928 15.8611 8.31823 15.8459 8.13769 15.8432C7.45776 15.8328 6.9663 15.8659 6.40041 16.1633C6.35605 16.1866 6.31005 16.2114 6.26371 16.2364C6.14797 16.2988 6.03012 16.3623 5.93039 16.4065L5.88045 16.8513C5.85309 17.0953 5.97372 17.0285 6.20627 16.8998C6.3489 16.8208 6.53363 16.7186 6.75213 16.6504C7.29125 16.4822 8.17472 16.3444 8.74729 16.7195C9.03702 16.8906 9.10441 17.0573 9.1741 17.2296C9.23524 17.3808 9.29814 17.5363 9.51453 17.703C9.60421 17.7721 9.68545 17.8454 9.76755 17.9195C10.1094 18.2277 10.466 18.5494 11.5074 18.6387C11.573 18.637 11.6362 18.6359 11.6977 18.6348H11.6977C11.9487 18.6303 12.1718 18.6263 12.4209 18.5874V24.8109Z" fill="black"/>
<path fill-rule="evenodd" clip-rule="evenodd" d="M23.2748 5.60235C23.3008 5.57528 23.3271 5.54013 23.3537 5.49601C23.6311 5.03707 23.2223 4.53754 22.8751 4.11335C22.7715 3.98679 22.6734 3.86694 22.6006 3.75687C22.5304 3.65051 22.0487 3.28551 21.9502 3.22981C21.8008 3.14525 21.6787 2.97592 21.549 2.79611C21.4075 2.60001 21.2571 2.39143 21.0524 2.26674L19.9599 1.63837C19.8669 1.58817 19.3792 1.48945 19.2451 1.46914C19.2156 1.46468 19.1826 1.46407 19.1464 1.4634C18.9969 1.46064 18.793 1.45687 18.557 1.1765C18.3285 0.904931 17.9863 0.787146 17.6938 0.686494C17.5479 0.636281 17.4144 0.590332 17.3136 0.531681C17.1969 0.463811 16.9304 0.384113 16.8292 0.355748C16.7857 0.343559 16.736 0.30517 16.6747 0.257864C16.4844 0.110869 16.1827 -0.122216 15.6068 0.0772323C15.2706 0.218904 14.6305 0.544264 14.495 0.901935C14.4363 1.06359 14.4026 1.20181 14.3698 1.33641L14.3698 1.33643C14.3463 1.43294 14.3232 1.5276 14.2917 1.62768C14.2525 1.75226 14.2054 1.85584 14.1587 1.95844C14.0875 2.11499 14.0174 2.26924 13.9778 2.49227C13.9705 2.5338 13.9624 2.57478 13.9544 2.61546C13.9257 2.76175 13.8978 2.90415 13.905 3.05401V26.0507C14.071 26.7499 14.4368 26.9737 14.6281 27.0907C14.6604 27.1105 14.6877 27.1272 14.7083 27.1427C14.7656 27.1859 14.8202 27.228 14.8732 27.269C15.2035 27.5241 15.4738 27.7328 15.9789 27.8458C16.0991 27.8727 16.1789 27.8941 16.2435 27.9116C16.3976 27.9531 16.4656 27.9714 16.7917 27.9845C17.4069 28.0092 17.9378 27.9285 18.5292 27.8022C18.7118 27.7632 18.8469 27.7739 19.0241 27.7878C19.2721 27.8074 19.6026 27.8334 20.2611 27.7389C20.7225 27.6726 20.7544 27.6493 20.8393 27.5873C20.9049 27.5394 21.0021 27.4685 21.3534 27.3368C21.4523 27.2998 21.4996 27.2652 21.5415 27.2345C21.6054 27.1878 21.6568 27.1502 21.859 27.127C22.6634 27.0346 23.1842 26.4761 23.8494 25.5346C23.9042 25.4527 24.8353 24.6592 24.884 24.6331C25.5653 23.9785 25.595 23.8683 25.6694 23.5926C25.7025 23.4699 25.7445 23.3144 25.8567 23.0636C25.8896 22.9901 25.9212 22.9056 25.955 22.8155L25.955 22.8155L25.955 22.8155C26.082 22.4766 26.2386 22.0585 26.6007 21.8496C26.8231 21.7213 26.9363 21.3882 27.0311 21.1093L27.0312 21.1092L27.0312 21.109L27.0313 21.1088C27.0589 21.0276 27.0849 20.9511 27.1116 20.8855C27.1664 20.7511 27.2131 20.6394 27.2528 20.5445L27.253 20.544C27.3708 20.262 27.4267 20.1285 27.4476 19.9897C27.4665 19.8649 27.4572 19.7359 27.4395 19.4909L27.4372 19.4591C27.399 18.9285 27.468 18.5749 27.5369 18.2218C27.5927 17.9362 27.6484 17.6509 27.6473 17.2723C27.6468 17.1227 27.6493 16.9943 27.6517 16.8672V16.8666C27.6548 16.7024 27.6578 16.5403 27.6545 16.3374C27.6435 15.6636 27.5733 15.5479 27.4962 15.4206C27.4571 15.3563 27.4163 15.2889 27.3804 15.1449C27.3142 14.8788 27.2248 14.7208 27.0548 14.5151C27.0235 14.4772 26.995 14.441 26.9677 14.4065C26.7869 14.1771 26.6616 14.0182 26.1566 13.9091C26.1539 13.9085 26.1511 13.908 26.1482 13.9078C26.107 13.9002 26.0628 13.8955 26.0119 13.8918C25.9911 13.8902 25.9675 13.8885 25.9415 13.8865C25.4797 13.8514 24.2439 13.7574 24.0654 14.1208C23.9256 14.4057 24.0376 14.57 24.1581 14.7467C24.2247 14.8443 24.2938 14.9457 24.3245 15.0734C24.3502 15.1803 24.3526 15.4069 24.3162 15.5189C24.2155 15.8286 23.5638 15.8771 23.3217 15.7867C22.7509 15.5736 22.8298 15.2902 22.9305 14.9282C22.9579 14.8299 22.9869 14.7257 23.0049 14.6156C23.0193 14.5273 23.0407 14.2913 23.0435 14.1972C23.063 13.5465 21.7879 13.6163 21.0281 13.6579L21.028 13.6579C20.8626 13.6669 20.7216 13.6747 20.6237 13.6733C20.6213 13.5837 20.6153 13.4973 20.6094 13.4113C20.6029 13.3169 20.5964 13.2231 20.5947 13.1264C20.594 13.0844 20.5921 13.0357 20.5901 12.9827L20.5901 12.9826C20.5724 12.5181 20.5418 11.7158 21.1344 12.0845C21.7662 12.4774 22.333 12.0751 22.5757 11.456C22.6478 11.2718 22.6301 10.8063 22.6173 10.4682V10.4681C22.6148 10.4024 22.6124 10.3414 22.611 10.2883C22.6009 9.91657 22.5596 9.74725 22.2913 9.52762C21.8375 9.15654 21.3725 9.38515 21.0466 9.54536C20.9318 9.60181 20.8342 9.64977 20.7605 9.66001C20.6798 9.46429 20.6021 8.16408 20.637 7.85322C21.0987 7.82787 21.5066 7.80663 21.9595 7.79832C21.9851 7.79785 22.0142 7.79763 22.046 7.7974C22.3082 7.79549 22.753 7.79224 22.9235 7.63112C23.1213 7.44363 23.2099 7.27935 23.0142 7.00635C22.8252 6.74275 22.6809 6.25249 22.8738 5.97245C22.9323 5.88748 23.0102 5.82679 23.0908 5.764C23.1531 5.71545 23.217 5.66563 23.2748 5.60235ZM20.4109 3.07643C20.4097 3.03392 20.4091 2.99195 20.4086 2.95098V2.95084C20.4081 2.91306 20.4076 2.87612 20.4066 2.84039C20.5503 2.94052 20.5774 2.98449 20.6098 3.03698C20.6538 3.10829 20.7075 3.19534 21.0764 3.46034C21.1983 3.5479 21.3052 3.59002 21.4074 3.63034C21.5761 3.69684 21.7323 3.75842 21.9231 4.01097C21.9624 4.06617 22.0531 4.12764 22.1429 4.18848C22.2384 4.25313 22.3328 4.31708 22.3633 4.37207C22.4297 4.43434 22.5056 4.61929 22.5906 4.83102C22.591 4.83536 22.5942 4.84351 22.6006 4.85596L22.6014 4.85788C22.6168 4.89619 22.6325 4.93522 22.6484 4.97443C22.7264 5.24634 22.582 5.47693 22.5155 5.583L22.5155 5.58309C22.5062 5.59794 22.4984 5.61035 22.493 5.62008C22.1332 6.09166 22.2152 6.33342 22.3158 6.63038C22.3705 6.79159 22.4307 6.96908 22.4287 7.20843C22.2293 7.28896 21.9781 7.2864 21.7245 7.28382H21.724C21.6468 7.28303 21.5694 7.28224 21.4932 7.28381C21.3075 7.28761 21.1562 7.29442 21.0327 7.29997C20.5796 7.32035 20.5001 7.32392 20.4704 7.10118C20.447 6.92582 20.4511 6.69982 20.4555 6.46086C20.4654 5.91066 20.4767 5.29178 20.1566 5.06432C19.969 4.93101 19.7843 4.97641 19.5724 5.02849C19.4398 5.06107 19.2966 5.09627 19.1354 5.09197C18.8119 5.08336 18.5008 4.84473 18.5183 4.36888L18.5188 4.35588C18.5263 4.1467 18.5435 3.66686 19.003 3.51167C19.3082 3.40858 19.5342 3.54042 19.7264 3.65256C19.944 3.77952 20.1184 3.88124 20.3154 3.58823C20.4246 3.42578 20.4225 3.37453 20.4146 3.17653L20.4146 3.17647L20.4146 3.17637L20.4146 3.1762L20.4145 3.17541C20.4133 3.14594 20.412 3.11323 20.4109 3.07643ZM26.0067 14.5991C25.7622 14.4667 25.5078 14.5742 25.2784 14.6713C25.1819 14.7121 25.0899 14.751 25.0048 14.7695C24.8687 14.8032 24.8682 14.9524 24.8675 15.1551C24.8669 15.3538 24.8661 15.6038 24.7371 15.8466C24.6487 16.0132 24.3546 16.2822 24.2065 16.3399C23.6887 16.5417 23.1612 16.4625 22.7295 16.1583C22.2293 15.8059 22.2116 15.4031 22.1944 15.0122C22.1835 14.7658 22.1729 14.524 22.0417 14.3025L20.6273 14.3016C20.6141 14.4227 20.6105 14.6474 20.6065 14.9031C20.5984 15.4133 20.5883 16.0466 20.4953 16.2255L20.2736 16.5006C20.1169 16.741 19.6966 16.6821 19.3487 16.6335C19.205 16.6133 19.0736 16.595 18.9782 16.6001C18.9589 16.6442 18.9328 16.6795 18.906 16.7158C18.8683 16.7667 18.8292 16.8196 18.8051 16.9019C18.6874 17.3037 18.7554 17.7886 18.989 18.1102C19.3039 18.1457 19.4313 18.0928 19.5451 18.0456C19.6272 18.0115 19.7023 17.9803 19.8357 17.9875C20.6864 18.0334 20.6497 19.1728 20.6242 19.9612C20.6199 20.0957 20.6159 20.22 20.6166 20.3269C20.7038 20.3269 20.8351 20.3342 20.9877 20.3426L20.9879 20.3426L20.9883 20.3426L20.9883 20.3426H20.9885C21.4371 20.3674 22.0689 20.4023 22.3002 20.2926C22.6154 20.143 22.4492 19.8777 22.3199 19.6713L22.3199 19.6712C22.2931 19.6285 22.2679 19.5882 22.2489 19.552C22.0022 19.0829 22.5044 18.5964 22.9354 18.3814C23.2231 18.238 24.1952 18.2103 24.5144 18.6719C24.82 19.114 24.7536 19.3422 24.6866 19.5727C24.6477 19.7062 24.6087 19.8404 24.6416 20.0174C24.8906 20.1434 25.3271 20.0999 25.7523 20.0574C26.0182 20.0309 26.2798 20.0048 26.4882 20.0209C26.5822 19.7181 26.6495 19.3612 26.5979 19.0243C26.4996 18.3835 26.5978 18.0475 26.7176 17.6379C26.7702 17.4578 26.827 17.2635 26.8731 17.0228C26.9701 16.5163 26.8488 16.1696 26.7121 15.7792C26.6777 15.6809 26.6423 15.5799 26.6092 15.4727C26.5047 15.1348 26.2606 14.8726 26.0851 14.6842L26.0849 14.6841C26.0568 14.6539 26.0304 14.6256 26.0067 14.5991ZM26.2078 20.7156C26.1685 20.7166 26.1187 20.7181 26.0609 20.7199H26.0608C25.5631 20.7355 24.4625 20.7699 24.2156 20.5885C23.8952 20.3531 24.0117 20.0114 24.1195 19.6953C24.2243 19.3879 24.3209 19.1048 23.9997 18.9672C23.7221 18.8482 23.4045 18.7607 23.1058 18.9035C22.924 18.9904 22.8618 19.0831 22.8421 19.1922C22.8049 19.3976 22.8701 19.5643 22.9355 19.7318C23.0243 19.9589 23.1137 20.1875 22.9494 20.5165C22.803 20.8097 21.4608 20.8799 21.1705 20.8796C21.0336 20.8795 20.9202 20.8935 20.7987 20.9084L20.7986 20.9085C20.7397 20.9157 20.679 20.9232 20.6128 20.9294C20.5359 21.3572 20.5278 22.3387 20.8846 22.6866C20.9114 22.6721 20.9347 22.6579 20.9569 22.6444C21.0713 22.5749 21.156 22.5235 21.5301 22.5388C22.3578 22.5727 22.5634 23.5463 22.4551 24.2183C22.4138 24.4749 22.3493 24.5785 22.2171 24.7675C21.9167 25.197 21.1554 25.175 20.8249 25.0377C20.5756 24.9341 20.6069 25.2758 20.6399 25.6355C20.6482 25.7262 20.6566 25.8179 20.6606 25.904C20.6669 26.0371 20.6801 26.1716 20.6935 26.3084V26.3085C20.7058 26.4344 20.7183 26.5623 20.7258 26.6926C20.8236 26.6448 20.9261 26.5838 21.0353 26.504C21.1843 26.3951 21.3451 26.3696 21.521 26.3418C21.8907 26.2832 22.3273 26.2141 22.8623 25.337C22.927 25.231 23.9363 24.3386 24.049 24.2634C24.3483 24.0637 24.4529 23.8059 24.5481 23.5712C24.617 23.4017 24.6808 23.2442 24.8097 23.1297C25.0033 22.9575 25.3712 22.2324 25.6553 21.6724L25.6553 21.6723C25.8218 21.3441 25.9595 21.0725 26.0166 21.0023C26.092 20.9093 26.1554 20.825 26.2078 20.7156ZM19.9741 26.9028C19.967 26.7916 19.9675 26.6727 19.9681 26.5571C19.9688 26.4123 19.9694 26.2727 19.955 26.1597C19.8954 25.6945 19.7913 24.8474 20.1963 24.5335C20.3506 24.4137 20.5775 24.3241 20.8139 24.403C20.9297 24.4417 20.9868 24.4759 21.0319 24.5028C21.1219 24.5567 21.1638 24.5817 21.5296 24.5564C22.1378 24.5143 21.9443 23.5286 21.8561 23.3879C21.6744 23.098 21.2686 23.1984 20.9611 23.2745C20.8325 23.3064 20.721 23.3339 20.6503 23.3269C20.0834 23.2708 20.0542 23.1232 19.9853 22.7745C19.9706 22.7002 19.9542 22.6167 19.9303 22.5231C19.8309 22.1338 19.8268 21.7275 19.8223 21.2777C19.8214 21.1901 19.8205 21.1008 19.8189 21.0097C19.6244 21.0056 19.436 21.0172 19.2551 21.0284C19.1265 21.0363 19.0017 21.044 18.8811 21.0456L18.8529 21.046C18.4786 21.051 18.3399 21.0528 17.9769 21.1595C17.9803 21.2781 18.0204 21.3767 18.0623 21.4797C18.1425 21.6769 18.2292 21.89 18.077 22.2895C17.9819 22.539 17.7739 22.6796 17.6138 22.7879L17.6028 22.7953C17.0782 23.1147 15.9516 22.9019 15.7232 22.1515C15.5721 21.6061 15.7435 21.3746 15.8916 21.1745C15.9807 21.0542 16.0614 20.9452 16.0583 20.786C15.6946 20.6564 15.303 20.7069 14.9468 20.7529C14.8073 20.7709 14.6732 20.7882 14.5483 20.7937V25.8233C14.5563 25.8384 14.5655 25.8583 14.5767 25.8822C14.6953 26.1365 15.0266 26.8469 16.3061 27.1932C16.8848 27.3498 17.6142 27.0726 17.7941 27.0043C17.8071 26.9993 17.8173 26.9955 17.8242 26.993L17.8252 26.9926L17.8268 26.9921C17.8276 26.9918 17.8283 26.9915 17.829 26.9913C17.8297 26.9911 17.8304 26.9908 17.831 26.9907L17.8316 26.9905L17.8322 26.9903C17.8327 26.9901 17.8331 26.99 17.8335 26.9899C17.9789 26.9525 18.4358 26.9349 18.6069 26.9934C18.7573 27.0449 19.4453 27.0528 19.5998 26.9987C19.7301 26.9531 19.853 26.9259 19.9741 26.9028ZM14.5483 20.1646C15.4433 20.1459 16.8568 20.1983 16.5839 20.9846L16.4119 21.4946C15.9864 22.6233 17.602 22.7136 17.7189 22.0652C17.7631 21.8203 17.6823 21.6034 17.6087 21.4059C17.4909 21.0896 17.3916 20.8229 17.8533 20.5704C18.1359 20.4159 18.5061 20.4209 18.8539 20.4256C18.9358 20.4267 19.0165 20.4278 19.0946 20.4268C19.2145 20.4252 19.3145 20.4263 19.3978 20.4272C19.6156 20.4297 19.7199 20.4308 19.7697 20.3797C19.8154 20.3327 19.815 20.2415 19.8143 20.0665C19.8142 20.03 19.814 19.9898 19.8143 19.9456C19.8145 19.9099 19.815 19.8744 19.8156 19.839V19.8389C19.8175 19.7212 19.8194 19.6047 19.8073 19.4863C19.8025 19.4386 19.8017 19.3809 19.8008 19.3188C19.7977 19.0942 19.7937 18.811 19.5958 18.7231C19.5041 18.6823 19.3966 18.687 19.2748 18.6924C18.9917 18.7048 18.6307 18.7206 18.2078 18.1781C18.0424 17.9658 17.9638 17.3365 18.0015 17.0417C18.0625 16.7495 18.248 16.2944 18.5006 16.1601C18.709 16.0493 18.9925 16.1144 19.2529 16.1742C19.5738 16.2479 19.8596 16.3135 19.9267 16.0319C20.0469 15.5271 20.0863 14.7175 20.0215 14.2444C19.8759 14.2302 19.6775 14.2347 19.458 14.2397C18.6669 14.2575 17.6022 14.2815 17.7509 13.4592C17.7661 13.3753 17.79 13.2987 17.8131 13.2248C17.8749 13.0272 17.9307 12.8488 17.7964 12.601C17.4171 11.9009 16.1446 12.1067 16.1072 12.8031C16.0936 13.0582 16.2346 13.2156 16.3634 13.3595C16.5131 13.5265 16.6463 13.6752 16.502 13.9374C16.3287 14.2522 15.7813 14.228 15.3499 14.2089C15.2279 14.2035 15.1153 14.1985 15.0229 14.2017C14.9814 14.2031 14.9392 14.2056 14.8969 14.2081L14.8967 14.2081C14.7774 14.2151 14.657 14.2222 14.5483 14.2061V20.1646ZM14.5483 13.636C14.5511 13.6361 14.554 13.6362 14.5569 13.6363C14.6973 13.6415 14.8319 13.6541 14.9625 13.6663C15.3124 13.6991 15.6332 13.7291 15.9585 13.6057C15.9484 13.4771 15.8993 13.4116 15.8422 13.3357C15.7851 13.2596 15.7201 13.173 15.6786 13.0019C15.5127 12.318 16.2128 11.7271 16.9109 11.7033C17.477 11.6839 17.8615 11.7028 18.1656 12.1165C18.5278 12.6093 18.4573 12.8544 18.3841 13.1093C18.3406 13.2608 18.296 13.4158 18.3409 13.6283C18.3743 13.7863 18.7965 13.7635 19.0463 13.75L19.0463 13.75C19.0937 13.7475 19.1348 13.7453 19.166 13.7447C19.2798 13.7425 19.386 13.7364 19.492 13.7303L19.4921 13.7303H19.4924C19.6656 13.7204 19.8383 13.7105 20.043 13.7177C20.037 13.6094 20.0327 13.5002 20.0285 13.3914L20.0284 13.3902C20.0189 13.1463 20.0095 12.9049 19.9802 12.6809C19.9093 12.1383 19.9492 11.7343 20.3562 11.4494C20.6216 11.2636 20.8797 11.3519 21.1441 11.4425C21.3161 11.5014 21.4909 11.5613 21.6722 11.5471C21.9399 11.2308 22.0743 9.8699 21.3321 10.0447C21.2419 10.066 21.1489 10.102 21.0555 10.1382C20.7591 10.253 20.458 10.3697 20.2224 10.0236C19.9749 9.65993 19.9823 8.80768 19.9876 8.19515C19.9888 8.06278 19.9898 7.9416 19.9882 7.83897C19.6382 7.80069 18.6008 7.78734 18.285 7.8098C18.289 7.94364 18.3222 8.08123 18.357 8.22582C18.4215 8.49329 18.4917 8.78473 18.3939 9.1207C18.3858 9.14872 18.3792 9.17405 18.3731 9.19786C18.3537 9.27298 18.3383 9.33291 18.2883 9.41406C17.7612 10.2709 15.7026 9.9537 15.8134 8.6011C15.8269 8.4358 15.8823 8.33958 15.933 8.25161C15.9879 8.1563 16.0372 8.07066 16.0216 7.91732C15.7993 7.90061 14.9913 7.93792 14.7791 7.96353C14.705 7.97245 14.6258 7.96956 14.5483 7.95951V13.636ZM14.5483 7.23234V3.45873C14.6832 3.19845 14.7318 2.98489 14.7771 2.78531C14.8176 2.60711 14.8556 2.44006 14.9503 2.26085C14.9934 2.17926 15.0318 2.06031 15.0746 1.92771C15.2217 1.47254 15.4207 0.856617 16.0385 1.03984C16.1728 1.07965 16.3337 1.08219 16.5017 1.08484C16.7022 1.08801 16.9127 1.09133 17.0997 1.15836L17.6712 1.48737C17.7111 1.50904 17.7501 1.52688 17.7879 1.54419C17.8849 1.58854 17.9741 1.62933 18.0504 1.72175C18.0556 1.72803 18.0608 1.73433 18.066 1.74066C18.1662 1.86219 18.2733 1.99206 18.3974 2.09095C18.4558 2.12772 18.5106 2.16855 18.5647 2.20879C18.7776 2.36727 18.9786 2.5168 19.3347 2.37484C19.4975 2.30992 19.6086 2.34551 19.814 2.41136L19.8141 2.41139C19.8529 2.42383 19.8951 2.43736 19.9416 2.45149C19.9704 2.61862 19.9285 3.10275 19.8823 3.25138C19.7223 3.26458 19.6987 3.25305 19.6284 3.21874C19.6055 3.20752 19.5775 3.19386 19.5382 3.17783C19.27 3.06863 18.8009 2.98596 18.5537 3.14714C17.5019 3.83317 17.8243 5.60614 19.065 5.53437C19.1244 5.53094 19.1892 5.5233 19.2565 5.51538C19.4611 5.4913 19.6885 5.46453 19.8568 5.54488C19.9577 5.59303 19.9633 5.76208 19.9679 5.89731C19.9689 5.9278 19.9698 5.95658 19.9718 5.98186C19.9854 6.15426 19.9221 7.21585 19.8464 7.28309C19.7607 7.35914 19.1796 7.33995 18.6876 7.3237C18.4166 7.31475 18.1726 7.3067 18.0534 7.31594C17.8746 7.3298 17.7804 7.34697 17.6701 7.5276C17.5993 7.64358 17.6454 7.82831 17.6978 8.03838C17.7691 8.32426 17.8522 8.65706 17.6681 8.92731C17.4569 9.23757 16.8156 9.20871 16.6817 8.89971C16.5735 8.65039 16.6458 8.43087 16.7212 8.2019C16.7795 8.0249 16.8397 7.84225 16.8198 7.63583C16.7843 7.26734 16.2571 7.25951 15.9182 7.25447H15.9181C15.8748 7.25383 15.8345 7.25323 15.7987 7.25193C15.5154 7.24158 14.9641 7.22881 14.5483 7.23234Z" fill="black"/>
<path fill-rule="evenodd" clip-rule="evenodd" d="M30.8386 2.47124C30.9592 2.56913 31.326 2.66286 31.5212 2.65908C31.7086 2.65545 31.8417 2.65056 31.9461 2.64672C32.2512 2.6355 32.3103 2.63333 32.7612 2.69833C32.9744 2.87437 32.9659 3.25684 32.9611 3.47487C32.9595 3.54505 32.9583 3.59819 32.9651 3.62193C32.9616 3.7998 32.9677 3.95836 32.9732 4.10436C32.992 4.59793 33.0054 4.9479 32.6288 5.41504C32.4486 5.63861 32.0374 5.58651 31.6969 5.54338C31.5567 5.52563 31.4286 5.50939 31.3334 5.51453C31.3142 5.55865 31.2881 5.59392 31.2612 5.63024C31.2236 5.68112 31.1844 5.73407 31.1603 5.81632C31.0427 6.21807 31.1107 6.70299 31.3443 7.02458C31.6592 7.06013 31.7866 7.00724 31.9004 6.96C31.9825 6.9259 32.0575 6.89474 32.1909 6.90194C33.2952 6.96157 33.0002 8.86043 32.8818 9.6224C32.8615 9.75323 32.8464 9.85055 32.8444 9.89928C32.7975 9.90163 32.7459 9.90414 32.6903 9.90685C32.0371 9.93861 30.8373 9.99695 30.3321 10.1454C30.3416 10.2741 30.3815 10.3751 30.4209 10.4749C30.4952 10.6631 30.5678 10.847 30.4322 11.2039C30.3426 11.4399 30.2093 11.6322 30.0465 11.7333C29.3404 12.172 28.0096 11.6947 28.0585 10.6523C28.0686 10.4358 28.1573 10.3025 28.2435 10.173C28.3319 10.0402 28.4177 9.91129 28.4136 9.70041C27.9535 9.53644 27.5088 9.59235 27.0984 9.64395C26.765 9.68587 26.4542 9.72495 26.176 9.64102C26.1666 9.63818 26.1581 9.63661 26.1502 9.63517C26.0916 9.6244 26.0747 9.62131 26.0511 9.14771C26.0317 8.75868 26.0493 7.69506 26.0626 7.32604C26.0639 7.29026 26.0645 7.24997 26.0651 7.20661C26.0701 6.86686 26.078 6.33791 26.4455 6.30235C26.6514 6.28245 26.8335 6.34272 27.0101 6.40112C27.2385 6.47669 27.4575 6.54914 27.7062 6.4408C28.0143 6.30655 28.043 5.66358 27.7337 5.45183C27.4404 5.25109 27.0962 5.34329 26.8338 5.41363C26.6779 5.4554 26.5507 5.48946 26.4802 5.44984C26.4609 5.42544 26.442 5.40302 26.4238 5.38154C26.3444 5.28748 26.2803 5.21146 26.269 5.06552C26.2515 4.83838 26.2736 3.0142 26.2947 2.93569C26.3603 2.69219 26.4331 2.52538 26.6161 2.55073C27.1284 2.62169 27.8671 2.68961 28.3137 2.52007C28.3037 2.39151 28.2545 2.32603 28.1975 2.25007C28.1404 2.17398 28.0753 2.08737 28.0338 1.91629C27.8679 1.23241 28.568 0.641555 29.2662 0.617687C29.9687 0.593653 30.7044 0.800399 30.8097 1.60161C30.8253 1.72032 30.8219 1.85331 30.8185 1.98914C30.8144 2.15234 30.8102 2.31966 30.8386 2.47124ZM26.9661 3.12374C26.9195 3.12785 26.878 3.13151 26.8098 3.12989C26.8311 3.38785 26.842 3.83246 26.8116 4.12263C26.8045 4.18965 26.7981 4.24418 26.7925 4.29153C26.7708 4.47461 26.7619 4.55016 26.7813 4.82447C26.9194 4.82032 27.04 4.78609 27.1624 4.75137C27.3774 4.69039 27.5976 4.6279 27.9266 4.72417C27.9545 4.73233 27.9797 4.73888 28.0035 4.74504C28.0785 4.76451 28.1384 4.78004 28.2192 4.83003C29.0706 5.35637 28.7824 7.40213 27.6044 7.34003C27.4604 7.3282 27.3713 7.27918 27.2792 7.2285C27.1518 7.15842 27.0187 7.08515 26.7263 7.10254C26.6872 7.38788 26.7171 7.68259 26.7466 7.97277C26.783 8.33109 26.8187 8.6825 26.7228 9.00078C27.5846 8.97284 29.2339 9.04987 28.9392 9.89898C28.9128 9.97998 28.8987 10.031 28.8864 10.0751C28.8634 10.1586 28.847 10.2177 28.7671 10.409C28.6214 10.758 28.7144 11.204 29.0966 11.3332C29.4779 11.462 30.0106 11.3322 30.0742 10.9796C30.1184 10.7348 30.0376 10.5179 29.964 10.3203C29.8462 10.004 29.7468 9.73733 30.2085 9.48481C30.4956 9.32785 30.8484 9.3337 31.1941 9.33944C31.2802 9.34087 31.3658 9.34229 31.4498 9.34119C31.9118 9.33514 32.0823 9.3524 32.1428 9.27961C32.1921 9.22023 32.1682 9.10089 32.1695 8.86004C32.1697 8.82434 32.1703 8.78883 32.1709 8.75344C32.1727 8.63567 32.1746 8.51916 32.1626 8.40076C32.1578 8.353 32.1569 8.29535 32.1561 8.23321C32.1529 8.00866 32.149 7.72541 31.951 7.63749C31.8594 7.59678 31.7483 7.60144 31.6212 7.60678C31.3256 7.6192 30.9439 7.63523 30.5208 7.0925C30.3554 6.88023 30.3191 6.25088 30.3568 5.95609C30.411 5.69643 30.5901 5.21584 30.8558 5.07454C31.0643 4.96372 31.3477 5.02882 31.6081 5.08861C31.9291 5.1623 32.2149 5.22794 32.282 4.94631C32.4021 4.44155 32.4416 3.6319 32.3768 3.15885C32.2311 3.14465 32.0327 3.14913 31.8133 3.15408C31.0222 3.17194 29.9575 3.19597 30.1062 2.37357C30.1202 2.29602 30.1417 2.22019 30.1631 2.1447C30.2269 1.92023 30.2897 1.69878 30.1517 1.44404C29.7669 0.733881 28.4994 0.959197 28.4625 1.64604C28.4487 1.90342 28.5882 2.07458 28.7168 2.23227C28.8681 2.41788 29.0042 2.58485 28.8572 2.85184C28.7722 3.00619 28.6993 3.03112 28.5139 3.07767C28.2274 3.14958 27.9156 3.13696 27.5972 3.12407C27.4265 3.11717 27.2538 3.11018 27.0822 3.11611C27.0338 3.11777 26.9987 3.12086 26.9661 3.12374Z" fill="black"/>
</svg>
