<svg width="40" height="40" viewBox="0 0 40 40" fill="none" xmlns="http://www.w3.org/2000/svg">
<g id="State=hover" clip-path="url(#clip0_3739_9408)">
<g id="Subtract">
<path d="M25.2098 20.0002C25.2098 17.1234 22.8778 14.7917 20.0014 14.7917C17.1248 14.7917 14.7931 17.1234 14.7931 20.0002C14.7931 22.8766 17.1248 25.2086 20.0014 25.2086C22.8778 25.2086 25.2098 22.8766 25.2098 20.0002Z" fill="white"/>
<path fill-rule="evenodd" clip-rule="evenodd" d="M19.4807 7.19063C19.1647 7.1905 18.8719 7.19037 18.5997 7.19078V7.18687C15.6877 7.19016 15.1291 7.20969 13.6877 7.27484C12.1642 7.34484 11.337 7.59875 10.7862 7.81359C10.057 8.09734 9.53625 8.43594 8.98938 8.98281C8.44234 9.52969 8.10328 10.0505 7.82 10.7797C7.60609 11.3305 7.35156 12.1573 7.28188 13.6808C7.20703 15.328 7.19203 15.8202 7.19203 19.9927C7.19203 24.1653 7.20703 24.66 7.28188 26.3072C7.35125 27.8306 7.60609 28.6575 7.82 29.2077C8.10391 29.9372 8.44234 30.4567 8.98922 31.0036C9.53609 31.5505 10.057 31.8889 10.7861 32.1722C11.3373 32.3861 12.1642 32.6406 13.6877 32.7109C15.3347 32.7858 15.8292 32.802 20.0014 32.802C24.1734 32.802 24.6681 32.7858 26.3153 32.7109C27.8387 32.6413 28.6663 32.3873 29.2164 32.1725C29.9459 31.8892 30.4652 31.5508 31.012 31.0039C31.5589 30.4573 31.8981 29.9381 32.1813 29.2089C32.3952 28.6587 32.6497 27.8319 32.7194 26.3084C32.7942 24.6614 32.8105 24.1666 32.8105 19.9966C32.8105 15.8266 32.7942 15.3319 32.7194 13.6847C32.65 12.1613 32.3952 11.3344 32.1813 10.7844C31.8973 10.0552 31.5589 9.53438 31.012 8.9875C30.4655 8.44047 29.9456 8.10188 29.2164 7.81875C28.6656 7.60484 27.8387 7.35031 26.3153 7.28063C24.6678 7.20578 24.1734 7.19078 20.0014 7.19078C19.8211 7.19078 19.6477 7.19071 19.4807 7.19063ZM26.467 11.6595C26.467 10.6242 27.3069 9.78516 28.342 9.78516C29.3772 9.78516 30.217 10.6244 30.217 11.6595C30.217 12.6947 29.3772 13.5345 28.342 13.5345C27.3069 13.5345 26.467 12.6947 26.467 11.6595ZM11.9773 20.0002C11.9773 15.5689 15.57 11.9761 20.0011 11.9759C24.4325 11.9759 28.0244 15.5689 28.0244 20.0002C28.0244 24.4316 24.4328 28.0227 20.0014 28.0227C15.5702 28.0227 11.9773 24.4316 11.9773 20.0002Z" fill="white"/>
<path fill-rule="evenodd" clip-rule="evenodd" d="M9.375 0H30.625C35.8027 0 40 4.19733 40 9.375V30.625C40 35.8027 35.8027 40 30.625 40H9.375C4.19733 40 0 35.8027 0 30.625V9.375C0 4.19733 4.19733 0 9.375 0ZM13.5588 4.46938C15.2253 4.39359 15.758 4.375 20.0014 4.375H19.9966C24.2414 4.375 24.772 4.39359 26.4387 4.46938C28.1022 4.54547 29.2383 4.80891 30.2344 5.19547C31.263 5.59406 32.1322 6.12797 33.0012 6.99703C33.8705 7.86562 34.4042 8.73734 34.8047 9.76516C35.1888 10.7586 35.4525 11.8939 35.5306 13.5573C35.6055 15.2241 35.625 15.7566 35.625 20.0002C35.625 24.2438 35.6055 24.775 35.5306 26.4416C35.4525 28.1044 35.1888 29.2402 34.8047 30.2341C34.4042 31.2614 33.8705 32.1331 33.0012 33.0016C32.1331 33.8708 31.2627 34.4059 30.2353 34.805C29.2411 35.1914 28.1044 35.4547 26.4409 35.5309C24.7744 35.6067 24.2434 35.6253 19.9995 35.6253C15.7563 35.6253 15.2241 35.6067 13.5573 35.5309C11.8942 35.4547 10.7586 35.1914 9.76437 34.805C8.73734 34.4059 7.86563 33.8708 6.99734 33.0016C6.12859 32.1331 5.59469 31.2614 5.19531 30.2336C4.80922 29.2402 4.54594 28.1047 4.46938 26.4412C4.39375 24.7747 4.375 24.2438 4.375 20.0002C4.375 15.7566 4.39453 15.2238 4.46906 13.557C4.54391 11.8944 4.8075 10.7584 5.195 9.76469C5.59531 8.73734 6.12922 7.86562 6.99844 6.99703C7.86688 6.12828 8.73859 5.59438 9.76641 5.19531C10.7598 4.80891 11.8953 4.54563 13.5588 4.46938Z" fill="white"/>
</g>
</g>
<defs>
<clipPath id="clip0_3739_9408">
<rect width="40" height="40" fill="white"/>
</clipPath>
</defs>
</svg>
