<svg width="40" height="40" viewBox="0 0 40 40" fill="none" xmlns="http://www.w3.org/2000/svg">
<g id="telegram" clip-path="url(#clip0_1115_2543)">
<path id="Subtract" fill-rule="evenodd" clip-rule="evenodd" d="M5.85938 5.85781C9.60625 2.10844 14.6969 0 20 0C25.3031 0 30.3937 2.10844 34.1406 5.85781C37.8906 9.60719 40 14.6978 40 20C40 25.3022 37.8906 30.3928 34.1406 34.1422C30.3937 37.8916 25.3031 40 20 40C14.6969 40 9.60625 37.8916 5.85938 34.1422C2.10938 30.3928 0 25.3022 0 20C0.00103897 14.6956 2.10863 9.60868 5.85938 5.85781ZM20.7157 14.7651C18.7719 15.5741 14.8844 17.2488 9.05315 19.7888C8.10628 20.1654 7.6094 20.5338 7.56565 20.8938C7.48871 21.502 8.25033 21.7418 9.28523 22.0677C9.42717 22.1124 9.57426 22.1588 9.72503 22.2079C10.7469 22.5398 12.1219 22.9282 12.8344 22.9435C13.4844 22.9576 14.2063 22.6904 15.0032 22.1423C20.4532 18.4651 23.2625 16.6063 23.4407 16.5663C23.5657 16.5382 23.7375 16.5026 23.8532 16.6066C23.9719 16.7104 23.9594 16.9073 23.9469 16.9601C23.8732 17.2813 20.8927 20.0524 19.3417 21.4944C18.8541 21.9477 18.5078 22.2697 18.4375 22.3429C18.2805 22.506 18.1205 22.6602 17.9667 22.8085C17.0184 23.7227 16.3069 24.4085 18.0063 25.5282C18.8303 26.0709 19.488 26.5189 20.1453 26.9667C20.8516 27.4478 21.5575 27.9286 22.4688 28.5263C22.7031 28.6799 22.9269 28.8394 23.1448 28.9948C23.9731 29.5852 24.7172 30.1156 25.6375 30.031C26.1719 29.9819 26.725 29.4794 27.0032 27.9807C27.6657 24.4385 28.9688 16.7641 29.2688 13.6016C29.2969 13.3248 29.2625 12.9701 29.2375 12.8144C29.2094 12.6587 29.1532 12.4368 28.9532 12.2727C28.7125 12.0782 28.3438 12.0373 28.1782 12.0399C27.425 12.0535 26.2719 12.4548 20.7157 14.7651Z" fill="white" fill-opacity="0.75"/>
</g>
<defs>
<clipPath id="clip0_1115_2543">
<rect width="40" height="40" fill="white"/>
</clipPath>
</defs>
</svg>
