<svg width="56" height="40" viewBox="0 0 56 40" fill="none" xmlns="http://www.w3.org/2000/svg">
<g id="youtube" clip-path="url(#clip0_1115_2545)">
<path id="Subtract" fill-rule="evenodd" clip-rule="evenodd" d="M52.9459 3.05028C53.8155 3.93365 54.442 5.03301 54.7632 6.23889C56.6128 13.802 56.1855 25.7471 54.7991 33.6022C54.4779 34.8081 53.8513 35.9075 52.9817 36.7909C52.1121 37.6742 51.0299 38.3108 49.8429 38.6371C45.4974 39.8411 28.0073 39.8411 28.0073 39.8411C28.0073 39.8411 10.5169 39.8411 6.1712 38.6371C4.98418 38.3108 3.90202 37.6742 3.0325 36.7908C2.16297 35.9075 1.5364 34.8081 1.2152 33.6022C-0.64527 26.072 -0.135364 14.1196 1.1791 6.27556C1.50028 5.06964 2.12683 3.97023 2.99636 3.08682C3.86589 2.20341 4.94806 1.56682 6.1351 1.24044C10.4808 0.0364443 27.9716 0 27.9716 0C27.9716 0 45.4615 0 49.8072 1.204C50.9942 1.53036 52.0764 2.16692 52.9459 3.05028ZM36.9139 19.9204L22.4046 28.4577V11.3831L36.9139 19.9204Z" fill="white" fill-opacity="0.75"/>
</g>
<defs>
<clipPath id="clip0_1115_2545">
<rect width="56" height="40" fill="white"/>
</clipPath>
</defs>
</svg>
