<svg width="32" height="32" viewBox="0 0 32 32" fill="none" xmlns="http://www.w3.org/2000/svg">
<g id="delivery">
<g id="Vector">
<path d="M29.482 8.62383L19.482 3.12383C19.3343 3.0426 19.1685 3 19 3C18.8315 3 18.6657 3.0426 18.518 3.12383L8.518 8.62383C8.36121 8.71015 8.23047 8.83698 8.13941 8.99106C8.04835 9.14515 8.00031 9.32085 8.00031 9.49983C8.00031 9.67881 8.04835 9.85451 8.13941 10.0086C8.23047 10.1627 8.36121 10.2895 8.518 10.3758L18 15.5908V26.3098L14.964 24.6398L14 26.3908L18.518 28.8758C18.6656 28.9572 18.8314 28.9999 19 28.9999C19.1686 28.9999 19.3344 28.9572 19.482 28.8758L29.482 23.3758C29.6388 23.2895 29.7697 23.1627 29.8608 23.0087C29.9519 22.8546 30 22.6788 30 22.4998V9.49983C30 9.32082 29.9519 9.1451 29.8608 8.99101C29.7697 8.83692 29.6388 8.71011 29.482 8.62383ZM19 5.14183L26.925 9.49983L19 13.8578L11.075 9.49983L19 5.14183ZM28 21.9088L20 26.3088V15.5898L28 11.1898V21.9088Z" fill="url(#paint0_linear_2888_6881)"/>
<path d="M10 15.9998H2V13.9998H10V15.9998ZM12 23.9998H4V21.9998H12V23.9998ZM14 19.9998H6V17.9998H14V19.9998Z" fill="url(#paint1_linear_2888_6881)"/>
</g>
</g>
<defs>
<linearGradient id="paint0_linear_2888_6881" x1="2" y1="28.9838" x2="31.122" y2="27.6261" gradientUnits="userSpaceOnUse">
<stop stop-color="#8742DB"/>
<stop offset="1" stop-color="#D641DD"/>
</linearGradient>
<linearGradient id="paint1_linear_2888_6881" x1="2" y1="28.9838" x2="31.122" y2="27.6261" gradientUnits="userSpaceOnUse">
<stop stop-color="#8742DB"/>
<stop offset="1" stop-color="#D641DD"/>
</linearGradient>
</defs>
</svg>
