<svg width="14" height="14" viewBox="0 0 14 14" fill="none" xmlns="http://www.w3.org/2000/svg">
<path id="Star 4" d="M6.55825 0.833215C6.74614 0.478827 7.25386 0.478826 7.44175 0.833214L9.35347 4.43899C9.40033 4.52738 9.47262 4.59967 9.56101 4.64653L13.1668 6.55825C13.5212 6.74614 13.5212 7.25386 13.1668 7.44175L9.56101 9.35347C9.47262 9.40033 9.40033 9.47262 9.35347 9.56101L7.44175 13.1668C7.25386 13.5212 6.74614 13.5212 6.55825 13.1668L4.64653 9.56101C4.59967 9.47262 4.52738 9.40033 4.43899 9.35347L0.833215 7.44175C0.478827 7.25386 0.478826 6.74614 0.833214 6.55825L4.43899 4.64653C4.52738 4.59967 4.59967 4.52738 4.64653 4.43899L6.55825 0.833215Z" fill="white" fill-opacity="0.6"/>
</svg>
